<svg width="442" height="986" viewBox="0 0 442 986" fill="none" xmlns="http://www.w3.org/2000/svg">
<g opacity="0.09">
<circle cx="169.621" cy="516.822" r="52.6158" fill="#4AD2D6" stroke="#1DD0D5"/>
<circle cx="122.402" cy="646.661" r="52.6158" fill="#4AD2D6" stroke="#1DD0D5"/>
<circle cx="-4.48479" cy="596.496" r="52.6158" fill="#4AD2D6" stroke="#1DD0D5"/>
<circle cx="81.0894" cy="776.499" r="52.6158" fill="#4AD2D6" stroke="#1DD0D5"/>
<line x1="37.6728" y1="592.518" x2="138.003" y2="539.402" stroke="#1DD0D5" stroke-width="9"/>
<line x1="8.38813" y1="644.646" x2="59.2101" y2="746.157" stroke="#1DD0D5" stroke-width="9"/>
<circle cx="-51.7102" cy="729.447" r="52.6158" transform="rotate(-58.7242 -51.7102 729.447)" fill="#4AD2D6" stroke="#1DD0D5"/>
<circle cx="191.489" cy="1026.35" r="52.6158" transform="rotate(121.665 191.489 1026.35)" fill="#4AD2D6" stroke="#1DD0D5"/>
<circle cx="-4.13192" cy="1006.24" r="52.6158" transform="rotate(121.665 -4.13192 1006.24)" fill="#4AD2D6" stroke="#1DD0D5"/>
<circle cx="369.174" cy="866.152" r="52.6158" transform="rotate(61.2904 369.174 866.152)" fill="#4AD2D6" stroke="#1DD0D5"/>
<circle cx="232.612" cy="887.113" r="52.6158" transform="rotate(61.2904 232.612 887.113)" fill="#4AD2D6" stroke="#1DD0D5"/>
<circle cx="213.064" cy="753.144" r="52.6158" transform="rotate(61.2904 213.064 753.144)" fill="#4AD2D6" stroke="#1DD0D5"/>
<circle cx="98.8887" cy="913.25" r="52.6158" transform="rotate(61.2904 98.8887 913.25)" fill="#4AD2D6" stroke="#1DD0D5"/>
<line x1="239.386" y1="786.791" x2="334.168" y2="849.271" stroke="#1DD0D5" stroke-width="9"/>
<line x1="179.612" y1="786.15" x2="114.994" y2="879.487" stroke="#1DD0D5" stroke-width="9"/>
</g>
<g opacity="0.09">
<circle cx="81.0894" cy="75.4993" r="52.6158" fill="#4AD2D6" stroke="#1DD0D5"/>
<line x1="8.38813" y1="-56.3537" x2="59.2101" y2="45.1574" stroke="#1DD0D5" stroke-width="9"/>
<circle cx="-51.7107" cy="28.4469" r="52.6158" transform="rotate(-58.7242 -51.7107 28.4469)" fill="#4AD2D6" stroke="#1DD0D5"/>
<circle cx="-49.4336" cy="436.18" r="52.6158" transform="rotate(-179.079 -49.4336 436.18)" fill="#4AD2D6" stroke="#1DD0D5"/>
<circle cx="84.768" cy="408.587" r="52.6158" transform="rotate(121.665 84.768 408.587)" fill="#4AD2D6" stroke="#1DD0D5"/>
<circle cx="191.569" cy="325.374" r="52.6158" transform="rotate(121.665 191.569 325.374)" fill="#4AD2D6" stroke="#1DD0D5"/>
<circle cx="-4.05233" cy="305.265" r="52.6158" transform="rotate(121.665 -4.05233 305.265)" fill="#4AD2D6" stroke="#1DD0D5"/>
<line x1="175.333" y1="364.861" x2="169.492" y2="464.264" stroke="#1DD0D5" stroke-width="9"/>
<line x1="146.341" y1="312.606" x2="33.2628" y2="302.573" stroke="#1DD0D5" stroke-width="9"/>
<circle cx="369.253" cy="165.167" r="52.6158" transform="rotate(61.2904 369.253 165.167)" fill="#4AD2D6" stroke="#1DD0D5"/>
<circle cx="232.691" cy="186.128" r="52.6158" transform="rotate(61.2904 232.691 186.128)" fill="#4AD2D6" stroke="#1DD0D5"/>
<circle cx="213.144" cy="52.1597" r="52.6158" transform="rotate(61.2904 213.144 52.1597)" fill="#4AD2D6" stroke="#1DD0D5"/>
<circle cx="98.9678" cy="212.265" r="52.6158" transform="rotate(61.2904 98.9678 212.265)" fill="#4AD2D6" stroke="#1DD0D5"/>
<line x1="239.465" y1="85.8061" x2="334.247" y2="148.287" stroke="#1DD0D5" stroke-width="9"/>
<line x1="179.692" y1="85.1657" x2="115.073" y2="178.503" stroke="#1DD0D5" stroke-width="9"/>
</g>
</svg>
