<svg width="440" height="986" viewBox="0 0 440 986" fill="none" xmlns="http://www.w3.org/2000/svg">
<g opacity="0.09">
<circle cx="53.1158" cy="53.1158" r="52.6158" transform="matrix(-1 0 0 1 325.204 463.705)" fill="#4AD2D6" stroke="#1DD0D5"/>
<circle cx="53.1158" cy="53.1158" r="52.6158" transform="matrix(-1 0 0 1 372.423 593.544)" fill="#4AD2D6" stroke="#1DD0D5"/>
<circle cx="53.1158" cy="53.1158" r="52.6158" transform="matrix(-1 0 0 1 499.31 543.379)" fill="#4AD2D6" stroke="#1DD0D5"/>
<circle cx="53.1158" cy="53.1158" r="52.6158" transform="matrix(-1 0 0 1 413.735 723.382)" fill="#4AD2D6" stroke="#1DD0D5"/>
<line y1="-4.5" x2="113.523" y2="-4.5" transform="matrix(-0.883788 -0.467888 -0.467888 0.883788 401.931 596.494)" stroke="#1DD0D5" stroke-width="9"/>
<line y1="-4.5" x2="113.523" y2="-4.5" transform="matrix(-0.447681 0.894193 0.894193 0.447681 437.345 646.659)" stroke="#1DD0D5" stroke-width="9"/>
<circle cx="53.1158" cy="53.1158" r="52.6158" transform="matrix(-0.519158 -0.854679 -0.854679 0.519158 566.322 747.287)" fill="#4AD2D6" stroke="#1DD0D5"/>
<circle cx="53.1158" cy="53.1158" r="52.6158" transform="matrix(0.524957 0.851129 0.851129 -0.524957 177.128 1009.03)" fill="#4AD2D6" stroke="#1DD0D5"/>
<circle cx="53.1158" cy="53.1158" r="52.6158" transform="matrix(0.524957 0.851129 0.851129 -0.524957 372.75 988.92)" fill="#4AD2D6" stroke="#1DD0D5"/>
<circle cx="53.1158" cy="53.1158" r="52.6158" transform="matrix(-0.480371 0.877066 0.877066 0.480371 51.4648 794.05)" fill="#4AD2D6" stroke="#1DD0D5"/>
<circle cx="53.1158" cy="53.1158" r="52.6158" transform="matrix(-0.480371 0.877066 0.877066 0.480371 188.026 815.011)" fill="#4AD2D6" stroke="#1DD0D5"/>
<circle cx="53.1158" cy="53.1158" r="52.6158" transform="matrix(-0.480371 0.877066 0.877066 0.480371 207.574 681.042)" fill="#4AD2D6" stroke="#1DD0D5"/>
<circle cx="53.1158" cy="53.1158" r="52.6158" transform="matrix(-0.480371 0.877066 0.877066 0.480371 321.75 841.147)" fill="#4AD2D6" stroke="#1DD0D5"/>
<line y1="-4.5" x2="113.523" y2="-4.5" transform="matrix(-0.834914 0.55038 0.55038 0.834914 204.8 790.547)" stroke="#1DD0D5" stroke-width="9"/>
<line y1="-4.5" x2="113.523" y2="-4.5" transform="matrix(0.569213 0.82219 0.82219 -0.569213 265.797 783.588)" stroke="#1DD0D5" stroke-width="9"/>
</g>
<g opacity="0.09">
<circle cx="53.1158" cy="53.1158" r="52.6158" transform="matrix(-1 0 0 1 413.735 22.3835)" fill="#4AD2D6" stroke="#1DD0D5"/>
<line y1="-4.5" x2="113.523" y2="-4.5" transform="matrix(-0.447681 0.894193 0.894193 0.447681 437.345 -54.3391)" stroke="#1DD0D5" stroke-width="9"/>
<circle cx="53.1158" cy="53.1158" r="52.6158" transform="matrix(-0.519158 -0.854679 -0.854679 0.519158 566.392 46.2683)" fill="#4AD2D6" stroke="#1DD0D5"/>
<circle cx="53.1158" cy="53.1158" r="52.6158" transform="matrix(0.999871 -0.0160786 -0.0160786 -0.999871 438.819 490.143)" fill="#4AD2D6" stroke="#1DD0D5"/>
<circle cx="53.1158" cy="53.1158" r="52.6158" transform="matrix(0.524957 0.851129 0.851129 -0.524957 283.849 391.262)" fill="#4AD2D6" stroke="#1DD0D5"/>
<circle cx="53.1158" cy="53.1158" r="52.6158" transform="matrix(0.524957 0.851129 0.851129 -0.524957 177.048 308.05)" fill="#4AD2D6" stroke="#1DD0D5"/>
<circle cx="53.1158" cy="53.1158" r="52.6158" transform="matrix(0.524957 0.851129 0.851129 -0.524957 372.669 287.94)" fill="#4AD2D6" stroke="#1DD0D5"/>
<line y1="-4.5" x2="99.574" y2="-4.5" transform="matrix(0.0586532 0.998278 0.998278 -0.0586532 270.869 364.597)" stroke="#1DD0D5" stroke-width="9"/>
<line y1="-4.5" x2="113.523" y2="-4.5" transform="matrix(0.996087 -0.0883781 -0.0883781 -0.996087 294.97 308.124)" stroke="#1DD0D5" stroke-width="9"/>
<circle cx="53.1158" cy="53.1158" r="52.6158" transform="matrix(-0.480371 0.877066 0.877066 0.480371 51.3853 93.0662)" fill="#4AD2D6" stroke="#1DD0D5"/>
<circle cx="53.1158" cy="53.1158" r="52.6158" transform="matrix(-0.480371 0.877066 0.877066 0.480371 187.947 114.027)" fill="#4AD2D6" stroke="#1DD0D5"/>
<circle cx="53.1158" cy="53.1158" r="52.6158" transform="matrix(-0.480371 0.877066 0.877066 0.480371 207.495 -19.9417)" fill="#4AD2D6" stroke="#1DD0D5"/>
<circle cx="53.1158" cy="53.1158" r="52.6158" transform="matrix(-0.480371 0.877066 0.877066 0.480371 321.67 140.164)" fill="#4AD2D6" stroke="#1DD0D5"/>
<line y1="-4.5" x2="113.523" y2="-4.5" transform="matrix(-0.834914 0.55038 0.55038 0.834914 204.72 89.5632)" stroke="#1DD0D5" stroke-width="9"/>
<line y1="-4.5" x2="113.523" y2="-4.5" transform="matrix(0.569213 0.82219 0.82219 -0.569213 265.717 82.6042)" stroke="#1DD0D5" stroke-width="9"/>
</g>
</svg>
