<svg width="238" height="70" viewBox="0 0 238 70" fill="none" xmlns="http://www.w3.org/2000/svg">
<circle cx="16.846" cy="13.7404" r="3.23188" transform="rotate(-57.3599 16.846 13.7404)" fill="#30BABA"/>
<circle cx="4.41027" cy="35.0313" r="3.23188" transform="rotate(-119.775 4.41027 35.0313)" fill="#30BABA"/>
<circle cx="16.6993" cy="56.2797" r="3.23188" transform="rotate(-179.055 16.6993 56.2797)" fill="#30BABA"/>
<circle cx="41.0041" cy="56.2046" r="3.23188" transform="rotate(120.606 41.0041 56.2046)" fill="#30BABA"/>
<circle cx="53.1766" cy="34.812" r="3.23188" transform="rotate(60.7085 53.1766 34.812)" fill="#30BABA"/>
<circle cx="21.9485" cy="20.4221" r="3.23188" transform="rotate(-57.3599 21.9485 20.4221)" fill="#30BABA"/>
<circle cx="12.693" cy="33.6016" r="3.23188" transform="rotate(-119.775 12.693 33.6016)" fill="#30BABA"/>
<circle cx="19.7027" cy="48.4281" r="3.23188" transform="rotate(-179.055 19.7027 48.4281)" fill="#30BABA"/>
<circle cx="35.6676" cy="49.7085" r="3.23188" transform="rotate(120.606 35.6676 49.7085)" fill="#30BABA"/>
<circle cx="44.8812" cy="36.1713" r="3.23188" transform="rotate(60.7085 44.8812 36.1713)" fill="#30BABA"/>
<circle cx="15.3655" cy="25.3732" r="3.23188" transform="rotate(-57.3599 15.3655 25.3732)" fill="#30BABA"/>
<circle cx="14.0343" cy="41.7305" r="3.23188" transform="rotate(-119.775 14.0343 41.7305)" fill="#30BABA"/>
<circle cx="27.3741" cy="51.4262" r="3.23188" transform="rotate(-179.055 27.3741 51.4262)" fill="#30BABA"/>
<circle cx="42.0705" cy="44.5268" r="3.23188" transform="rotate(120.606 42.0705 44.5268)" fill="#30BABA"/>
<circle cx="43.6102" cy="28.0327" r="3.23188" transform="rotate(60.7085 43.6102 28.0327)" fill="#30BABA"/>
<circle cx="27.2449" cy="26.799" r="3.23188" transform="rotate(-57.3599 27.2449 26.799)" fill="#30BABA"/>
<circle cx="20.7989" cy="31.8613" r="3.23188" transform="rotate(-119.775 20.7989 31.8613)" fill="#30BABA"/>
<circle cx="22.3458" cy="40.5707" r="3.23188" transform="rotate(-179.055 22.3458 40.5707)" fill="#30BABA"/>
<circle cx="30.1471" cy="43.5229" r="3.23188" transform="rotate(120.606 30.1471 43.5229)" fill="#30BABA"/>
<circle cx="36.7621" cy="37.8452" r="3.23188" transform="rotate(60.7085 36.7621 37.8452)" fill="#30BABA"/>
<circle cx="40.8867" cy="13.7651" r="3.15651" fill="#30BABA" stroke="#30BABA" stroke-width="0.150731"/>
<circle cx="38.0131" cy="21.6655" r="3.15651" fill="#30BABA" stroke="#30BABA" stroke-width="0.150731"/>
<circle cx="30.2929" cy="18.6127" r="3.15651" fill="#30BABA" stroke="#30BABA" stroke-width="0.150731"/>
<circle cx="35.4999" cy="29.5659" r="3.15651" fill="#30BABA" stroke="#30BABA" stroke-width="0.150731"/>
<line x1="32.6685" y1="18.0119" x2="38.7731" y2="14.78" stroke="#30BABA" stroke-width="1.35658"/>
<line x1="31.4376" y1="21.3604" x2="34.5299" y2="27.5369" stroke="#30BABA" stroke-width="1.35658"/>
<circle cx="16.7111" cy="13.8961" r="3.15651" transform="rotate(-58.7242 16.7111 13.8961)" fill="#30BABA" stroke="#30BABA" stroke-width="0.150731"/>
<circle cx="21.9713" cy="20.4527" r="3.15651" transform="rotate(-58.7242 21.9713 20.4527)" fill="#30BABA" stroke="#30BABA" stroke-width="0.150731"/>
<circle cx="15.5079" cy="25.5621" r="3.15651" transform="rotate(-58.7242 15.5079 25.5621)" fill="#30BABA" stroke="#30BABA" stroke-width="0.150731"/>
<circle cx="27.4186" cy="26.7027" r="3.15651" transform="rotate(-58.7242 27.4186 26.7027)" fill="#30BABA" stroke="#30BABA" stroke-width="0.150731"/>
<line x1="16.0758" y1="23.126" x2="16.4829" y2="16.2307" stroke="#30BABA" stroke-width="1.35658"/>
<line x1="18.2985" y1="25.9158" x2="25.1829" y2="26.4794" stroke="#30BABA" stroke-width="1.35658"/>
<circle cx="4.49375" cy="35.0957" r="3.15651" transform="rotate(-119.965 4.49375 35.0957)" fill="#30BABA" stroke="#30BABA" stroke-width="0.150731"/>
<circle cx="12.7735" cy="33.6386" r="3.15651" transform="rotate(-119.965 12.7735 33.6386)" fill="#30BABA" stroke="#30BABA" stroke-width="0.150731"/>
<circle cx="14.1407" cy="41.7617" r="3.15651" transform="rotate(-119.965 14.1407 41.7617)" fill="#30BABA" stroke="#30BABA" stroke-width="0.150731"/>
<circle cx="20.8731" cy="31.8711" r="3.15651" transform="rotate(-119.965 20.8731 31.8711)" fill="#30BABA" stroke="#30BABA" stroke-width="0.150731"/>
<line x1="12.2798" y1="40.0919" x2="6.43083" y2="36.4175" stroke="#30BABA" stroke-width="1.35658"/>
<line x1="15.7948" y1="39.4856" x2="19.6012" y2="33.7216" stroke="#30BABA" stroke-width="1.35658"/>
<circle cx="16.883" cy="56.367" r="3.15651" transform="rotate(-179.079 16.883 56.367)" fill="#30BABA" stroke="#30BABA" stroke-width="0.150731"/>
<circle cx="19.882" cy="48.5154" r="3.15651" transform="rotate(-179.079 19.882 48.5154)" fill="#30BABA" stroke="#30BABA" stroke-width="0.150731"/>
<circle cx="27.5549" cy="51.5115" r="3.15651" transform="rotate(-179.079 27.5549 51.5115)" fill="#30BABA" stroke="#30BABA" stroke-width="0.150731"/>
<circle cx="22.5227" cy="40.656" r="3.15651" transform="rotate(-179.079 22.5227 40.656)" fill="#30BABA" stroke="#30BABA" stroke-width="0.150731"/>
<line x1="25.1675" y1="52.251" x2="19.0117" y2="55.3843" stroke="#30BABA" stroke-width="1.35658"/>
<line x1="26.4522" y1="48.9228" x2="23.4596" y2="42.6973" stroke="#30BABA" stroke-width="1.35658"/>
<circle cx="40.9389" cy="56.2456" r="3.15651" transform="rotate(121.665 40.9389 56.2456)" fill="#30BABA" stroke="#30BABA" stroke-width="0.150731"/>
<circle cx="35.7231" cy="49.6538" r="3.15651" transform="rotate(121.665 35.7231 49.6538)" fill="#30BABA" stroke="#30BABA" stroke-width="0.150731"/>
<circle cx="42.2206" cy="44.5893" r="3.15651" transform="rotate(121.665 42.2206 44.5893)" fill="#30BABA" stroke="#30BABA" stroke-width="0.150731"/>
<circle cx="30.3027" cy="43.3491" r="3.15651" transform="rotate(121.665 30.3027 43.3491)" fill="#30BABA" stroke="#30BABA" stroke-width="0.150731"/>
<line x1="41.6363" y1="47.0211" x2="41.1824" y2="53.9136" stroke="#30BABA" stroke-width="1.35658"/>
<line x1="39.4327" y1="44.2166" x2="32.5524" y2="43.6062" stroke="#30BABA" stroke-width="1.35658"/>
<circle cx="53.0314" cy="35.0199" r="3.15651" transform="rotate(61.2904 53.0314 35.0199)" fill="#30BABA" stroke="#30BABA" stroke-width="0.150731"/>
<circle cx="44.7223" cy="36.2953" r="3.15651" transform="rotate(61.2904 44.7223 36.2953)" fill="#30BABA" stroke="#30BABA" stroke-width="0.150731"/>
<circle cx="43.5334" cy="28.1449" r="3.15651" transform="rotate(61.2904 43.5334 28.1449)" fill="#30BABA" stroke="#30BABA" stroke-width="0.150731"/>
<circle cx="36.5856" cy="37.8851" r="3.15651" transform="rotate(61.2904 36.5856 37.8851)" fill="#30BABA" stroke="#30BABA" stroke-width="0.150731"/>
<line x1="45.3582" y1="29.8536" x2="51.1252" y2="33.6553" stroke="#30BABA" stroke-width="1.35658"/>
<line x1="41.8306" y1="30.3822" x2="37.8989" y2="36.0614" stroke="#30BABA" stroke-width="1.35658"/>
<path d="M67.8519 44.6191V25.2167H77.0264C79.17 25.2167 81.0548 25.614 82.6809 26.4086C84.307 27.2031 85.5728 28.3211 86.4782 29.7624C87.4021 31.2037 87.8641 32.9222 87.8641 34.9179C87.8641 36.8951 87.4021 38.6136 86.4782 40.0734C85.5728 41.5148 84.307 42.6327 82.6809 43.4273C81.0548 44.2219 79.17 44.6191 77.0264 44.6191H67.8519ZM73.34 40.2397H76.8047C77.9134 40.2397 78.8743 40.0365 79.6873 39.6299C80.5189 39.2049 81.1656 38.5951 81.6276 37.8006C82.0896 36.9875 82.3205 36.0266 82.3205 34.9179C82.3205 33.7907 82.0896 32.8299 81.6276 32.0353C81.1656 31.2407 80.5189 30.6401 79.6873 30.2336C78.8743 29.8086 77.9134 29.5961 76.8047 29.5961H73.34V40.2397ZM88.1525 44.6191L96.7173 25.2167H102.122L110.715 44.6191H105.005L98.2972 27.9053H100.459L93.7515 44.6191H88.1525ZM92.8368 40.8495L94.2504 36.8027H103.73L105.144 40.8495H92.8368ZM115.426 44.6191V29.5684H109.467V25.2167H126.846V29.5684H120.914V44.6191H115.426ZM125.588 44.6191L134.153 25.2167H139.557L148.15 44.6191H142.44L135.732 27.9053H137.894L131.187 44.6191H125.588ZM130.272 40.8495L131.686 36.8027H141.165L142.579 40.8495H130.272ZM154.806 33.7261H163.759V37.9669H154.806V33.7261ZM155.194 44.6191H149.706V25.2167H164.923V29.4575H155.194V44.6191ZM167.49 44.6191V25.2167H172.978V40.2675H182.235V44.6191H167.49ZM193.894 45.0072C192.342 45.0072 190.91 44.7577 189.598 44.2588C188.286 43.7599 187.14 43.0577 186.161 42.1523C185.2 41.2283 184.451 40.1566 183.915 38.937C183.38 37.7174 183.112 36.3777 183.112 34.9179C183.112 33.4581 183.38 32.1184 183.915 30.8988C184.451 29.6793 185.2 28.6168 186.161 27.7113C187.14 26.7874 188.286 26.076 189.598 25.577C190.91 25.0781 192.342 24.8287 193.894 24.8287C195.465 24.8287 196.897 25.0781 198.19 25.577C199.502 26.076 200.638 26.7874 201.599 27.7113C202.56 28.6168 203.309 29.6793 203.845 30.8988C204.399 32.1184 204.676 33.4581 204.676 34.9179C204.676 36.3777 204.399 37.7267 203.845 38.9647C203.309 40.1843 202.56 41.2468 201.599 42.1523C200.638 43.0577 199.502 43.7599 198.19 44.2588C196.897 44.7577 195.465 45.0072 193.894 45.0072ZM193.894 40.4615C194.633 40.4615 195.317 40.3321 195.945 40.0734C196.592 39.8147 197.146 39.4452 197.608 38.9647C198.088 38.4658 198.458 37.8745 198.717 37.1908C198.994 36.5071 199.132 35.7495 199.132 34.9179C199.132 34.0679 198.994 33.3103 198.717 32.6451C198.458 31.9614 198.088 31.3793 197.608 30.8988C197.146 30.3999 196.592 30.0211 195.945 29.7624C195.317 29.5037 194.633 29.3744 193.894 29.3744C193.155 29.3744 192.462 29.5037 191.815 29.7624C191.187 30.0211 190.632 30.3999 190.152 30.8988C189.69 31.3793 189.32 31.9614 189.043 32.6451C188.785 33.3103 188.655 34.0679 188.655 34.9179C188.655 35.7495 188.785 36.5071 189.043 37.1908C189.32 37.8745 189.69 38.4658 190.152 38.9647C190.632 39.4452 191.187 39.8147 191.815 40.0734C192.462 40.3321 193.155 40.4615 193.894 40.4615ZM211.696 44.6191L205.404 25.2167H211.058L216.353 42.0137H213.498L219.069 25.2167H224.114L229.38 42.0137H226.636L232.096 25.2167H237.335L231.043 44.6191H225.167L220.677 30.3445H222.256L217.572 44.6191H211.696Z" fill="#30BABA"/>
</svg>
