<svg width="263" height="70" viewBox="0 0 263 70" fill="none" xmlns="http://www.w3.org/2000/svg">
<circle cx="24.9612" cy="13.7389" r="3.23188" transform="rotate(-57.3599 24.9612 13.7389)" fill="#30BABA"/>
<circle cx="12.5255" cy="35.0303" r="3.23188" transform="rotate(-119.775 12.5255 35.0303)" fill="#30BABA"/>
<circle cx="24.8146" cy="56.2782" r="3.23188" transform="rotate(-179.055 24.8146 56.2782)" fill="#30BABA"/>
<circle cx="49.1193" cy="56.2021" r="3.23188" transform="rotate(120.606 49.1193 56.2021)" fill="#30BABA"/>
<circle cx="61.2919" cy="34.8095" r="3.23188" transform="rotate(60.7085 61.2919 34.8095)" fill="#30BABA"/>
<circle cx="30.0637" cy="20.4191" r="3.23188" transform="rotate(-57.3599 30.0637 20.4191)" fill="#30BABA"/>
<circle cx="20.8082" cy="33.5996" r="3.23188" transform="rotate(-119.775 20.8082 33.5996)" fill="#30BABA"/>
<circle cx="27.818" cy="48.4262" r="3.23188" transform="rotate(-179.055 27.818 48.4262)" fill="#30BABA"/>
<circle cx="43.7829" cy="49.7065" r="3.23188" transform="rotate(120.606 43.7829 49.7065)" fill="#30BABA"/>
<circle cx="52.9964" cy="36.1699" r="3.23188" transform="rotate(60.7085 52.9964 36.1699)" fill="#30BABA"/>
<circle cx="23.4803" cy="25.3713" r="3.23188" transform="rotate(-57.3599 23.4803 25.3713)" fill="#30BABA"/>
<circle cx="22.1495" cy="41.728" r="3.23188" transform="rotate(-119.775 22.1495 41.728)" fill="#30BABA"/>
<circle cx="35.4894" cy="51.4252" r="3.23188" transform="rotate(-179.055 35.4894 51.4252)" fill="#30BABA"/>
<circle cx="50.1857" cy="44.5244" r="3.23188" transform="rotate(120.606 50.1857 44.5244)" fill="#30BABA"/>
<circle cx="51.725" cy="28.0312" r="3.23188" transform="rotate(60.7085 51.725 28.0312)" fill="#30BABA"/>
<circle cx="35.3601" cy="26.7971" r="3.23188" transform="rotate(-57.3599 35.3601 26.7971)" fill="#30BABA"/>
<circle cx="28.9142" cy="31.8589" r="3.23188" transform="rotate(-119.775 28.9142 31.8589)" fill="#30BABA"/>
<circle cx="30.461" cy="40.5692" r="3.23188" transform="rotate(-179.055 30.461 40.5692)" fill="#30BABA"/>
<circle cx="38.2619" cy="43.5215" r="3.23188" transform="rotate(120.606 38.2619 43.5215)" fill="#30BABA"/>
<circle cx="44.8773" cy="37.8427" r="3.23188" transform="rotate(60.7085 44.8773 37.8427)" fill="#30BABA"/>
<circle cx="49.0014" cy="13.7636" r="3.15651" fill="#30BABA" stroke="#30BABA" stroke-width="0.150731"/>
<circle cx="46.1279" cy="21.6635" r="3.15651" fill="#30BABA" stroke="#30BABA" stroke-width="0.150731"/>
<circle cx="38.4077" cy="18.6108" r="3.15651" fill="#30BABA" stroke="#30BABA" stroke-width="0.150731"/>
<circle cx="43.6147" cy="29.5639" r="3.15651" fill="#30BABA" stroke="#30BABA" stroke-width="0.150731"/>
<line x1="40.7832" y1="18.0109" x2="46.8879" y2="14.779" stroke="#30BABA" stroke-width="1.35658"/>
<line x1="39.5523" y1="21.3585" x2="42.6446" y2="27.535" stroke="#30BABA" stroke-width="1.35658"/>
<circle cx="24.8263" cy="13.8946" r="3.15651" transform="rotate(-58.7242 24.8263 13.8946)" fill="#30BABA" stroke="#30BABA" stroke-width="0.150731"/>
<circle cx="30.0866" cy="20.4508" r="3.15651" transform="rotate(-58.7242 30.0866 20.4508)" fill="#30BABA" stroke="#30BABA" stroke-width="0.150731"/>
<circle cx="23.6232" cy="25.5587" r="3.15651" transform="rotate(-58.7242 23.6232 25.5587)" fill="#30BABA" stroke="#30BABA" stroke-width="0.150731"/>
<circle cx="35.5333" cy="26.6998" r="3.15651" transform="rotate(-58.7242 35.5333 26.6998)" fill="#30BABA" stroke="#30BABA" stroke-width="0.150731"/>
<line x1="24.1911" y1="23.1236" x2="24.5981" y2="16.2282" stroke="#30BABA" stroke-width="1.35658"/>
<line x1="26.4137" y1="25.9133" x2="33.2981" y2="26.477" stroke="#30BABA" stroke-width="1.35658"/>
<circle cx="12.609" cy="35.0937" r="3.15651" transform="rotate(-119.965 12.609 35.0937)" fill="#30BABA" stroke="#30BABA" stroke-width="0.150731"/>
<circle cx="20.8888" cy="33.6367" r="3.15651" transform="rotate(-119.965 20.8888 33.6367)" fill="#30BABA" stroke="#30BABA" stroke-width="0.150731"/>
<circle cx="22.256" cy="41.7607" r="3.15651" transform="rotate(-119.965 22.256 41.7607)" fill="#30BABA" stroke="#30BABA" stroke-width="0.150731"/>
<circle cx="28.9884" cy="31.8686" r="3.15651" transform="rotate(-119.965 28.9884 31.8686)" fill="#30BABA" stroke="#30BABA" stroke-width="0.150731"/>
<line x1="20.395" y1="40.091" x2="14.5461" y2="36.4165" stroke="#30BABA" stroke-width="1.35658"/>
<line x1="23.9101" y1="39.4846" x2="27.7165" y2="33.7207" stroke="#30BABA" stroke-width="1.35658"/>
<circle cx="24.9987" cy="56.366" r="3.15651" transform="rotate(-179.079 24.9987 56.366)" fill="#30BABA" stroke="#30BABA" stroke-width="0.150731"/>
<circle cx="27.9973" cy="48.5135" r="3.15651" transform="rotate(-179.079 27.9973 48.5135)" fill="#30BABA" stroke="#30BABA" stroke-width="0.150731"/>
<circle cx="35.6706" cy="51.51" r="3.15651" transform="rotate(-179.079 35.6706 51.51)" fill="#30BABA" stroke="#30BABA" stroke-width="0.150731"/>
<circle cx="30.6379" cy="40.6541" r="3.15651" transform="rotate(-179.079 30.6379 40.6541)" fill="#30BABA" stroke="#30BABA" stroke-width="0.150731"/>
<line x1="33.2828" y1="52.2505" x2="27.1269" y2="55.3838" stroke="#30BABA" stroke-width="1.35658"/>
<line x1="34.5674" y1="48.9218" x2="31.5748" y2="42.6963" stroke="#30BABA" stroke-width="1.35658"/>
<circle cx="49.0536" cy="56.2431" r="3.15651" transform="rotate(121.665 49.0536 56.2431)" fill="#30BABA" stroke="#30BABA" stroke-width="0.150731"/>
<circle cx="43.8378" cy="49.6508" r="3.15651" transform="rotate(121.665 43.8378 49.6508)" fill="#30BABA" stroke="#30BABA" stroke-width="0.150731"/>
<circle cx="50.3354" cy="44.5869" r="3.15651" transform="rotate(121.665 50.3354 44.5869)" fill="#30BABA" stroke="#30BABA" stroke-width="0.150731"/>
<circle cx="38.4179" cy="43.3466" r="3.15651" transform="rotate(121.665 38.4179 43.3466)" fill="#30BABA" stroke="#30BABA" stroke-width="0.150731"/>
<line x1="49.7515" y1="47.0182" x2="49.2976" y2="53.9107" stroke="#30BABA" stroke-width="1.35658"/>
<line x1="47.548" y1="44.2137" x2="40.6676" y2="43.6033" stroke="#30BABA" stroke-width="1.35658"/>
<circle cx="61.1462" cy="35.0174" r="3.15651" transform="rotate(61.2904 61.1462 35.0174)" fill="#30BABA" stroke="#30BABA" stroke-width="0.150731"/>
<circle cx="52.8376" cy="36.2933" r="3.15651" transform="rotate(61.2904 52.8376 36.2933)" fill="#30BABA" stroke="#30BABA" stroke-width="0.150731"/>
<circle cx="51.6486" cy="28.142" r="3.15651" transform="rotate(61.2904 51.6486 28.142)" fill="#30BABA" stroke="#30BABA" stroke-width="0.150731"/>
<circle cx="44.7008" cy="37.8836" r="3.15651" transform="rotate(61.2904 44.7008 37.8836)" fill="#30BABA" stroke="#30BABA" stroke-width="0.150731"/>
<line x1="53.4734" y1="29.8521" x2="59.2405" y2="33.6538" stroke="#30BABA" stroke-width="1.35658"/>
<line x1="49.9459" y1="30.3807" x2="46.0141" y2="36.0599" stroke="#30BABA" stroke-width="1.35658"/>
<path d="M75.9666 44.6182V25.2157H85.1412C87.2847 25.2157 89.1695 25.613 90.7956 26.4076C92.4217 27.2022 93.6875 28.3201 94.5929 29.7614C95.5169 31.2028 95.9788 32.9213 95.9788 34.9169C95.9788 36.8941 95.5169 38.6126 94.5929 40.0725C93.6875 41.5138 92.4217 42.6317 90.7956 43.4263C89.1695 44.2209 87.2847 44.6182 85.1412 44.6182H75.9666ZM81.4547 40.2388H84.9194C86.0282 40.2388 86.989 40.0355 87.8021 39.629C88.6336 39.204 89.2804 38.5942 89.7423 37.7996C90.2043 36.9865 90.4353 36.0257 90.4353 34.9169C90.4353 33.7898 90.2043 32.8289 89.7423 32.0343C89.2804 31.2397 88.6336 30.6392 87.8021 30.2326C86.989 29.8076 86.0282 29.5951 84.9194 29.5951H81.4547V40.2388ZM96.2673 44.6182L104.832 25.2157H110.237L118.83 44.6182H113.12L106.412 27.9044H108.574L101.866 44.6182H96.2673ZM100.952 40.8485L102.365 36.8018H111.845L113.258 40.8485H100.952ZM123.541 44.6182V29.5674H117.582V25.2157H134.961V29.5674H129.029V44.6182H123.541ZM133.702 44.6182L142.267 25.2157H147.672L156.265 44.6182H150.555L143.847 27.9044H146.009L139.301 44.6182H133.702ZM138.387 40.8485L139.8 36.8018H149.28L150.693 40.8485H138.387ZM162.921 33.7251H171.874V37.9659H162.921V33.7251ZM163.309 44.6182H157.821V25.2157H173.038V29.4565H163.309V44.6182ZM175.604 44.6182V25.2157H181.092V40.2665H190.35V44.6182H175.604ZM202.009 45.0062C200.456 45.0062 199.024 44.7568 197.712 44.2578C196.4 43.7589 195.255 43.0567 194.275 42.1513C193.314 41.2274 192.566 40.1556 192.03 38.936C191.494 37.7164 191.226 36.3767 191.226 34.9169C191.226 33.4571 191.494 32.1175 192.03 30.8979C192.566 29.6783 193.314 28.6158 194.275 27.7103C195.255 26.7864 196.4 26.075 197.712 25.5761C199.024 25.0771 200.456 24.8277 202.009 24.8277C203.579 24.8277 205.011 25.0771 206.305 25.5761C207.617 26.075 208.753 26.7864 209.714 27.7103C210.675 28.6158 211.423 29.6783 211.959 30.8979C212.514 32.1175 212.791 33.4571 212.791 34.9169C212.791 36.3767 212.514 37.7257 211.959 38.9637C211.423 40.1833 210.675 41.2458 209.714 42.1513C208.753 43.0567 207.617 43.7589 206.305 44.2578C205.011 44.7568 203.579 45.0062 202.009 45.0062ZM202.009 40.4605C202.748 40.4605 203.431 40.3312 204.06 40.0725C204.706 39.8138 205.261 39.4442 205.723 38.9637C206.203 38.4648 206.573 37.8735 206.831 37.1898C207.109 36.5061 207.247 35.7485 207.247 34.9169C207.247 34.0669 207.109 33.3093 206.831 32.6441C206.573 31.9604 206.203 31.3783 205.723 30.8979C205.261 30.399 204.706 30.0201 204.06 29.7614C203.431 29.5027 202.748 29.3734 202.009 29.3734C201.269 29.3734 200.576 29.5027 199.93 29.7614C199.301 30.0201 198.747 30.399 198.267 30.8979C197.805 31.3783 197.435 31.9604 197.158 32.6441C196.899 33.3093 196.77 34.0669 196.77 34.9169C196.77 35.7485 196.899 36.5061 197.158 37.1898C197.435 37.8735 197.805 38.4648 198.267 38.9637C198.747 39.4442 199.301 39.8138 199.93 40.0725C200.576 40.3312 201.269 40.4605 202.009 40.4605ZM219.784 44.6182L213.492 25.2157H219.146L224.44 42.0127H221.585L227.157 25.2157H232.201L237.468 42.0127H234.724L240.184 25.2157H245.423L239.131 44.6182H233.255L228.764 30.3435H230.344L225.66 44.6182H219.784Z" fill="#30BABA"/>
</svg>
