<svg width="454" height="845" viewBox="0 0 454 845" fill="none" xmlns="http://www.w3.org/2000/svg">
<g opacity="0.09">
<circle cx="181.62" cy="70.8248" r="52.6158" fill="#4AD2D6" fill-opacity="0.5" stroke="#1DD0D5"/>
<circle cx="134.401" cy="200.664" r="52.6158" fill="#4AD2D6" fill-opacity="0.5" stroke="#1DD0D5"/>
<circle cx="7.51423" cy="150.499" r="52.6158" fill="#4AD2D6" fill-opacity="0.5" stroke="#1DD0D5"/>
<circle cx="93.0884" cy="330.502" r="52.6158" fill="#4AD2D6" fill-opacity="0.5" stroke="#1DD0D5"/>
<line x1="49.6718" y1="146.521" x2="150.002" y2="93.4052" stroke="#1DD0D5" stroke-width="9"/>
<line x1="20.3871" y1="198.649" x2="71.2091" y2="300.16" stroke="#1DD0D5" stroke-width="9"/>
<circle cx="-39.7112" cy="283.446" r="52.6158" transform="rotate(-58.7242 -39.7112 283.446)" fill="#4AD2D6" fill-opacity="0.5" stroke="#1DD0D5"/>
<circle cx="-37.4346" cy="691.179" r="52.6158" transform="rotate(-179.079 -37.4346 691.179)" fill="#4AD2D6" fill-opacity="0.5" stroke="#1DD0D5"/>
<circle cx="182.416" cy="771.914" r="52.6158" transform="rotate(121.665 182.416 771.914)" fill="#4AD2D6" fill-opacity="0.5" stroke="#1DD0D5"/>
<circle cx="96.6855" cy="663.569" r="52.6158" transform="rotate(121.665 96.6855 663.569)" fill="#4AD2D6" fill-opacity="0.5" stroke="#1DD0D5"/>
<circle cx="203.486" cy="580.356" r="52.6158" transform="rotate(121.665 203.486 580.356)" fill="#4AD2D6" fill-opacity="0.5" stroke="#1DD0D5"/>
<circle cx="7.86515" cy="560.247" r="52.6158" transform="rotate(121.665 7.86515 560.247)" fill="#4AD2D6" fill-opacity="0.5" stroke="#1DD0D5"/>
<line x1="187.248" y1="619.875" x2="179.788" y2="733.152" stroke="#1DD0D5" stroke-width="9"/>
<line x1="158.259" y1="567.588" x2="45.1803" y2="557.555" stroke="#1DD0D5" stroke-width="9"/>
<circle cx="381.171" cy="420.155" r="52.6158" transform="rotate(61.2904 381.171 420.155)" fill="#4AD2D6" fill-opacity="0.5" stroke="#1DD0D5"/>
<circle cx="244.609" cy="441.116" r="52.6158" transform="rotate(61.2904 244.609 441.116)" fill="#4AD2D6" fill-opacity="0.5" stroke="#1DD0D5"/>
<circle cx="225.062" cy="307.147" r="52.6158" transform="rotate(61.2904 225.062 307.147)" fill="#4AD2D6" fill-opacity="0.5" stroke="#1DD0D5"/>
<circle cx="110.886" cy="467.253" r="52.6158" transform="rotate(61.2904 110.886 467.253)" fill="#4AD2D6" fill-opacity="0.5" stroke="#1DD0D5"/>
<line x1="251.383" y1="340.794" x2="346.164" y2="403.274" stroke="#1DD0D5" stroke-width="9"/>
<line x1="191.61" y1="340.153" x2="126.992" y2="433.49" stroke="#1DD0D5" stroke-width="9"/>
</g>
</svg>
