<svg width="590" height="567" viewBox="0 0 590 567" fill="none" xmlns="http://www.w3.org/2000/svg">
<path d="M467.807 290.524C386.344 242.552 345.614 218.567 295 218.567C244.386 218.567 203.656 242.552 122.193 290.524C40.7302 338.497 0 362.481 0 392.289C0 422.094 40.7302 446.081 122.193 494.053C203.656 542.026 244.386 566.011 295 566.011C345.614 566.011 386.344 542.024 467.807 494.053C549.27 446.081 590 422.097 590 392.289C590 362.483 549.27 338.497 467.807 290.524Z" fill="#E5E7EB" fill-opacity="0.6"/>
<path d="M512.302 391.901L414.555 445.521C405.789 450.324 391.437 450.324 382.634 445.521L340.107 422.207C331.343 417.394 324.148 421.334 324.148 430.95V454.905" stroke="#1793EF" stroke-width="2.80909" stroke-linecap="round" stroke-linejoin="round"/>
<path d="M456.145 432.043C456.044 432.043 455.941 432.017 455.85 431.963C455.668 431.858 455.555 431.664 455.555 431.452L455.551 422.657L439.884 422.65C439.615 422.65 439.381 422.471 439.313 422.211C439.244 421.953 439.357 421.681 439.587 421.548L445.394 418.198C445.483 418.147 445.584 418.119 445.689 418.119L461.943 418.127C462.268 418.127 462.533 418.392 462.533 418.718L462.541 428.102C462.541 428.314 462.428 428.508 462.246 428.613L456.44 431.963C456.35 432.017 456.246 432.043 456.145 432.043Z" fill="#1E293B"/>
<path d="M445.692 418.709L461.946 418.718L461.954 428.102L456.148 431.453L456.144 422.067L439.886 422.06L445.692 418.709ZM445.692 417.529C445.485 417.529 445.28 417.583 445.101 417.686L439.295 421.038C438.832 421.305 438.607 421.851 438.746 422.366C438.883 422.882 439.352 423.242 439.885 423.242L454.964 423.247L454.967 431.454C454.967 431.875 455.192 432.266 455.557 432.476C455.739 432.581 455.942 432.634 456.147 432.634C456.351 432.634 456.555 432.581 456.737 432.476L462.544 429.125C462.91 428.913 463.134 428.523 463.134 428.101L463.125 418.717C463.125 418.065 462.596 417.537 461.945 417.537L445.692 417.529Z" fill="#E5E7EB"/>
<path d="M432.581 425.987C432.681 425.987 432.785 426.013 432.876 426.066C433.058 426.171 433.171 426.366 433.171 426.577L433.174 435.372L448.842 435.38C449.111 435.38 449.344 435.56 449.413 435.818C449.481 436.076 449.369 436.347 449.137 436.481L443.332 439.831C443.242 439.884 443.14 439.91 443.037 439.91L426.783 439.902C426.456 439.902 426.193 439.637 426.193 439.312L426.184 429.927C426.184 429.716 426.298 429.52 426.48 429.416L432.286 426.066C432.376 426.013 432.478 425.987 432.581 425.987Z" fill="#1E293B"/>
<path d="M443.035 439.32L426.782 439.312L426.774 429.927L432.579 426.576L432.582 435.963L448.841 435.969L443.035 439.32ZM443.035 440.501C443.243 440.501 443.446 440.446 443.625 440.342L449.431 436.991C449.894 436.725 450.119 436.18 449.982 435.663C449.844 435.148 449.376 434.789 448.842 434.789L433.763 434.782L433.761 426.576C433.761 426.154 433.535 425.764 433.171 425.554C432.987 425.448 432.784 425.396 432.581 425.396C432.376 425.396 432.173 425.448 431.989 425.554L426.184 428.904C425.818 429.117 425.594 429.507 425.594 429.928L425.602 439.313C425.602 439.965 426.131 440.492 426.783 440.492L443.037 440.501H443.035Z" fill="#E5E7EB"/>
<path d="M417.942 280.007L190.875 411.103" stroke="#1793EF" stroke-width="2.81" stroke-miterlimit="10"/>
<path d="M365.68 319.288C365.58 319.288 365.476 319.261 365.386 319.208C365.203 319.103 365.091 318.909 365.091 318.696L365.087 309.901L349.419 309.895C349.15 309.895 348.917 309.715 348.848 309.456C348.779 309.197 348.892 308.926 349.122 308.792L354.929 305.442C355.019 305.391 355.12 305.364 355.224 305.364L371.478 305.371C371.803 305.371 372.068 305.636 372.068 305.963L372.076 315.346C372.076 315.559 371.963 315.753 371.781 315.858L365.975 319.208C365.885 319.261 365.781 319.288 365.68 319.288Z" fill="#1E293B"/>
<path d="M355.225 305.954L371.479 305.963L371.487 315.346L365.681 318.698L365.677 309.311L349.42 309.305L355.225 305.954ZM355.225 304.774C355.018 304.774 354.814 304.827 354.634 304.931L348.828 308.282C348.365 308.55 348.14 309.095 348.279 309.61C348.417 310.127 348.885 310.486 349.418 310.486L364.497 310.491L364.5 318.699C364.5 319.12 364.726 319.51 365.09 319.72C365.272 319.825 365.475 319.879 365.68 319.879C365.885 319.879 366.088 319.825 366.27 319.72L372.077 316.369C372.443 316.158 372.667 315.767 372.667 315.345L372.658 305.961C372.658 305.31 372.129 304.781 371.478 304.781L355.225 304.774Z" fill="#E5E7EB"/>
<path d="M455.966 277.384L228.898 408.481" stroke="#1793EF" stroke-width="2.81" stroke-miterlimit="10"/>
<path d="M403.702 316.665C403.601 316.665 403.497 316.639 403.407 316.585C403.225 316.48 403.112 316.286 403.112 316.074L403.108 307.279L387.44 307.273C387.172 307.273 386.938 307.093 386.87 306.833C386.8 306.575 386.913 306.304 387.144 306.17L392.951 302.82C393.04 302.769 393.141 302.741 393.246 302.741L409.5 302.749C409.825 302.749 410.09 303.014 410.09 303.341L410.098 312.724C410.098 312.937 409.985 313.131 409.803 313.235L403.997 316.585C403.907 316.639 403.803 316.665 403.702 316.665Z" fill="#1E293B"/>
<path d="M393.247 303.331L409.501 303.341L409.508 312.724L403.703 316.075L403.699 306.689L387.441 306.683L393.247 303.331ZM393.247 302.151C393.04 302.151 392.835 302.205 392.655 302.309L386.85 305.66C386.387 305.927 386.161 306.473 386.3 306.988C386.438 307.505 386.906 307.864 387.44 307.864L402.519 307.869L402.522 316.077C402.522 316.498 402.747 316.888 403.112 317.098C403.294 317.203 403.497 317.257 403.702 317.257C403.906 317.257 404.109 317.203 404.292 317.098L410.098 313.747C410.464 313.536 410.688 313.145 410.688 312.723L410.679 303.339C410.679 302.688 410.151 302.159 409.499 302.159L393.247 302.151Z" fill="#E5E7EB"/>
<path d="M261.623 344.247L164.034 290.743C155.268 285.941 148.074 274.133 148.074 264.516V52.1791" stroke="#1793EF" stroke-width="2.80909" stroke-linecap="round" stroke-linejoin="round"/>
<path d="M227.639 362.909L130.015 309.394C121.249 304.591 114.055 292.783 114.055 283.166V182.489C114.055 172.872 106.873 168.932 98.0953 173.746L65.6602 191.475" stroke="#1793EF" stroke-width="2.80909" stroke-linecap="round" stroke-linejoin="round"/>
<path d="M278.711 334.957L181.05 281.417C172.271 276.615 165.09 264.807 165.09 255.19V154.512C165.09 144.895 172.259 133.088 181.05 128.285L213.521 110.474" stroke="#1793EF" stroke-width="2.80909" stroke-linecap="round" stroke-linejoin="round"/>
<path d="M244.064 78.9544L237.115 75.1311C235.078 73.8838 232.205 73.9654 229.037 75.7139L212.807 84.6079C206.669 87.965 201.672 96.2062 201.672 102.92V120.708C201.672 124.077 202.9 126.455 204.986 127.551L211.948 131.362L215.717 125.208L229.049 117.9C235.188 114.542 240.184 106.243 240.184 99.5866V85.3306L244.064 78.9544Z" fill="#0284C7" stroke="#0F172A" stroke-width="0.168545" stroke-linecap="round" stroke-linejoin="round"/>
<path d="M208.621 106.72C208.621 100.006 213.629 91.7648 219.756 88.4077L235.998 79.5487C239.166 77.8119 242.038 77.7186 244.076 78.9659L237.115 75.1542C235.078 73.907 232.205 73.9885 229.037 75.737L212.807 84.6309C206.669 87.988 201.672 96.2293 201.672 102.943" fill="#1793EF"/>
<path d="M208.621 106.72C208.621 100.006 213.629 91.7648 219.756 88.4077L235.998 79.5487C239.166 77.8119 242.038 77.7186 244.076 78.9659L237.115 75.1542C235.078 73.907 232.205 73.9885 229.037 75.737L212.807 84.6309C206.669 87.988 201.672 96.2293 201.672 102.943" stroke="#0F172A" stroke-width="0.168545" stroke-linecap="round" stroke-linejoin="round"/>
<path d="M208.623 124.543C208.623 131.257 213.633 133.997 219.758 130.64L236 121.746C242.139 118.389 247.136 110.147 247.136 103.433V85.6572C247.136 78.943 242.127 76.2037 236 79.5608L219.771 88.4547C213.633 91.8118 208.636 100.053 208.636 106.767L208.623 124.543Z" fill="#F9FAFB" stroke="#0F172A" stroke-width="0.168545" stroke-linejoin="round"/>
<path d="M238.088 98.5608C237.824 98.2207 237.486 97.9399 237.095 97.7383C236.704 97.5368 236.273 97.4198 235.828 97.3951C235.046 97.3326 234.258 97.4651 233.545 97.7798V94.481C234.364 93.6763 234.844 92.6148 234.895 91.4969C234.895 90.1448 233.901 89.5852 232.661 90.2613C232.005 90.6678 231.459 91.215 231.067 91.8589C230.673 92.5028 230.446 93.2254 230.402 93.9681C230.402 94.9589 230.893 95.5534 231.716 95.4835V98.7357C230.992 99.2529 230.33 99.8431 229.74 100.496L221.759 98.2345C221.826 97.9785 221.863 97.7167 221.87 97.4535C221.87 95.9497 220.753 95.3319 219.415 96.0896C218.698 96.5421 218.101 97.1478 217.675 97.8583C217.249 98.5689 217.004 99.3644 216.959 100.181C216.959 101.696 218.076 102.303 219.415 101.557C219.891 101.26 220.306 100.885 220.642 100.449L221.158 100.601L228.316 102.326C227.932 102.923 227.595 103.546 227.309 104.191C226.742 105.376 226.429 106.655 226.388 107.956V108.213C226.378 108.945 226.512 109.671 226.781 110.357C226.968 110.846 227.285 111.278 227.701 111.617L225.332 115.521C224.896 115.639 224.49 115.841 224.141 116.116C223.792 116.392 223.508 116.733 223.306 117.118C222.963 117.666 222.769 118.288 222.742 118.925C222.719 119.149 222.758 119.376 222.858 119.58C222.957 119.785 223.112 119.962 223.306 120.09C223.524 120.19 223.766 120.231 224.006 120.208C224.247 120.186 224.477 120.101 224.67 119.962C225.241 119.628 225.711 119.158 226.032 118.598C226.375 118.054 226.571 117.437 226.597 116.803C226.597 116.607 226.568 116.41 226.51 116.22L228.966 112.175C229.32 112.249 229.685 112.268 230.046 112.234C230.951 112.148 231.824 111.868 232.599 111.417L232.772 111.324C233.888 110.7 234.874 109.886 235.682 108.924C236.635 107.843 237.406 106.628 237.964 105.322C238.525 104.116 238.83 102.816 238.861 101.498V101.44C238.916 100.423 238.642 99.4141 238.076 98.5491L238.088 98.5608ZM235.08 105.858C234.576 106.896 233.782 107.783 232.784 108.423L232.649 108.504C232.207 108.753 231.702 108.883 231.188 108.876C230.952 108.871 230.72 108.816 230.509 108.718C230.297 108.62 230.109 108.479 229.96 108.306C229.593 107.908 229.403 107.39 229.433 106.86V106.72C229.43 106.063 229.555 105.411 229.801 104.797C230.098 104.054 230.512 103.359 231.029 102.734C231.465 102.149 232.026 101.657 232.674 101.288H232.734C233.197 101.014 233.725 100.858 234.27 100.834C234.503 100.837 234.734 100.888 234.946 100.982C235.157 101.077 235.345 101.213 235.497 101.382C235.822 101.786 236.009 102.273 236.037 102.78C236.037 102.909 236.037 103.037 236.037 103.154C235.999 104.137 235.7 105.096 235.165 105.939L235.08 105.858Z" fill="#F8761F"/>
<path d="M233.95 74.3152C235.066 74.2981 236.162 74.5899 237.106 75.1544L244.053 78.9894C245.944 80.1551 247.123 82.4281 247.123 85.6571V103.433C247.123 110.147 242.114 118.389 235.989 121.746L219.758 130.64C218.279 131.514 216.588 132.007 214.847 132.074C213.836 132.082 212.838 131.845 211.951 131.386L205.002 127.562C202.963 126.466 201.687 124.066 201.687 120.72V102.944C201.687 96.2296 206.696 87.9884 212.821 84.6313L229.051 75.7372C230.53 74.8653 232.223 74.3751 233.963 74.3152H233.95ZM233.963 73.9072C232.144 73.965 230.374 74.4755 228.831 75.3875L212.601 84.2816C206.339 87.7086 201.244 96.0897 201.244 102.932V120.708C201.244 124.135 202.473 126.688 204.768 127.912L211.729 131.736H211.816C212.743 132.208 213.782 132.449 214.835 132.435C216.659 132.378 218.434 131.864 219.979 130.942L236.209 122.049C242.471 118.622 247.564 110.252 247.564 103.398V85.6571C247.564 82.4281 246.399 79.9337 244.3 78.6631L237.339 74.8281C236.329 74.2235 235.156 73.9116 233.963 73.9305V73.9072Z" fill="#0F172A"/>
<path d="M34.5742 169.328L41.5352 165.517C43.573 164.268 46.4458 164.351 49.6133 166.099L65.8432 174.993C71.9815 178.35 76.9782 186.591 76.9782 193.306V211.082C76.9782 214.462 75.7505 216.828 73.6758 217.924L66.7148 221.736L62.8967 215.617L49.5642 208.307C43.4258 204.951 38.4291 196.651 38.4291 189.995V175.704L34.5742 169.328Z" fill="#0284C7" stroke="#0F172A" stroke-width="0.168545" stroke-linecap="round" stroke-linejoin="round"/>
<path d="M70.0172 197.129C70.0172 190.426 65.0084 182.186 58.8822 178.828L42.6524 169.923C39.485 168.186 36.6122 168.105 34.5742 169.34L41.5352 165.528C43.573 164.281 46.4458 164.363 49.6133 166.112L65.8432 175.005C71.9815 178.363 76.9782 186.603 76.9782 193.317" fill="#1793EF"/>
<path d="M70.0172 197.129C70.0172 190.426 65.0084 182.186 58.8822 178.828L42.6524 169.923C39.485 168.186 36.6122 168.105 34.5742 169.34L41.5352 165.528C43.573 164.281 46.4458 164.363 49.6133 166.112L65.8432 175.005C71.9815 178.363 76.9782 186.603 76.9782 193.317" stroke="#0F172A" stroke-width="0.168545" stroke-linecap="round" stroke-linejoin="round"/>
<path d="M70.0195 214.916C70.0195 221.631 65.0106 224.381 58.8845 221.025L42.6545 212.119C36.5162 208.774 31.5195 200.532 31.5195 193.818V176.042C31.5195 169.328 36.5285 166.577 42.6545 169.934L58.8845 178.828C65.0229 182.185 70.0195 190.426 70.0195 197.14V214.916Z" fill="#F9FAFB" stroke="#0F172A" stroke-width="0.168545" stroke-linejoin="round"/>
<path d="M60.6386 209.368C60.6386 211.024 59.411 211.7 57.9377 210.884L57.6062 210.674C56.8944 210.152 56.3122 209.487 55.9006 208.728C55.4891 207.969 55.2583 207.133 55.2246 206.279V188.55C55.2246 186.987 56.2191 186.219 57.6062 186.767C58.428 187.198 59.1301 187.809 59.6551 188.549C60.1801 189.288 60.513 190.135 60.6264 191.022C60.6264 191.149 60.6264 191.277 60.6264 191.394L60.6386 209.368Z" fill="#F9AB00"/>
<path d="M43.5993 197.095C44.3895 197.581 45.0473 198.238 45.5188 199.011C45.9904 199.785 46.2623 200.654 46.3124 201.547C46.3124 203.179 45.0848 203.878 43.5993 203.027C42.8106 202.541 42.1547 201.883 41.6852 201.109C41.2157 200.336 40.9462 199.466 40.8984 198.575C40.8984 196.931 42.1015 196.266 43.5993 197.095ZM50.7198 192.001C49.222 191.265 48.0558 192.001 48.0925 193.679V201.652C48.0478 202.572 48.2158 203.49 48.5848 204.342C48.9539 205.195 49.5151 205.959 50.2287 206.583C51.7019 207.749 53.1383 207.456 53.4329 206.011C53.4522 205.821 53.4522 205.63 53.4329 205.44V196.477C53.3809 195.58 53.1083 194.71 52.6371 193.932C52.1659 193.155 51.5091 192.493 50.7198 192.001Z" fill="#E37400"/>
<path d="M44.692 164.701C46.4313 164.76 48.1241 165.25 49.6026 166.122L65.8326 175.017C71.971 178.373 76.9676 186.615 76.9676 193.329V211.105C76.9676 214.486 75.7399 216.852 73.6652 217.948L66.7043 221.771C65.8193 222.24 64.8205 222.482 63.807 222.471C62.0669 222.404 60.3747 221.91 58.8962 221.037L42.6663 212.144C36.528 208.786 31.5313 200.486 31.5313 193.83V176.042C31.5313 172.814 32.7589 170.529 34.6005 169.375L41.5492 165.54C42.4937 164.978 43.5894 164.685 44.7042 164.701H44.692ZM44.7042 164.293C43.5072 164.275 42.3304 164.587 41.3159 165.19L34.3918 169.013C32.2679 170.319 31.1016 172.802 31.1016 176.008V193.784C31.1016 200.649 36.1964 209.019 42.4576 212.435L58.6875 221.328C60.233 222.25 62.008 222.764 63.8315 222.82C64.8836 222.829 65.9215 222.588 66.8516 222.121H66.9498L73.9475 218.31C76.2187 217.144 77.471 214.521 77.471 211.105V193.329C77.471 186.475 72.3761 178.094 66.1149 174.679L49.8851 165.785C48.3407 164.873 46.5711 164.363 44.7534 164.304L44.7042 164.293Z" fill="#0F172A"/>
<path d="M128.42 6.01898L135.331 2.19565C137.37 0.960058 140.243 1.02994 143.411 2.79011L159.639 11.684C165.778 15.0411 170.775 23.3407 170.775 29.9966V47.7729C170.775 51.1417 169.548 53.5196 167.46 54.6153L160.5 58.4386L156.73 52.284L143.459 44.9404C137.32 41.5833 132.324 33.2838 132.324 26.6278V12.3835L128.42 6.01898Z" fill="#0284C7" stroke="#0F172A" stroke-width="0.168545" stroke-linecap="round" stroke-linejoin="round"/>
<path d="M163.864 33.8202C163.864 27.106 158.855 18.8648 152.729 15.5077L136.56 6.61374C133.38 4.87691 130.52 4.78356 128.482 6.03082L135.333 2.20749C137.37 0.971899 140.244 1.04178 143.41 2.80195L159.641 11.696C165.779 15.0531 170.776 23.3526 170.776 30.0086" fill="#1793EF"/>
<path d="M163.864 33.8202C163.864 27.106 158.855 18.8648 152.729 15.5077L136.56 6.61374C133.38 4.87691 130.52 4.78356 128.482 6.03082L135.333 2.20749C137.37 0.971899 140.244 1.04178 143.41 2.80195L159.641 11.696C165.779 15.0531 170.776 23.3526 170.776 30.0086" stroke="#0F172A" stroke-width="0.168545" stroke-linecap="round" stroke-linejoin="round"/>
<path d="M163.863 51.6078C163.863 58.322 158.841 61.0613 152.728 57.7042L136.559 48.8102C130.42 45.4531 125.424 37.2119 125.424 30.4977V12.7214C125.424 6.00723 130.433 3.26793 136.559 6.62503L152.789 15.519C158.927 18.8761 163.923 27.1173 163.923 33.8315L163.863 51.6078Z" fill="#F9FAFB" stroke="#0F172A" stroke-width="0.168545" stroke-linejoin="round"/>
<path d="M142.695 39.5671C140.455 38.3777 138.295 37.058 136.226 35.6155C135.621 35.1563 135.116 34.5901 134.74 33.9487C134.403 33.3612 134.163 32.7283 134.028 32.072C133.854 31.3049 133.75 30.5248 133.721 29.7406C133.58 27.3762 133.58 25.0062 133.721 22.6417C133.856 21.3946 133.93 19.8792 134.825 19.4595C135.056 19.3635 135.305 19.314 135.556 19.314C135.807 19.314 136.057 19.3635 136.287 19.4595C137.146 19.751 140.817 21.6277 144.61 23.7025C148.403 25.7774 152.087 27.9455 152.946 28.5983C153.669 29.1529 154.252 29.8539 154.653 30.6498C155.277 32.2578 155.589 33.9601 155.574 35.6739C155.574 36.3382 155.574 40.045 155.574 40.6745C155.613 41.8605 155.435 43.0438 155.045 44.1715C154.946 44.4743 154.731 44.7316 154.444 44.8943C154.204 45.002 153.943 45.058 153.677 45.058C153.412 45.058 153.149 45.002 152.91 44.8943C149.288 43.204 146.206 41.5837 142.72 39.6021L142.695 39.5671ZM148.245 33.9254C146.231 31.5941 144.292 29.4841 142.326 27.2694V34.0536C144.402 33.9487 146.587 34.0536 148.256 33.9254H148.245Z" fill="#CD201F"/>
<path d="M138.524 1.36851C140.264 1.43302 141.957 1.92718 143.434 2.80221L159.665 11.6963C165.803 15.0534 170.8 23.3528 170.8 30.0088V47.7851C170.8 51.1538 169.573 53.5317 167.497 54.6274L160.548 58.4509C159.667 58.915 158.672 59.1522 157.664 59.1386C155.924 59.0771 154.233 58.587 152.752 57.7165L136.56 48.7991C130.422 45.442 125.425 37.2126 125.425 30.4984V12.7221C125.425 9.48154 126.653 7.1968 128.494 6.04276L135.332 2.20775C136.272 1.64476 137.364 1.35317 138.476 1.36851H138.524ZM138.476 0.960494C137.28 0.945154 136.108 1.26113 135.1 1.86975L128.163 5.69308C126.039 6.98702 124.885 9.48154 124.885 12.6871V30.4984C124.885 37.3524 129.967 45.7218 136.228 49.1489L152.52 58.0545C154.073 58.966 155.851 59.4763 157.676 59.5349C158.728 59.5485 159.768 59.308 160.696 58.8356H160.782L167.742 55.0121C170.001 53.8465 171.254 51.2354 171.254 47.82V30.0088C171.254 23.1431 166.172 14.7736 159.91 11.3583L143.681 2.45254C142.132 1.54014 140.359 1.02959 138.536 0.972163L138.476 0.960494Z" fill="#0F172A"/>
<path d="M244.595 353.56L147.031 300.068C138.253 295.265 131.072 283.457 131.072 273.84V146.528C131.072 136.911 123.89 125.115 115.112 120.3L46.5586 82.7076" stroke="#1793EF" stroke-width="2.80909" stroke-linecap="round" stroke-linejoin="round"/>
<path d="M21.8418 55.9798L28.8026 52.168C30.8406 50.9207 33.7134 51.0024 36.8808 52.7509L53.0739 61.6565C59.2123 65.0136 64.2089 73.313 64.2089 79.969V97.7453C64.2089 101.126 62.9812 103.492 60.9064 104.588L53.9455 108.399L50.1765 102.245L36.8808 94.9477C30.7424 91.5906 25.7458 83.361 25.7458 76.6468V62.3558L21.8418 55.9798Z" fill="#0284C7" stroke="#0F172A" stroke-width="0.168545" stroke-linecap="round" stroke-linejoin="round"/>
<path d="M57.2848 83.7806C57.2848 77.0664 52.2758 68.8368 46.1498 65.4799L29.9198 56.5975C26.7524 54.8606 23.8797 54.7674 21.8418 56.0147L28.8026 52.2029C30.8406 50.9556 33.7134 51.0373 36.8808 52.7858L53.0739 61.6564C59.2123 65.0135 64.2089 73.313 64.2089 79.9689" fill="#1793EF"/>
<path d="M57.2848 83.7806C57.2848 77.0664 52.2758 68.8368 46.1498 65.4799L29.9198 56.5975C26.7524 54.8606 23.8797 54.7674 21.8418 56.0147L28.8026 52.2029C30.8406 50.9556 33.7134 51.0373 36.8808 52.7858L53.0739 61.6564C59.2123 65.0135 64.2089 73.313 64.2089 79.9689" stroke="#0F172A" stroke-width="0.168545" stroke-linecap="round" stroke-linejoin="round"/>
<path d="M57.2851 101.568C57.2851 108.283 52.2762 111.033 46.1501 107.677L29.9202 98.7706C23.7818 95.4135 18.7852 87.114 18.7852 80.4697V62.6934C18.7852 55.9792 23.794 53.2282 29.9202 56.5853L46.1501 65.4794C52.2885 68.8365 57.2851 77.0777 57.2851 83.7918V101.568Z" fill="#F9FAFB" stroke="#0F172A" stroke-width="0.168545" stroke-linejoin="round"/>
<path d="M35.6802 74.6415C36.2415 74.3683 36.8717 74.2487 37.5004 74.2961C38.1292 74.3434 38.7316 74.5559 39.2405 74.9097C41.2427 76.1484 42.7642 77.9737 43.5742 80.1085C44.4439 80.1832 45.2838 80.4465 46.0296 80.8778C47.7943 81.9824 49.2613 83.4649 50.3124 85.2061C51.3637 86.9472 51.9698 88.8983 52.082 90.9025C52.082 94.5976 49.3688 96.1129 46.0296 94.2829C45.5991 94.0495 45.1886 93.7845 44.8018 93.4902C44.0407 94.5627 42.5921 94.7725 40.9347 93.8632C40.2057 93.4473 39.551 92.9239 38.9949 92.313C38.2215 93.8749 36.4291 94.2829 34.342 93.1405C32.0211 91.6807 30.3474 89.4609 29.64 86.9042C29.3055 86.7892 28.9812 86.6488 28.6702 86.4847C27.3044 85.6336 26.1683 84.4898 25.3537 83.1454C24.539 81.8009 24.0687 80.2935 23.9805 78.7447C23.9805 76.8213 24.9258 75.6557 26.3253 75.5274C26.0449 74.6781 25.8961 73.7947 25.8834 72.9047C25.8834 69.6058 28.3387 68.242 31.3342 69.9206C33.2401 71.0597 34.7512 72.7054 35.6802 74.6532" fill="#0F9BD7"/>
<path d="M28.0548 79.2923C28.0483 79.303 28.0449 79.315 28.0449 79.3272C28.0449 79.3395 28.0483 79.3516 28.0548 79.3622L28.2143 79.5605C28.4443 79.8346 28.7277 80.0642 29.0491 80.2365C29.6261 80.5513 29.9944 80.4114 29.9944 79.8751C29.9581 79.6278 29.8697 79.3901 29.7348 79.1759C29.5999 78.9615 29.4209 78.7752 29.2088 78.6279C28.9141 78.3714 28.6686 78.15 28.6686 77.9402C28.6686 77.7653 28.8159 77.7186 29.0369 77.8352C29.3149 77.9987 29.5634 78.2033 29.7735 78.4414C29.7735 78.4414 29.7735 78.5113 29.8472 78.4414L29.9699 78.1616C29.9699 78.1616 29.9699 78.1033 29.9699 78.0799C29.7444 77.7999 29.4654 77.5627 29.1473 77.3806C28.6194 77.0891 28.2512 77.2407 28.2512 77.7419C28.2826 77.9905 28.3688 78.2302 28.5042 78.4451C28.6395 78.66 28.8211 78.8454 29.0369 78.9892C29.307 79.234 29.5524 79.4438 29.5524 79.6537C29.5524 79.8518 29.3929 79.9101 29.1473 79.7819C28.8566 79.6158 28.6024 79.3981 28.3985 79.1408L28.3003 79.0125C28.3003 79.0125 28.3003 79.0125 28.2266 79.0125L28.0548 79.2923Z" fill="white"/>
<path d="M36.4895 83.9088C36.4801 83.9353 36.4801 83.964 36.4895 83.9904L36.6491 84.1886C36.8927 84.4544 37.1785 84.6825 37.4962 84.8646C38.0732 85.1794 38.4292 85.0395 38.4292 84.4916C38.3913 84.2464 38.3022 84.0109 38.1673 83.7988C38.0324 83.5867 37.8544 83.4021 37.6435 83.256C37.3611 82.9995 37.1156 82.7781 37.1156 82.5683C37.1156 82.3934 37.2629 82.3469 37.4838 82.4634C37.7584 82.6268 38.003 82.8315 38.2082 83.0696C38.2082 83.0696 38.2082 83.1394 38.2941 83.0696C38.3256 82.9745 38.3624 82.881 38.4046 82.7898C38.4046 82.7898 38.4046 82.7316 38.4046 82.6965C38.1757 82.4227 37.8972 82.1897 37.5821 82.0087C37.0542 81.7174 36.6859 81.869 36.6859 82.3701C36.7172 82.6188 36.8035 82.8583 36.9388 83.0732C37.0743 83.2881 37.2557 83.4735 37.4717 83.6173H37.533C37.8154 83.8621 38.0487 84.072 38.0487 84.2818C38.0487 84.4799 37.889 84.5383 37.6435 84.3984C37.3512 84.2389 37.0996 84.02 36.9068 83.7572C36.8668 83.7245 36.8335 83.685 36.8086 83.6407C36.8086 83.6407 36.8086 83.6407 36.7349 83.6407L36.4895 83.9088Z" fill="white"/>
<path d="M42.7389 85.7386C42.6912 85.54 42.617 85.3481 42.518 85.1674C42.4212 84.9809 42.2972 84.8083 42.1497 84.6546C42.0006 84.4978 41.8266 84.3641 41.634 84.2583C41.4792 84.1639 41.3019 84.1077 41.1185 84.095C41.0527 84.0874 40.9861 84.0928 40.9227 84.1109C40.8593 84.1288 40.8005 84.1593 40.7501 84.1999C40.6412 84.288 40.564 84.4061 40.5291 84.5379C40.4766 84.7082 40.4517 84.8851 40.4555 85.0625C40.4557 85.2665 40.4805 85.4699 40.5291 85.6686C40.5769 85.8673 40.6511 86.0592 40.7501 86.2399C40.847 86.4263 40.9709 86.599 41.1185 86.7528C41.2676 86.9095 41.4415 87.0432 41.634 87.149C41.7911 87.241 41.9668 87.3007 42.1497 87.3239C42.2812 87.3281 42.4106 87.2913 42.518 87.219C42.6246 87.1291 42.7013 87.0116 42.7389 86.881C42.7915 86.7068 42.8164 86.526 42.8126 86.3448C42.8117 86.1408 42.787 85.9374 42.7389 85.7386ZM42.2602 86.0416C42.2808 86.2661 42.2249 86.4909 42.1005 86.6828C42.0023 86.7877 41.8427 86.7877 41.634 86.6828C41.4214 86.5729 41.2563 86.3955 41.1675 86.1815C41.0604 85.9257 41.0063 85.6526 41.008 85.3773C40.9891 85.1566 41.0449 84.9361 41.1675 84.7478C41.2657 84.6313 41.4131 84.6429 41.634 84.7478C41.8435 84.8614 42.0076 85.0376 42.1005 85.2491C42.2088 85.5005 42.2631 85.77 42.2602 86.0416Z" fill="white"/>
<path fill-rule="evenodd" clip-rule="evenodd" d="M46.6931 89.3288C46.7006 89.306 46.7006 89.2816 46.6931 89.2588C46.6156 89.2686 46.5372 89.2686 46.4599 89.2588L46.202 89.1306C45.9719 89.0057 45.7811 88.8245 45.6496 88.6061C45.5047 88.3481 45.4329 88.059 45.4409 87.7667C45.4225 87.5538 45.4882 87.3419 45.6251 87.1723C45.7478 87.0674 45.9197 87.0791 46.1651 87.1723C46.3452 87.2766 46.5138 87.3977 46.6685 87.5336C46.6685 87.5336 46.7422 87.3472 46.779 87.2306C46.7856 87.22 46.7888 87.2079 46.7888 87.1956C46.7888 87.1833 46.7856 87.1712 46.779 87.1606C46.6807 87.0631 46.5738 86.9734 46.4599 86.8925C46.3436 86.8094 46.2203 86.7353 46.0916 86.671C45.9332 86.5709 45.7524 86.507 45.5636 86.4846C45.4252 86.4706 45.286 86.5036 45.1708 86.5778C45.0579 86.6647 44.9765 86.7829 44.9376 86.9158C44.8839 87.0859 44.859 87.263 44.8639 87.4404C44.8571 87.8677 44.9671 88.2893 45.1831 88.6643C45.4029 89.0451 45.7303 89.36 46.1284 89.5736C46.3389 89.6962 46.5723 89.7793 46.8159 89.8184C46.8159 89.8184 46.8159 89.8184 46.8159 89.76L46.6931 89.3288Z" fill="white"/>
<path fill-rule="evenodd" clip-rule="evenodd" d="M49.1486 89.1309C49.1098 88.9426 49.0393 88.7615 48.9399 88.5946C48.8581 88.4386 48.7549 88.2936 48.633 88.1634C48.4912 88.0277 48.3348 87.9065 48.1665 87.802C48.0034 87.7042 47.8182 87.6443 47.6263 87.6271C47.494 87.6169 47.3625 87.6544 47.258 87.732C47.1515 87.8268 47.075 87.948 47.037 88.0817C46.9844 88.252 46.9595 88.4289 46.9633 88.6063C46.9629 88.8104 46.9875 89.0138 47.037 89.2124C47.0813 89.4173 47.1599 89.6141 47.2702 89.7953C47.383 89.9848 47.5189 90.1609 47.6753 90.3198C47.855 90.4881 48.0573 90.6333 48.2769 90.7511C48.513 90.9149 48.795 91.0082 49.0871 91.0193C49.0871 91.0193 49.0871 91.0193 49.0871 90.9492L48.9767 90.5647C48.9749 90.5486 48.9681 90.5332 48.9572 90.5208C48.9463 90.5083 48.9316 90.4993 48.9153 90.4947C48.6735 90.4706 48.4417 90.3906 48.24 90.2616C48.0162 90.134 47.827 89.9583 47.6877 89.7487C47.5596 89.5361 47.4958 89.2941 47.5034 89.0493L49.124 89.9469C49.1742 89.6848 49.1742 89.4163 49.124 89.1542L49.1486 89.1309ZM47.5034 88.6296C47.5194 88.5047 47.5657 88.3851 47.6385 88.2799C47.7367 88.1751 47.8841 88.1634 48.105 88.2799C48.312 88.3985 48.4718 88.5789 48.5593 88.7928C48.6231 88.9453 48.6605 89.1069 48.6698 89.2708L47.5034 88.6296Z" fill="white"/>
<path fill-rule="evenodd" clip-rule="evenodd" d="M36.11 81.9734C36.0581 81.7889 35.9882 81.6094 35.9013 81.4372C35.8129 81.2859 35.7057 81.1449 35.5822 81.0176C35.4524 80.87 35.294 80.7473 35.1157 80.6563C34.9573 80.5561 34.7765 80.4922 34.5877 80.4697C34.45 80.4621 34.3142 80.5037 34.2072 80.5863C34.0982 80.6744 34.021 80.7926 33.9861 80.9244C33.9336 81.0986 33.9088 81.2793 33.9125 81.4605C33.9127 81.6646 33.9375 81.868 33.9861 82.0666C34.0391 82.2709 34.1217 82.467 34.2317 82.6495C34.336 82.844 34.4728 83.0211 34.6369 83.174C34.8127 83.3414 35.0108 83.4864 35.2261 83.6054C35.4697 83.7637 35.7541 83.8563 36.0487 83.8735C36.0487 83.8735 36.0487 83.8735 36.0487 83.7919L35.9381 83.4072C35.9435 83.3983 35.9464 83.3882 35.9464 83.378C35.9464 83.3678 35.9435 83.3578 35.9381 83.3489C35.7003 83.3169 35.4733 83.2331 35.2752 83.1041C35.0407 82.9902 34.8479 82.8113 34.7227 82.5912C34.5958 82.3778 34.5283 82.137 34.5263 81.8919L36.1592 82.7894C36.2021 82.5267 36.2021 82.2594 36.1592 81.9968L36.11 81.9734ZM34.5387 81.4838C34.547 81.3592 34.5893 81.2387 34.6614 81.1342C34.7719 81.0176 34.9191 81.0176 35.1279 81.1342C35.3374 81.2477 35.5014 81.4239 35.5944 81.6354C35.653 81.7929 35.6861 81.9579 35.6927 82.125L34.5387 81.4838Z" fill="white"/>
<path d="M31.6152 79.794L31.3573 79.6541C31.232 79.5803 31.0954 79.5252 30.9522 79.4908C30.8439 79.462 30.7292 79.462 30.6208 79.4908C30.5704 79.5009 30.5226 79.5205 30.4803 79.5485C30.4381 79.5766 30.4025 79.6125 30.3752 79.6541C30.3155 79.7659 30.286 79.8901 30.2893 80.0154C30.288 80.1697 30.3128 80.3233 30.363 80.47C30.4119 80.6097 30.4868 80.7399 30.5839 80.8547C30.6741 80.9873 30.786 81.1053 30.9154 81.2043C31.0496 81.3096 31.1933 81.4032 31.3451 81.4841C31.5013 81.5721 31.6657 81.6462 31.8362 81.7056L32.2536 81.8455H32.364V80.202C32.3723 79.8779 32.2827 79.5585 32.1062 79.2811C31.9126 79.0089 31.6565 78.7817 31.3573 78.6166C31.2148 78.5447 31.0671 78.4825 30.9154 78.4302C30.7562 78.3676 30.5842 78.3397 30.412 78.3486C30.412 78.3486 30.412 78.3486 30.412 78.4185L30.5349 78.8148C30.7862 78.8308 31.0301 78.9027 31.2469 79.0246C31.4066 79.1073 31.5451 79.2229 31.6519 79.3626C31.7539 79.511 31.8014 79.6873 31.787 79.8639V79.9339L31.5169 79.7473L31.6152 79.794ZM30.8663 80.6566L30.7681 80.4933C30.7542 80.4084 30.7542 80.3218 30.7681 80.2369C30.7681 80.0738 30.7681 79.9921 30.9154 79.9688C31.0627 79.9455 31.0627 79.9105 31.3942 80.097C31.7256 80.2835 31.8362 80.3884 31.8362 80.3884V81.1928C31.6837 81.147 31.5358 81.0884 31.3942 81.0179C31.2087 80.9321 31.0453 80.8088 30.9154 80.6566" fill="white"/>
<path fill-rule="evenodd" clip-rule="evenodd" d="M44.7526 86.0768C44.7591 86.0662 44.7626 86.0541 44.7626 86.0418C44.7626 86.0294 44.7591 86.0175 44.7526 86.0068C44.6687 85.9301 44.5783 85.8599 44.4825 85.797C44.3539 85.715 44.2066 85.6631 44.0528 85.6454C43.9569 85.6365 43.8608 85.6614 43.7828 85.7154V85.5057C43.7893 85.4929 43.7927 85.4789 43.7927 85.4647C43.7927 85.4507 43.7893 85.4367 43.7828 85.424L43.3654 85.1909V87.8486C43.3589 87.8612 43.3555 87.8752 43.3555 87.8894C43.3555 87.9036 43.3589 87.9174 43.3654 87.9302L43.7951 88.1633V86.9043C43.7703 86.7576 43.7703 86.6082 43.7951 86.4615C43.8027 86.4232 43.8186 86.3867 43.8419 86.3546C43.8651 86.3225 43.8951 86.2953 43.9301 86.2749C43.9984 86.2571 44.0705 86.2571 44.1389 86.2749C44.2127 86.2965 44.2829 86.328 44.3475 86.3681L44.5317 86.4848C44.5317 86.4848 44.5317 86.4848 44.593 86.4848C44.6544 86.4848 44.7036 86.2167 44.7157 86.17" fill="white"/>
<path fill-rule="evenodd" clip-rule="evenodd" d="M40.7987 82.6496C40.744 82.6002 40.6866 82.5534 40.6268 82.5097L40.4058 82.3698C40.1112 82.2183 39.8902 82.1717 39.7184 82.2649C39.6205 82.3419 39.5415 82.438 39.4864 82.5467C39.4314 82.6552 39.4016 82.7739 39.3991 82.8944V83.0109L39.0308 82.8012C39.0308 82.8012 39.0308 82.8012 38.9694 82.8012V83.1392C38.9608 83.1533 38.9562 83.1695 38.9562 83.1859C38.9562 83.2021 38.9608 83.2182 38.9694 83.2324L39.3254 83.4306L38.9571 85.4588C38.9389 85.59 38.906 85.7189 38.8589 85.8435C38.8459 85.9193 38.8071 85.9889 38.7484 86.0416C38.726 86.0539 38.7007 86.0603 38.6747 86.0603C38.6489 86.0603 38.6234 86.0539 38.6012 86.0416C38.5323 86.0222 38.4664 85.9948 38.4046 85.96L38.2819 85.8785L38.196 85.7969C38.196 85.7969 38.196 85.7969 38.1345 85.7969L38.0118 86.0883C38.0028 86.1002 37.998 86.1145 37.998 86.129C37.998 86.1437 38.0028 86.158 38.0118 86.1698L38.1592 86.298C38.2361 86.3587 38.3184 86.4133 38.4046 86.4613C38.5267 86.5306 38.6592 86.5818 38.7976 86.6128C38.9053 86.625 39.0143 86.6002 39.1045 86.543C39.1986 86.4686 39.2706 86.3721 39.3132 86.2632C39.373 86.0911 39.4222 85.916 39.4605 85.7386L39.8166 83.6638L40.3567 83.9551V83.6171C40.3632 83.6044 40.3666 83.5905 40.3666 83.5763C40.3666 83.5621 40.3632 83.5482 40.3567 83.5355L39.8411 83.2441C39.8555 83.1248 39.8843 83.0074 39.927 82.8944C39.947 82.8408 39.9861 82.7954 40.0375 82.7662C40.0817 82.7542 40.1285 82.7542 40.1725 82.7662L40.3444 82.836L40.4795 82.9294L40.5655 82.9993C40.5655 82.9993 40.5655 82.9993 40.639 82.9993L40.7619 82.6846C40.7683 82.674 40.7717 82.6619 40.7717 82.6496C40.7717 82.6373 40.7683 82.6252 40.7619 82.6146" fill="white"/>
<path fill-rule="evenodd" clip-rule="evenodd" d="M33.4318 82.5214L33.0022 82.2882C32.9956 82.2755 32.9922 82.2616 32.9922 82.2474C32.9922 82.2332 32.9956 82.2193 33.0022 82.2066V78.395L33.4318 78.6281C33.4382 78.6408 33.4416 78.6547 33.4416 78.6689C33.4416 78.683 33.4382 78.6969 33.4318 78.7096V82.5214Z" fill="white"/>
<path d="M32.0723 51.5265C33.8117 51.5863 35.5044 52.0765 36.9829 52.9485L53.2129 61.8426C59.3512 65.1997 64.3479 73.4992 64.3479 80.155V97.9313C64.3479 101.312 63.1202 103.678 61.0455 104.774L54.0845 108.597C53.2035 109.065 52.2088 109.307 51.1994 109.296C49.4598 109.228 47.7682 108.735 46.2888 107.863L30.0589 98.9688C23.9204 95.6117 18.9238 87.3122 18.9238 80.6562V62.8683C18.9238 59.6277 20.1515 57.3548 22.0053 56.2007L28.9417 52.3657C29.8868 51.8042 30.9821 51.5129 32.0968 51.5265H32.0723ZM32.0968 51.1185C30.9034 51.0996 29.7302 51.4115 28.7207 52.0161L21.7844 55.8394C19.6605 57.1449 18.4941 59.6277 18.4941 62.8334V80.6097C18.4941 87.4638 23.589 95.8448 29.8502 99.2603L46.0801 108.154C47.6291 109.077 49.4086 109.592 51.2363 109.646C52.2865 109.658 53.3221 109.413 54.2441 108.935C54.2757 108.947 54.3107 108.947 54.3423 108.935L61.2909 105.124C63.5621 103.958 64.8144 101.335 64.8144 97.9196V80.155C64.8144 73.2894 59.7195 64.9199 53.4707 61.5045L37.2408 52.6105C35.6946 51.693 33.9194 51.1821 32.0968 51.1302V51.1185Z" fill="#0F172A"/>
<path d="M250.08 394.594L152.333 340.973C143.566 336.171 129.215 336.171 120.412 340.973L77.8855 364.286C69.12 369.101 61.9258 365.161 61.9258 355.544V331.59" stroke="#1793EF" stroke-width="2.80909" stroke-linecap="round" stroke-linejoin="round"/>
<path d="M314.551 469.123C309.168 472.23 302.074 473.785 294.978 473.785C287.882 473.785 280.786 472.231 275.404 469.123L231.552 443.804L187.699 418.485C182.315 415.378 179.625 411.28 179.625 407.184C179.625 403.089 182.317 398.991 187.699 395.884L231.552 370.565L275.404 345.246C280.788 342.139 287.882 340.584 294.978 340.584C302.074 340.584 309.169 342.138 314.551 345.246L358.404 370.565L402.257 395.884C407.64 398.991 410.331 403.089 410.331 407.184C410.331 411.282 407.639 415.378 402.257 418.485L358.404 443.804L314.551 469.123Z" fill="#64748B" stroke="#0F172A" stroke-width="0.5" stroke-miterlimit="10"/>
<path d="M314.552 469.124L402.258 418.486C407.64 415.378 410.331 411.282 410.331 407.184V369.08H355.83L314.551 345.248C303.785 339.032 286.168 339.032 275.402 345.248L234.123 369.08H179.623V407.184C179.623 411.282 182.315 415.378 187.698 418.486L275.405 469.124C286.17 475.34 303.787 475.34 314.552 469.124Z" fill="#1F2937" stroke="#0F172A" stroke-width="0.5" stroke-miterlimit="10"/>
<path d="M294.977 340.585C287.881 340.585 280.786 342.139 275.402 345.246L234.123 369.078H179.623V407.183C179.623 411.28 182.315 415.376 187.698 418.485L275.405 469.123C281.023 472.366 288.508 473.917 295.911 473.776" fill="#0F172A"/>
<path d="M294.977 340.585C287.881 340.585 280.786 342.139 275.402 345.246L234.123 369.078H179.623V407.183C179.623 411.28 182.315 415.376 187.698 418.485L275.405 469.123C281.023 472.366 288.508 473.917 295.911 473.776" stroke="#0F172A" stroke-width="0.36" stroke-miterlimit="10"/>
<path d="M314.552 431.018C303.787 437.234 286.169 437.234 275.404 431.018L187.697 380.38C176.932 374.164 176.932 363.994 187.697 357.778L275.403 307.14C286.168 300.924 303.786 300.924 314.551 307.14L402.258 357.778C413.023 363.994 413.023 374.164 402.258 380.38L314.552 431.018Z" fill="#E5E7EB" stroke="#0F172A" stroke-width="0.5" stroke-miterlimit="10"/>
<path d="M294.978 429.324C288.419 429.324 282.31 427.882 277.774 425.263L195.22 377.6C191.107 375.226 188.842 372.2 188.842 369.08C188.842 365.959 191.107 362.933 195.22 360.557L277.773 312.896C282.308 310.278 288.418 308.835 294.976 308.835C301.534 308.835 307.644 310.278 312.179 312.896L394.733 360.559C398.846 362.933 401.112 365.959 401.112 369.081C401.112 372.203 398.846 375.227 394.733 377.602L312.181 425.265C307.646 427.883 301.536 429.325 294.979 429.325L294.978 429.324Z" fill="#F9FAFB"/>
<path d="M342.566 431.131C340.635 432.245 339.055 431.334 339.055 429.104C339.055 426.873 340.635 424.137 342.566 423.023L374.246 404.733C376.177 403.618 377.757 404.529 377.757 406.76C377.757 408.99 376.177 411.726 374.246 412.841L342.566 431.131Z" fill="#0F172A"/>
<path d="M351.716 423.211C352.397 422.034 352.397 420.76 351.716 420.368C351.036 419.974 349.933 420.611 349.253 421.789C348.572 422.968 348.572 424.242 349.253 424.634C349.933 425.027 351.037 424.39 351.716 423.211Z" fill="#FFC107"/>
<path d="M359.636 418.641C360.317 417.462 360.317 416.189 359.636 415.796C358.956 415.404 357.852 416.04 357.171 417.218C356.492 418.397 356.492 419.67 357.173 420.063C357.853 420.455 358.956 419.82 359.636 418.641Z" fill="#22C55E"/>
<path d="M343.796 427.786C344.477 426.607 344.477 425.334 343.796 424.941C343.116 424.549 342.012 425.185 341.331 426.363C340.652 427.542 340.652 428.815 341.333 429.208C342.013 429.601 343.116 428.965 343.796 427.786Z" fill="#22C55E"/>
<path d="M375.48 409.495C376.16 408.317 376.16 407.043 375.48 406.649C374.799 406.257 373.697 406.895 373.016 408.072C372.336 409.251 372.336 410.524 373.016 410.917C373.697 411.31 374.799 410.673 375.48 409.495Z" fill="#22C55E"/>
<path d="M367.555 414.069C368.234 412.89 368.234 411.616 367.554 411.224C366.874 410.831 365.771 411.468 365.09 412.646C364.41 413.824 364.41 415.098 365.09 415.49C365.771 415.884 366.875 415.246 367.555 414.069Z" fill="#EF4444"/>
<path d="M256.443 391.328C238.277 380.84 229.195 375.596 229.195 369.08C229.195 362.563 238.277 357.319 256.443 346.831C274.608 336.344 283.69 331.099 294.978 331.099C306.264 331.099 315.347 336.344 333.513 346.831C351.678 357.319 360.76 362.563 360.76 369.08C360.76 375.596 351.678 380.84 333.513 391.328C315.347 401.815 306.265 407.06 294.978 407.06C283.692 407.06 274.608 401.815 256.443 391.328Z" fill="#1793EF"/>
<path fill-rule="evenodd" clip-rule="evenodd" d="M284.581 367.083C289.051 364.502 289.048 360.317 284.577 357.736C280.105 355.154 272.857 355.153 268.388 357.733C263.918 360.313 263.921 364.499 268.392 367.08C271.338 368.781 275.49 369.361 279.258 368.823L284.926 374.982C284.403 375.218 283.898 375.475 283.416 375.754C277.031 379.44 277.031 385.417 283.416 389.103C289.801 392.788 300.152 392.788 306.536 389.103C312.921 385.417 312.921 379.44 306.536 375.754C305.601 375.214 304.58 374.754 303.499 374.371L309.846 365.351C312.777 365.58 315.853 365.044 318.104 363.745C321.935 361.533 321.932 357.946 318.1 355.734C314.268 353.521 308.054 353.519 304.223 355.731C300.392 357.943 300.395 361.53 304.227 363.742C304.432 363.86 304.643 363.971 304.86 364.078L298.44 373.203C295.555 372.844 292.535 372.938 289.721 373.489L284.078 367.357C284.248 367.269 284.416 367.178 284.58 367.084L284.581 367.083Z" fill="white"/>
<path d="M456.777 95.9261C456.777 90.0271 453.19 83.1733 448.768 80.6181L329.403 12.3666C327.363 11.1875 325.506 11.1411 324.092 11.9994L324.084 11.9916L316.07 16.6188L445.899 313.289L453.913 308.662H453.909C455.66 307.706 456.773 305.415 456.773 302.129V95.9261H456.777Z" fill="#E5E7EB" stroke="#1F2937" stroke-width="1.31498" stroke-linejoin="round"/>
<path d="M446.676 92.157C447.975 94.8051 448.767 97.7893 448.767 100.561V306.76C448.767 310.045 447.65 312.339 445.902 313.289L453.916 308.658C455.667 307.71 456.781 305.415 456.781 302.129V95.9261C456.781 93.1544 455.989 90.1739 454.689 87.5221" fill="#D1D5DB"/>
<path d="M446.676 92.157C447.975 94.8051 448.767 97.7893 448.767 100.561V306.76C448.767 310.045 447.65 312.339 445.902 313.289L453.916 308.658C455.667 307.71 456.781 305.415 456.781 302.129V95.9261C456.781 93.1544 455.989 90.1739 454.689 87.5221" stroke="#1F2937" stroke-width="1.31498" stroke-linejoin="round"/>
<path d="M321.365 244.608L440.726 312.864C445.152 315.419 448.736 312.706 448.736 306.806V141.363L313.355 63.8576V229.301C313.355 235.199 316.943 242.054 321.365 244.608Z" fill="#1F2937" stroke="#1F2937" stroke-width="1.31498" stroke-linejoin="round"/>
<path d="M448.738 145.879L313.355 68.3726V23.067C313.355 17.1679 316.943 14.4542 321.365 17.0094L440.725 85.2648C445.151 87.8201 448.736 94.6739 448.736 100.573V145.879H448.738Z" fill="#F9FAFB" stroke="#1F2937" stroke-width="1.31498" stroke-linejoin="round"/>
<path d="M324.524 60.8636C323.31 60.1639 322.328 58.4552 322.328 57.0521V49.8927C322.328 48.4896 323.314 47.9214 324.524 48.6172C325.738 49.3245 326.72 51.0254 326.724 52.4287V59.5918C326.724 60.995 325.738 61.5632 324.524 60.8636ZM331.598 67.6903C330.385 66.9907 329.403 65.282 329.403 63.8788V51.2303C329.403 49.8233 330.385 49.2549 331.598 49.9546C332.812 50.6544 333.798 52.363 333.798 53.7662V66.4147C333.798 67.8218 332.812 68.3861 331.598 67.6865V67.6903ZM338.672 74.4592C337.458 73.7594 336.476 72.0508 336.476 70.6476V52.6142C336.476 51.2071 337.462 50.6427 338.672 51.3385C339.883 52.0343 340.869 53.7469 340.869 55.15V73.1796C340.869 74.5867 339.887 75.155 338.672 74.4552V74.4592ZM357.215 55.7145L326.542 27.3869C325.038 25.9758 323.677 26.2774 323.677 27.9628V45.683C323.957 45.7797 324.242 45.9112 324.528 46.0774C324.814 46.2435 325.1 46.4407 325.379 46.6649V28.9602C325.379 28.8404 325.379 28.562 325.754 28.7785C325.854 28.8364 325.959 28.9138 326.056 29.0066L356.729 57.3342C357.394 57.9489 357.889 59.0196 357.889 59.5686V82.2832C357.889 82.4147 357.889 82.6776 357.514 82.4611C357.413 82.403 357.313 82.3258 357.215 82.233L350.138 75.7039V77.7566L356.709 83.8333C356.965 84.0692 357.231 84.2702 357.499 84.4287C358.596 85.1206 359.524 84.6761 359.574 83.4391C359.574 83.3811 359.574 83.3231 359.574 83.2613V60.5273C359.574 59.0544 358.531 56.936 357.197 55.7067L357.213 55.7222L357.215 55.7145ZM345.747 81.3632C344.533 80.6635 343.551 78.955 343.551 77.5517V53.886C343.551 52.4828 344.537 51.9107 345.747 52.6104C346.956 53.31 347.942 55.0187 347.942 56.4219V80.1069C347.942 81.514 346.96 82.0822 345.747 81.3826V81.3632Z" fill="#333333"/>
<path d="M369.786 75.5254V81.4707L368.189 80.5507V64.8174L371.935 66.9784C373.393 67.821 374.522 68.8803 375.314 70.156C376.107 71.4315 376.516 72.8233 376.516 74.3153C376.516 75.8075 376.072 76.7739 375.179 77.2069C374.286 77.6399 373.088 77.4273 371.584 76.5575L369.79 75.5214L369.786 75.5254ZM369.786 67.4075V73.8592L371.461 74.8256C372.562 75.4635 373.405 75.6567 373.981 75.4093C374.556 75.1619 374.85 74.5087 374.85 73.4495C374.85 71.3736 373.788 69.7191 371.657 68.4898L369.786 67.4075ZM382.485 89.0707C381.048 88.2396 379.899 87.0528 379.04 85.5065C378.183 83.9603 377.754 82.3212 377.754 80.5894C377.754 78.8575 378.191 77.4775 379.095 76.9402C380 76.4029 381.187 76.542 382.705 77.4195C384.155 78.2584 385.288 79.4142 386.103 80.9295C386.919 82.4449 387.325 84.0956 387.325 85.9124C387.325 87.7061 386.885 88.8851 386.01 89.4612C385.137 90.0371 383.958 89.8941 382.492 89.0475V89.0745L382.485 89.0707ZM382.597 78.8885C381.596 78.3086 380.804 78.2468 380.224 78.699C379.643 79.1514 379.35 80.0636 379.35 81.4475C379.35 82.7774 379.643 83.9989 380.22 85.1007C380.796 86.2024 381.6 87.049 382.585 87.6172C383.595 88.2009 384.367 88.2666 384.909 87.8259C385.45 87.3853 385.72 86.4729 385.72 85.0813C385.72 83.6781 385.45 82.4371 384.909 81.3626C384.367 80.2878 383.595 79.4607 382.585 78.8808L382.597 78.8885ZM401.805 88.7267L398.886 98.2748L397.271 97.3432L395.265 88.143C395.188 87.7911 395.137 87.4162 395.114 87.0103L395.075 86.9871C395.041 87.3079 394.972 87.6095 394.874 87.8801L392.698 94.6758L391.14 93.7752L388.194 80.8406L389.829 81.7838L391.843 91.3978C391.906 91.6877 391.952 92.0511 391.976 92.4841L392.053 92.5265C392.075 92.1902 392.134 91.8771 392.222 91.595L394.464 84.4628L395.891 85.2862L397.906 94.9194C397.967 95.2248 398.017 95.592 398.049 96.0095L398.126 96.0521C398.137 95.7738 398.192 95.4684 398.287 95.1359L400.263 87.8065L401.802 88.6957V88.7267H401.805ZM411.153 100.192L404.273 96.2182C404.295 97.4824 404.6 98.6227 405.146 99.62C405.691 100.617 406.467 101.391 407.434 101.947C408.532 102.581 409.537 102.747 410.457 102.442V104.131C409.602 104.356 408.471 104.062 407.063 103.25C405.687 102.458 404.608 101.321 403.824 99.8482C403.039 98.3753 402.644 96.713 402.644 94.8615C402.644 93.0987 403.074 91.9351 403.932 91.3321C404.79 90.729 405.856 90.7909 407.128 91.5292C408.4 92.2676 409.386 93.3074 410.086 94.6604C410.786 96.0134 411.134 97.5364 411.134 99.2258V100.169L411.157 100.196L411.153 100.192ZM409.556 97.7453C409.548 96.7053 409.336 95.766 408.907 94.9465C408.477 94.127 407.886 93.4775 407.124 93.0368C406.418 92.6154 405.737 92.5537 405.253 92.8668C404.743 93.1799 404.423 93.7907 404.303 94.699L409.556 97.7453ZM418.49 100.181C418.219 99.7825 417.836 99.4423 417.31 99.1369C416.657 98.758 416.09 98.7929 415.645 99.2605C415.201 99.7283 414.976 100.586 414.976 101.839V107.564L413.418 106.663V95.4297L414.976 96.3303V98.6459L415.014 98.6691C415.235 98.0082 415.576 97.5868 416.032 97.4051C416.487 97.2233 416.998 97.3007 417.562 97.6254C417.968 97.8612 418.278 98.0893 418.494 98.3173V100.181H418.49ZM425.722 113.772V98.039L429.599 100.277C430.779 100.958 431.714 101.831 432.402 102.894C433.091 103.957 433.438 105.024 433.438 106.091C433.438 106.973 433.23 107.637 432.813 108.054C432.395 108.473 431.819 108.608 431.085 108.461V108.503C432.004 109.161 432.739 109.984 433.287 110.977C433.837 111.971 434.115 113.01 434.115 114.093C434.115 115.439 433.698 116.29 432.863 116.641C432.027 116.992 430.972 116.8 429.696 116.064L425.722 113.772ZM427.319 100.629V105.697L428.954 106.64C429.827 107.143 430.516 107.298 431.015 107.1C431.514 106.903 431.776 106.37 431.776 105.484C431.776 103.957 430.906 102.689 429.163 101.68L427.319 100.625V100.629ZM427.319 107.367V113.026L429.5 114.282C430.434 114.824 431.166 114.986 431.68 114.786C432.194 114.584 432.442 114.012 432.442 113.119C432.442 111.26 431.343 109.697 429.151 108.433L427.315 107.363L427.319 107.367ZM438.275 121.016L436.678 120.097V104.363L438.275 105.283V121.016Z" fill="#333333"/>
<path d="M329.632 143.954L431.687 208.479L436.542 205.677V143.954L329.632 82.2307L324.777 85.0333L329.632 143.954Z" fill="#1793EF" stroke="#1793EF" stroke-width="0.737098" stroke-linejoin="round"/>
<path d="M431.687 208.488L324.777 146.761V85.0376L431.687 146.765V208.488Z" fill="#0F172A" stroke="#1793EF" stroke-width="0.737098" stroke-linejoin="round"/>
<path d="M351.431 157.229L337.997 100.399L324.777 113.535V111.969L338.284 98.5513L351.578 154.781L364.69 130.189L378.12 151.906L391.546 140.827L404.916 172.332L418.102 165.092L431.687 179.943V180.956L418.273 166.294L404.777 173.704L391.468 142.345L378.209 153.289L364.958 131.862L351.431 157.229Z" fill="#F1D439"/>
<path d="M338.249 149.23L324.777 130.88V129.762L338.033 147.811L351.365 132.357L364.934 150.057L378.282 157.321L391.399 175.177L404.638 160.217L418.176 155.307L431.687 157.035V158.029L418.523 156.343L405.19 161.209L391.611 176.587L378.046 158.118L364.714 150.862L351.597 133.756L338.249 149.23Z" fill="#1793EF"/>
<path d="M338.296 135.375L324.777 121.177V120.179L337.987 134.054L351.455 117.884L364.799 142.778L378.178 130.28L391.637 152.079L404.889 150.273L418.219 171.961L431.687 168.902V170.031L418.152 173.104L404.797 151.375L391.55 153.176L378.286 131.703L364.845 144.254L351.554 119.46L338.296 135.375Z" fill="#22C55E"/>
<path d="M329.718 236.607L431.683 301.083L436.538 298.28V226.251L329.718 164.582L324.863 167.385L329.718 236.607Z" fill="#1793EF" stroke="#1793EF" stroke-width="0.737098" stroke-linejoin="round"/>
<path d="M431.683 301.083L324.863 239.415V167.385L431.683 229.054V301.083Z" fill="#0F172A" stroke="#1793EF" stroke-width="0.737098" stroke-linejoin="round"/>
<path d="M338.217 226.541L418.332 272.798" stroke="#64748B" stroke-width="0.398033" stroke-miterlimit="10"/>
<path d="M338.217 216.251L418.332 262.509" stroke="#64748B" stroke-width="0.398033" stroke-miterlimit="10"/>
<path d="M338.217 205.96L418.332 252.218" stroke="#64748B" stroke-width="0.398033" stroke-miterlimit="10"/>
<path d="M338.217 195.675L418.332 241.927" stroke="#64748B" stroke-width="0.398033" stroke-miterlimit="10"/>
<path d="M338.217 185.384L418.332 231.636" stroke="#64748B" stroke-width="0.398033" stroke-miterlimit="10"/>
<path d="M418.332 231.637V283.085" stroke="#64748B" stroke-width="0.398033" stroke-miterlimit="10"/>
<path d="M404.979 223.928V275.376" stroke="#64748B" stroke-width="0.398033" stroke-miterlimit="10"/>
<path d="M391.623 216.22V267.668" stroke="#64748B" stroke-width="0.398033" stroke-miterlimit="10"/>
<path d="M378.271 208.508V259.96" stroke="#64748B" stroke-width="0.398033" stroke-miterlimit="10"/>
<path d="M364.92 200.8V252.248" stroke="#64748B" stroke-width="0.398033" stroke-miterlimit="10"/>
<path d="M351.57 193.092V244.54" stroke="#64748B" stroke-width="0.398033" stroke-miterlimit="10"/>
<path d="M373.391 240.701C375.896 239.255 375.896 234.569 373.391 230.233C370.888 225.897 366.831 223.554 364.326 224.999C361.823 226.445 361.823 231.131 364.326 235.467C366.829 239.803 370.888 242.146 373.391 240.701Z" fill="#1793EF"/>
<path d="M377.068 223.933C378.944 222.85 378.944 219.335 377.067 216.082C375.189 212.83 372.145 211.072 370.269 212.155C368.391 213.24 368.393 216.755 370.27 220.006C372.148 223.259 375.192 225.017 377.068 223.933Z" fill="#1793EF"/>
<path d="M387.717 239.603C389.281 238.7 389.281 235.772 387.718 233.064C386.154 230.355 383.618 228.892 382.054 229.794C380.49 230.697 380.49 233.625 382.053 236.334C383.617 239.042 386.153 240.507 387.717 239.603Z" fill="#1793EF"/>
<path d="M351.923 239.213C353.107 238.528 353.107 236.314 351.924 234.266C350.742 232.217 348.824 231.11 347.64 231.793C346.457 232.476 346.456 234.691 347.638 236.74C348.822 238.788 350.739 239.896 351.923 239.213Z" fill="#FFC107"/>
<path d="M352.932 212.252C353.527 211.909 353.535 210.809 352.95 209.795C352.365 208.782 351.408 208.24 350.813 208.584C350.218 208.927 350.21 210.027 350.795 211.041C351.379 212.053 352.337 212.596 352.932 212.252Z" fill="#FFC107"/>
<path d="M384.65 259.833C385.523 259.328 385.535 257.716 384.677 256.231C383.821 254.747 382.418 253.951 381.545 254.456C380.673 254.959 380.66 256.572 381.518 258.056C382.375 259.54 383.777 260.336 384.65 259.833Z" fill="#FFC107"/>
<path d="M398.821 227.831C399.935 227.187 399.949 225.126 398.853 223.228C397.757 221.329 395.965 220.312 394.85 220.956C393.735 221.599 393.72 223.66 394.816 225.559C395.912 227.457 397.705 228.475 398.821 227.831Z" fill="#FFC107"/>
<path d="M416.197 245.298C416.776 244.963 416.784 243.893 416.215 242.907C415.646 241.923 414.715 241.394 414.137 241.729C413.558 242.063 413.55 243.133 414.119 244.118C414.688 245.104 415.619 245.632 416.197 245.298Z" fill="#FFC107"/>
<path d="M360.785 204.624C361.65 204.125 361.662 202.525 360.811 201.051C359.96 199.578 358.569 198.788 357.704 199.288C356.838 199.788 356.827 201.387 357.677 202.861C358.528 204.334 359.919 205.124 360.785 204.624Z" fill="#FFC107"/>
<path d="M405.354 244.26C405.775 244.017 405.781 243.238 405.367 242.521C404.953 241.803 404.275 241.419 403.854 241.662C403.432 241.906 403.425 242.685 403.84 243.402C404.254 244.119 404.932 244.503 405.354 244.26Z" fill="#1793EF"/>
<path d="M345.369 212.899C345.864 212.613 345.872 211.699 345.386 210.857C344.901 210.017 344.105 209.566 343.609 209.853C343.114 210.139 343.106 211.053 343.592 211.894C344.077 212.735 344.873 213.185 345.369 212.899Z" fill="#1793EF"/>
<path d="M402.261 259.291C403.293 258.696 403.308 256.789 402.294 255.035C401.282 253.281 399.625 252.341 398.593 252.937C397.561 253.533 397.545 255.438 398.559 257.192C399.572 258.948 401.229 259.886 402.261 259.291Z" fill="#1793EF"/>
<path d="M350.266 202.074C351.579 201.316 351.597 198.891 350.308 196.658C349.018 194.424 346.909 193.228 345.596 193.986C344.284 194.744 344.265 197.169 345.554 199.402C346.844 201.636 348.954 202.832 350.266 202.074Z" fill="#1793EF"/>
<path d="M418.333 283.316L338.016 236.947V185.162L338.418 185.394V236.715L418.333 282.856V283.316Z" fill="#64748B"/>
<path d="M378.507 239.963C379.924 239.143 379.926 236.489 378.507 234.034C377.09 231.578 374.791 230.251 373.373 231.071C371.954 231.889 371.954 234.544 373.371 236.998C374.79 239.454 377.088 240.781 378.507 239.963Z" fill="#FFC107"/>
<path d="M357.112 214.445C358.069 213.891 358.069 212.099 357.112 210.44C356.155 208.782 354.603 207.885 353.644 208.438C352.687 208.992 352.686 210.784 353.644 212.442C354.601 214.101 356.154 214.996 357.112 214.445Z" fill="#FFC107"/>
<path d="M354.905 233.636C355.537 233.272 355.527 232.072 354.884 230.957C354.24 229.842 353.205 229.234 352.573 229.6C351.941 229.964 351.951 231.164 352.594 232.279C353.238 233.394 354.273 234.002 354.905 233.636Z" fill="#1793EF"/>
<path d="M394.547 252.823C395.331 252.371 395.319 250.884 394.522 249.504C393.725 248.122 392.443 247.369 391.659 247.821C390.875 248.275 390.886 249.761 391.684 251.142C392.481 252.523 393.763 253.276 394.547 252.823Z" fill="#FFC107"/>
<path d="M436.539 226.251L431.684 229.057V301.083L436.539 298.28V226.251Z" fill="#0284C7" stroke="#1793EF" stroke-width="0.737098" stroke-linejoin="round"/>
<path d="M436.539 143.954L431.684 146.757V208.48L436.539 205.677V143.954Z" fill="#0284C7" stroke="#1793EF" stroke-width="0.737098" stroke-linejoin="round"/>
<path d="M141.491 325.149C141.375 325.149 141.263 325.119 141.163 325.062L134.716 321.342C134.459 321.195 134.335 320.892 134.411 320.605C134.488 320.318 134.748 320.119 135.044 320.119L152.442 320.111L152.446 310.344C152.446 310.11 152.572 309.893 152.774 309.777C152.875 309.718 152.989 309.689 153.102 309.689C153.215 309.689 153.329 309.718 153.43 309.777L159.876 313.496C160.078 313.613 160.204 313.829 160.204 314.064L160.195 324.485C160.195 324.847 159.901 325.14 159.54 325.14L141.491 325.149Z" fill="#1E293B"/>
<path d="M153.1 310.344L159.547 314.065L159.538 324.486L141.489 324.495L135.042 320.774L153.096 320.768L153.1 310.344ZM153.1 309.033C152.873 309.033 152.648 309.092 152.445 309.209C152.04 309.444 151.789 309.876 151.789 310.344L151.787 319.458L135.042 319.465C134.448 319.465 133.929 319.863 133.777 320.436C133.624 321.009 133.874 321.613 134.388 321.911L140.835 325.632C141.034 325.747 141.261 325.808 141.49 325.808L159.539 325.798C160.263 325.798 160.849 325.212 160.85 324.489L160.859 314.068C160.859 313.599 160.61 313.166 160.204 312.931L153.757 309.21C153.554 309.094 153.327 309.035 153.102 309.035L153.1 309.033Z" fill="#E5E7EB"/>
<path d="M151.979 350.061C151.864 350.061 151.751 350.03 151.651 349.973L145.205 346.253C144.948 346.106 144.823 345.803 144.899 345.516C144.976 345.229 145.236 345.03 145.532 345.03L162.931 345.022L162.935 335.256C162.935 335.021 163.061 334.804 163.262 334.688C163.363 334.629 163.478 334.6 163.59 334.6C163.703 334.6 163.817 334.629 163.918 334.688L170.365 338.407C170.567 338.524 170.693 338.74 170.693 338.975L170.683 349.396C170.683 349.758 170.39 350.051 170.028 350.051L151.979 350.061Z" fill="#1E293B"/>
<path d="M163.591 335.256L170.037 338.977L170.028 349.397L151.979 349.406L145.533 345.685L163.587 345.679L163.591 335.256ZM163.591 333.944C163.364 333.944 163.138 334.003 162.935 334.12C162.53 334.355 162.279 334.788 162.279 335.256L162.277 344.369L145.533 344.376C144.939 344.376 144.419 344.774 144.267 345.347C144.114 345.92 144.364 346.525 144.878 346.822L151.325 350.543C151.524 350.659 151.751 350.719 151.981 350.719L170.029 350.71C170.753 350.71 171.339 350.124 171.341 349.4L171.35 338.979C171.35 338.51 171.101 338.077 170.694 337.842L164.247 334.121C164.044 334.005 163.817 333.946 163.592 333.946L163.591 333.944Z" fill="#E5E7EB"/>
<path d="M172.958 305.483C172.842 305.483 172.729 305.453 172.63 305.395L166.183 301.675C165.926 301.528 165.802 301.226 165.878 300.938C165.955 300.651 166.215 300.452 166.511 300.452L183.909 300.444L183.913 290.678C183.913 290.443 184.039 290.227 184.241 290.11C184.342 290.051 184.456 290.022 184.569 290.022C184.682 290.022 184.796 290.051 184.897 290.11L191.343 293.83C191.545 293.946 191.671 294.163 191.671 294.397L191.662 304.818C191.662 305.18 191.368 305.474 191.006 305.474L172.958 305.483Z" fill="#1E293B"/>
<path d="M184.567 290.678L191.014 294.399L191.005 304.819L172.956 304.829L166.509 301.108L184.563 301.101L184.567 290.678ZM184.567 289.367C184.34 289.367 184.115 289.426 183.912 289.542C183.506 289.777 183.256 290.21 183.256 290.678L183.253 299.791L166.509 299.798C165.915 299.798 165.396 300.196 165.244 300.769C165.091 301.342 165.341 301.947 165.855 302.244L172.302 305.965C172.501 306.081 172.728 306.141 172.957 306.141L191.006 306.132C191.73 306.132 192.316 305.546 192.317 304.822L192.326 294.401C192.326 293.932 192.077 293.499 191.671 293.265L185.224 289.544C185.021 289.427 184.794 289.368 184.568 289.368L184.567 289.367Z" fill="#E5E7EB"/>
<path d="M183.446 330.394C183.33 330.394 183.218 330.364 183.118 330.306L176.671 326.587C176.414 326.44 176.29 326.137 176.366 325.85C176.443 325.563 176.703 325.363 176.999 325.363L194.398 325.355L194.401 315.589C194.401 315.354 194.527 315.138 194.729 315.021C194.83 314.962 194.944 314.933 195.057 314.933C195.17 314.933 195.284 314.962 195.385 315.021L201.832 318.741C202.033 318.857 202.159 319.074 202.159 319.309L202.15 329.729C202.15 330.091 201.856 330.385 201.495 330.385L183.446 330.394Z" fill="#1E293B"/>
<path d="M195.057 315.589L201.504 319.31L201.495 329.731L183.446 329.74L176.999 326.019L195.053 326.012L195.057 315.589ZM195.057 314.278C194.831 314.278 194.605 314.337 194.402 314.453C193.997 314.688 193.746 315.121 193.746 315.589L193.744 324.702L176.999 324.709C176.405 324.709 175.886 325.108 175.734 325.68C175.581 326.253 175.831 326.858 176.345 327.155L182.792 330.876C182.991 330.992 183.218 331.052 183.447 331.052L201.496 331.043C202.22 331.043 202.806 330.457 202.807 329.733L202.816 319.312C202.816 318.843 202.567 318.41 202.161 318.176L195.714 314.455C195.511 314.338 195.284 314.279 195.059 314.279L195.057 314.278Z" fill="#E5E7EB"/>
<path d="M216.223 310.727C216.108 310.727 215.995 310.697 215.895 310.639L209.449 306.92C209.192 306.773 209.067 306.47 209.143 306.183C209.221 305.896 209.48 305.696 209.776 305.696L227.175 305.689L227.179 295.922C227.179 295.687 227.305 295.471 227.507 295.354C227.608 295.295 227.722 295.267 227.834 295.267C227.947 295.267 228.061 295.295 228.162 295.354L234.609 299.074C234.811 299.191 234.937 299.407 234.937 299.642L234.928 310.062C234.928 310.424 234.634 310.718 234.272 310.718L216.223 310.727Z" fill="#1E293B"/>
<path d="M227.835 295.922L234.281 299.643L234.272 310.064L216.223 310.073L209.777 306.352L227.831 306.346L227.835 295.922ZM227.835 294.611C227.608 294.611 227.382 294.67 227.179 294.787C226.774 295.021 226.524 295.454 226.524 295.922L226.521 305.036L209.777 305.042C209.183 305.042 208.664 305.441 208.512 306.014C208.358 306.587 208.609 307.191 209.122 307.489L215.569 311.21C215.769 311.325 215.995 311.385 216.225 311.385L234.274 311.376C234.997 311.376 235.583 310.79 235.585 310.066L235.594 299.646C235.594 299.176 235.345 298.744 234.938 298.509L228.492 294.788C228.288 294.671 228.061 294.612 227.836 294.612L227.835 294.611Z" fill="#E5E7EB"/>
<path d="M79.8696 392.577C104.43 392.577 124.341 381.082 124.341 366.902C124.341 352.721 104.43 341.225 79.8696 341.225C55.3088 341.225 35.3984 352.721 35.3984 366.902C35.3984 381.082 55.3088 392.577 79.8696 392.577Z" fill="#1793EF"/>
<path d="M79.8851 384.612C97.0827 384.612 111.024 376.563 111.024 366.634C111.024 356.707 97.0827 348.658 79.8851 348.658C62.6875 348.658 48.7461 356.707 48.7461 366.634C48.7461 376.563 62.6875 384.612 79.8851 384.612Z" fill="#1793EF" stroke="#0F172A" stroke-width="0.747799" stroke-linejoin="round"/>
<path d="M111.024 366.634C111.024 371.235 107.985 375.837 101.904 379.347C89.7426 386.368 70.0277 386.368 57.8662 379.347C51.7855 375.837 48.7461 371.235 48.7461 366.634V348.658H111.024V366.634Z" fill="#1F2937" stroke="#0F172A" stroke-width="0.747799" stroke-linejoin="round"/>
<path d="M101.906 361.368C107.987 357.858 111.026 353.256 111.026 348.655V366.633C111.026 371.234 107.987 375.836 101.906 379.346" fill="#2D3A4F"/>
<path d="M101.906 361.368C107.987 357.858 111.026 353.256 111.026 348.655V366.633C111.026 371.234 107.987 375.836 101.906 379.346" stroke="#0F172A" stroke-width="0.747799" stroke-linejoin="round"/>
<path d="M79.8851 366.633C97.0827 366.633 111.024 358.584 111.024 348.655C111.024 338.727 97.0827 330.678 79.8851 330.678C62.6875 330.678 48.7461 338.727 48.7461 348.655C48.7461 358.584 62.6875 366.633 79.8851 366.633Z" fill="#64748B" stroke="#0F172A" stroke-width="0.747799" stroke-linejoin="round"/>
<path d="M57.8662 361.368C51.7855 357.858 48.7461 353.256 48.7461 348.655V366.633C48.7461 371.234 51.7855 375.836 57.8662 379.346" fill="#0F172A"/>
<path d="M57.8662 361.368C51.7855 357.858 48.7461 353.256 48.7461 348.655V366.633C48.7461 371.234 51.7855 375.836 57.8662 379.346" stroke="#0F172A" stroke-width="0.747799" stroke-linejoin="round"/>
<path d="M102.997 370.985C103.601 369.94 103.601 368.808 102.997 368.459C102.393 368.111 101.414 368.676 100.81 369.722C100.206 370.768 100.207 371.898 100.811 372.247C101.415 372.596 102.394 372.031 102.997 370.985Z" fill="#0F172A"/>
<path d="M102.627 370.771C103.026 370.08 103.026 369.334 102.627 369.105C102.228 368.874 101.582 369.247 101.184 369.937C100.785 370.627 100.785 371.374 101.184 371.604C101.582 371.834 102.229 371.461 102.627 370.771Z" fill="#86EFAC"/>
<path d="M106.704 368.324C107.325 367.199 107.365 366.031 106.792 365.714C106.22 365.398 105.252 366.054 104.63 367.18C104.009 368.305 103.969 369.473 104.541 369.789C105.114 370.106 106.082 369.449 106.704 368.324Z" fill="#0F172A"/>
<path d="M106.355 368.13C106.765 367.388 106.791 366.616 106.413 366.408C106.034 366.199 105.395 366.632 104.985 367.374C104.575 368.116 104.55 368.887 104.928 369.095C105.306 369.305 105.945 368.872 106.355 368.13Z" fill="#86EFAC"/>
<path d="M99.2132 372.951C99.7537 371.978 99.6563 370.892 98.9955 370.524C98.3347 370.157 97.3608 370.649 96.8201 371.622C96.2795 372.595 96.377 373.682 97.0378 374.049C97.6986 374.416 98.6726 373.924 99.2132 372.951Z" fill="#0F172A"/>
<path d="M98.8044 372.725C99.1614 372.081 99.0978 371.364 98.6624 371.122C98.2268 370.88 97.5844 371.205 97.2272 371.847C96.8702 372.491 96.9338 373.208 97.3692 373.45C97.8048 373.692 98.4472 373.367 98.8044 372.725Z" fill="#86EFAC"/>
<path d="M79.8851 362.571C97.0827 362.571 111.024 354.522 111.024 344.595C111.024 334.666 97.0827 326.617 79.8851 326.617C62.6875 326.617 48.7461 334.666 48.7461 344.595C48.7461 354.522 62.6875 362.571 79.8851 362.571Z" fill="#1793EF" stroke="#0F172A" stroke-width="0.747799" stroke-linejoin="round"/>
<path d="M111.024 344.595C111.024 349.194 107.985 353.797 101.904 357.307C89.7426 364.327 70.0277 364.327 57.8662 357.307C51.7855 353.797 48.7461 349.194 48.7461 344.595V326.617H111.024V344.595Z" fill="#1F2937" stroke="#0F172A" stroke-width="0.747799" stroke-linejoin="round"/>
<path d="M101.906 339.329C107.987 335.819 111.026 331.217 111.026 326.617V344.595C111.026 349.194 107.987 353.797 101.906 357.307" fill="#2D3A4F"/>
<path d="M101.906 339.329C107.987 335.819 111.026 331.217 111.026 326.617V344.595C111.026 349.194 107.987 353.797 101.906 357.307" stroke="#0F172A" stroke-width="0.747799" stroke-linejoin="round"/>
<path d="M79.8851 344.595C97.0827 344.595 111.024 336.546 111.024 326.618C111.024 316.689 97.0827 308.64 79.8851 308.64C62.6875 308.64 48.7461 316.689 48.7461 326.618C48.7461 336.546 62.6875 344.595 79.8851 344.595Z" fill="#64748B" stroke="#0F172A" stroke-width="0.747799" stroke-linejoin="round"/>
<path d="M57.8662 339.329C51.7855 335.819 48.7461 331.217 48.7461 326.617V344.595C48.7461 349.194 51.7855 353.797 57.8662 357.307" fill="#0F172A"/>
<path d="M57.8662 339.329C51.7855 335.819 48.7461 331.217 48.7461 326.617V344.595C48.7461 349.194 51.7855 353.797 57.8662 357.307" stroke="#0F172A" stroke-width="0.747799" stroke-linejoin="round"/>
<path d="M102.997 348.944C103.601 347.899 103.601 346.768 102.997 346.42C102.393 346.071 101.414 346.636 100.81 347.681C100.206 348.727 100.207 349.857 100.811 350.206C101.415 350.555 102.394 349.99 102.997 348.944Z" fill="#0F172A"/>
<path d="M102.627 348.73C103.026 348.039 103.026 347.293 102.627 347.063C102.228 346.833 101.582 347.206 101.184 347.896C100.785 348.587 100.785 349.333 101.184 349.562C101.582 349.793 102.229 349.42 102.627 348.73Z" fill="#86EFAC"/>
<path d="M106.704 346.283C107.325 345.157 107.365 343.989 106.792 343.673C106.22 343.357 105.252 344.012 104.63 345.137C104.009 346.262 103.969 347.432 104.541 347.748C105.114 348.064 106.082 347.408 106.704 346.283Z" fill="#0F172A"/>
<path d="M106.355 346.089C106.765 345.347 106.791 344.576 106.413 344.368C106.034 344.158 105.395 344.591 104.985 345.333C104.575 346.075 104.55 346.846 104.928 347.056C105.306 347.264 105.945 346.831 106.355 346.089Z" fill="#86EFAC"/>
<path d="M99.2112 350.91C99.7519 349.936 99.6544 348.85 98.9936 348.483C98.3328 348.116 97.3589 348.607 96.8182 349.581C96.2776 350.554 96.375 351.641 97.0358 352.008C97.6966 352.375 98.6706 351.883 99.2112 350.91Z" fill="#0F172A"/>
<path d="M98.8025 350.683C99.1595 350.041 99.0959 349.324 98.6605 349.081C98.2249 348.84 97.5825 349.165 97.2253 349.808C96.8683 350.45 96.9318 351.167 97.3673 351.41C97.8029 351.651 98.4453 351.327 98.8025 350.683Z" fill="#86EFAC"/>
<path d="M79.8851 340.677C97.0827 340.677 111.024 332.628 111.024 322.699C111.024 312.77 97.0827 304.721 79.8851 304.721C62.6875 304.721 48.7461 312.77 48.7461 322.699C48.7461 332.628 62.6875 340.677 79.8851 340.677Z" fill="#1793EF" stroke="#0F172A" stroke-width="0.747799" stroke-linejoin="round"/>
<path d="M111.024 322.699C111.024 327.3 107.985 331.902 101.904 335.412C89.7426 342.431 70.0278 342.431 57.8663 335.412C51.7855 331.902 48.7461 327.3 48.7461 322.699V304.721H111.024V322.699Z" fill="#1F2937" stroke="#0F172A" stroke-width="0.747799" stroke-linejoin="round"/>
<path d="M101.906 317.434C107.987 313.924 111.026 309.322 111.026 304.721V322.699C111.026 327.3 107.987 331.902 101.906 335.412" fill="#2D3A4F"/>
<path d="M101.906 317.434C107.987 313.924 111.026 309.322 111.026 304.721V322.699C111.026 327.3 107.987 331.902 101.906 335.412" stroke="#0F172A" stroke-width="0.747799" stroke-linejoin="round"/>
<path d="M79.8851 322.699C97.0827 322.699 111.024 314.65 111.024 304.722C111.024 294.793 97.0827 286.744 79.8851 286.744C62.6875 286.744 48.7461 294.793 48.7461 304.722C48.7461 314.65 62.6875 322.699 79.8851 322.699Z" fill="#64748B" stroke="#0F172A" stroke-width="0.747799" stroke-linejoin="round"/>
<path d="M57.8663 317.434C51.7855 313.924 48.7461 309.322 48.7461 304.721V322.699C48.7461 327.3 51.7855 331.902 57.8663 335.412" fill="#0F172A"/>
<path d="M57.8663 317.434C51.7855 313.924 48.7461 309.322 48.7461 304.721V322.699C48.7461 327.3 51.7855 331.902 57.8663 335.412" stroke="#0F172A" stroke-width="0.747799" stroke-linejoin="round"/>
<path d="M102.997 327.049C103.601 326.003 103.601 324.873 102.997 324.524C102.393 324.175 101.414 324.74 100.81 325.787C100.206 326.832 100.207 327.962 100.811 328.311C101.414 328.659 102.394 328.094 102.997 327.049Z" fill="#0F172A"/>
<path d="M102.627 326.834C103.026 326.145 103.026 325.399 102.627 325.168C102.228 324.938 101.582 325.311 101.184 326C100.785 326.691 100.785 327.437 101.184 327.668C101.582 327.898 102.229 327.525 102.627 326.834Z" fill="#86EFAC"/>
<path d="M106.704 324.389C107.325 323.264 107.365 322.095 106.792 321.779C106.22 321.463 105.252 322.118 104.63 323.243C104.009 324.369 103.969 325.538 104.542 325.854C105.114 326.17 106.082 325.514 106.704 324.389Z" fill="#0F172A"/>
<path d="M106.349 324.195C106.759 323.453 106.785 322.682 106.407 322.472C106.028 322.264 105.389 322.696 104.979 323.439C104.57 324.181 104.544 324.952 104.922 325.16C105.3 325.37 105.939 324.937 106.349 324.195Z" fill="#86EFAC"/>
<path d="M99.2112 329.016C99.7518 328.043 99.6545 326.956 98.9935 326.589C98.3327 326.222 97.3588 326.714 96.8183 327.688C96.2776 328.661 96.375 329.746 97.0358 330.113C97.6966 330.48 98.6706 329.99 99.2112 329.016Z" fill="#0F172A"/>
<path d="M98.8023 328.79C99.1595 328.147 99.0959 327.43 98.6604 327.188C98.2249 326.946 97.5824 327.271 97.2253 327.913C96.8683 328.557 96.9319 329.274 97.3673 329.516C97.8028 329.758 98.4453 329.433 98.8023 328.79Z" fill="#86EFAC"/>
<path d="M517.17 418.401C547.908 418.401 572.827 404.015 572.827 386.27C572.827 368.524 547.908 354.137 517.17 354.137C486.433 354.137 461.514 368.524 461.514 386.27C461.514 404.015 486.433 418.401 517.17 418.401Z" fill="#1793EF" stroke="#0F172A" stroke-width="0.747799" stroke-linejoin="round"/>
<path d="M572.827 386.27C572.827 394.492 567.394 402.717 556.526 408.991C534.789 421.538 499.552 421.538 477.815 408.991C466.947 402.717 461.514 394.492 461.514 386.27V354.137H572.827V386.27Z" fill="#1F2937" stroke="#0F172A" stroke-width="0.747799" stroke-linejoin="round"/>
<path d="M556.527 376.856C567.395 370.582 572.827 362.356 572.827 354.134V386.266C572.827 394.488 567.395 402.714 556.527 408.987" fill="#2D3A4F"/>
<path d="M556.527 376.856C567.395 370.582 572.827 362.356 572.827 354.134V386.266C572.827 394.488 567.395 402.714 556.527 408.987" stroke="#0F172A" stroke-width="0.747799" stroke-linejoin="round"/>
<path d="M517.169 386.267C547.908 386.267 572.826 371.88 572.826 354.134C572.826 336.388 547.908 322.003 517.169 322.003C486.431 322.003 461.514 336.388 461.514 354.134C461.514 371.88 486.431 386.267 517.169 386.267Z" fill="#64748B" stroke="#0F172A" stroke-width="0.747799" stroke-linejoin="round"/>
<path d="M477.815 376.856C466.947 370.582 461.514 362.356 461.514 354.134V386.266C461.514 394.488 466.947 402.714 477.815 408.987" fill="#0F172A"/>
<path d="M477.815 376.856C466.947 370.582 461.514 362.356 461.514 354.134V386.266C461.514 394.488 466.947 402.714 477.815 408.987" stroke="#0F172A" stroke-width="0.747799" stroke-linejoin="round"/>
<path d="M558.477 394.044C559.556 392.175 559.556 390.154 558.475 389.532C557.396 388.909 555.646 389.918 554.567 391.788C553.488 393.656 553.488 395.677 554.568 396.301C555.647 396.924 557.398 395.914 558.477 394.044Z" fill="#0F172A"/>
<path d="M557.811 393.662C558.523 392.428 558.523 391.095 557.811 390.683C557.098 390.271 555.943 390.939 555.231 392.172C554.519 393.406 554.519 394.739 555.231 395.151C555.944 395.561 557.1 394.895 557.811 393.662Z" fill="#86EFAC"/>
<path d="M565.1 389.289C566.21 387.278 566.281 385.189 565.257 384.624C564.234 384.059 562.504 385.231 561.393 387.242C560.283 389.254 560.212 391.342 561.235 391.907C562.259 392.472 563.988 391.3 565.1 389.289Z" fill="#0F172A"/>
<path d="M564.472 388.942C565.205 387.615 565.251 386.237 564.576 385.863C563.899 385.491 562.757 386.263 562.024 387.59C561.292 388.917 561.246 390.295 561.922 390.668C562.597 391.042 563.739 390.268 564.472 388.942Z" fill="#86EFAC"/>
<path d="M551.712 397.56C552.679 395.82 552.504 393.878 551.323 393.221C550.142 392.566 548.402 393.444 547.436 395.184C546.469 396.922 546.642 398.865 547.824 399.521C549.005 400.176 550.746 399.299 551.712 397.56Z" fill="#0F172A"/>
<path d="M550.986 397.153C551.625 396.005 551.511 394.722 550.733 394.29C549.954 393.857 548.806 394.438 548.167 395.588C547.529 396.736 547.643 398.018 548.422 398.45C549.199 398.883 550.348 398.302 550.986 397.153Z" fill="#86EFAC"/>
<path d="M517.17 379.007C547.908 379.007 572.827 364.622 572.827 346.876C572.827 329.13 547.908 314.743 517.17 314.743C486.433 314.743 461.514 329.13 461.514 346.876C461.514 364.622 486.433 379.007 517.17 379.007Z" fill="#1793EF" stroke="#0F172A" stroke-width="0.747799" stroke-linejoin="round"/>
<path d="M572.827 346.876C572.827 355.098 567.394 363.324 556.526 369.598C534.789 382.145 499.552 382.145 477.815 369.598C466.947 363.324 461.514 355.098 461.514 346.876V314.743H572.827V346.876Z" fill="#1F2937" stroke="#0F172A" stroke-width="0.747799" stroke-linejoin="round"/>
<path d="M556.527 337.465C567.395 331.191 572.827 322.965 572.827 314.743V346.876C572.827 355.098 567.395 363.324 556.527 369.598" fill="#2D3A4F"/>
<path d="M556.527 337.465C567.395 331.191 572.827 322.965 572.827 314.743V346.876C572.827 355.098 567.395 363.324 556.527 369.598" stroke="#0F172A" stroke-width="0.747799" stroke-linejoin="round"/>
<path d="M517.169 346.876C547.908 346.876 572.826 332.49 572.826 314.744C572.826 296.999 547.908 282.613 517.169 282.613C486.431 282.613 461.514 296.999 461.514 314.744C461.514 332.49 486.431 346.876 517.169 346.876Z" fill="#64748B" stroke="#0F172A" stroke-width="0.747799" stroke-linejoin="round"/>
<path d="M477.815 337.465C466.947 331.191 461.514 322.965 461.514 314.743V346.876C461.514 355.098 466.947 363.324 477.815 369.598" fill="#0F172A"/>
<path d="M477.815 337.465C466.947 331.191 461.514 322.965 461.514 314.743V346.876C461.514 355.098 466.947 363.324 477.815 369.598" stroke="#0F172A" stroke-width="0.747799" stroke-linejoin="round"/>
<path d="M558.477 354.65C559.556 352.781 559.556 350.761 558.475 350.137C557.396 349.514 555.646 350.524 554.567 352.393C553.488 354.261 553.488 356.282 554.568 356.906C555.647 357.529 557.398 356.519 558.477 354.65Z" fill="#0F172A"/>
<path d="M557.811 354.267C558.523 353.033 558.523 351.699 557.811 351.288C557.098 350.877 555.943 351.543 555.231 352.777C554.519 354.011 554.519 355.344 555.231 355.756C555.944 356.168 557.1 355.5 557.811 354.267Z" fill="#86EFAC"/>
<path d="M565.1 349.894C566.21 347.883 566.281 345.794 565.257 345.228C564.234 344.663 562.504 345.835 561.393 347.846C560.283 349.857 560.212 351.946 561.235 352.511C562.259 353.077 563.988 351.905 565.1 349.894Z" fill="#0F172A"/>
<path d="M564.472 349.548C565.205 348.221 565.251 346.843 564.576 346.47C563.899 346.096 562.757 346.869 562.024 348.196C561.292 349.522 561.246 350.901 561.922 351.273C562.597 351.647 563.739 350.875 564.472 349.548Z" fill="#86EFAC"/>
<path d="M551.71 358.163C552.676 356.423 552.502 354.482 551.321 353.826C550.139 353.169 548.399 354.048 547.433 355.788C546.467 357.527 546.641 359.469 547.821 360.125C549.003 360.78 550.744 359.903 551.71 358.163Z" fill="#0F172A"/>
<path d="M550.977 357.759C551.616 356.611 551.503 355.329 550.724 354.896C549.946 354.463 548.797 355.044 548.16 356.194C547.521 357.343 547.634 358.625 548.413 359.057C549.192 359.489 550.34 358.908 550.977 357.759Z" fill="#86EFAC"/>
<path d="M517.169 339.873C547.908 339.873 572.826 325.488 572.826 307.742C572.826 289.995 547.908 275.609 517.169 275.609C486.431 275.609 461.514 289.995 461.514 307.742C461.514 325.488 486.431 339.873 517.169 339.873Z" fill="#1793EF" stroke="#0F172A" stroke-width="0.747799" stroke-linejoin="round"/>
<path d="M572.826 307.742C572.826 315.964 567.394 324.19 556.525 330.464C534.788 343.01 499.552 343.01 477.815 330.464C466.946 324.19 461.514 315.964 461.514 307.742V275.609H572.826V307.742Z" fill="#1F2937" stroke="#0F172A" stroke-width="0.747799" stroke-linejoin="round"/>
<path d="M556.525 298.331C567.393 292.057 572.826 283.831 572.826 275.609V307.742C572.826 315.964 567.393 324.19 556.525 330.464" fill="#2D3A4F"/>
<path d="M556.525 298.331C567.393 292.057 572.826 283.831 572.826 275.609V307.742C572.826 315.964 567.393 324.19 556.525 330.464" stroke="#0F172A" stroke-width="0.747799" stroke-linejoin="round"/>
<path d="M517.168 307.742C547.906 307.742 572.824 293.356 572.824 275.609C572.824 257.863 547.906 243.478 517.168 243.478C486.429 243.478 461.512 257.863 461.512 275.609C461.512 293.356 486.429 307.742 517.168 307.742Z" fill="#64748B" stroke="#0F172A" stroke-width="0.747799" stroke-linejoin="round"/>
<path d="M477.815 298.331C466.946 292.057 461.514 283.831 461.514 275.609V307.742C461.514 315.964 466.946 324.19 477.815 330.464" fill="#0F172A"/>
<path d="M477.815 298.331C466.946 292.057 461.514 283.831 461.514 275.609V307.742C461.514 315.964 466.946 324.19 477.815 330.464" stroke="#0F172A" stroke-width="0.747799" stroke-linejoin="round"/>
<path d="M558.474 315.515C559.553 313.647 559.553 311.627 558.474 311.003C557.394 310.38 555.645 311.389 554.566 313.259C553.485 315.127 553.487 317.148 554.566 317.772C555.645 318.395 557.395 317.385 558.474 315.515Z" fill="#0F172A"/>
<path d="M557.809 315.133C558.521 313.899 558.521 312.565 557.809 312.154C557.097 311.742 555.942 312.409 555.229 313.643C554.517 314.877 554.517 316.21 555.23 316.622C555.942 317.032 557.097 316.366 557.809 315.133Z" fill="#86EFAC"/>
<path d="M565.098 310.761C566.208 308.75 566.279 306.662 565.256 306.096C564.232 305.531 562.503 306.704 561.391 308.715C560.281 310.726 560.21 312.815 561.234 313.38C562.256 313.945 563.987 312.773 565.098 310.761Z" fill="#0F172A"/>
<path d="M564.468 310.414C565.201 309.088 565.247 307.709 564.572 307.337C563.895 306.963 562.754 307.735 562.021 309.062C561.288 310.389 561.242 311.767 561.918 312.141C562.594 312.514 563.737 311.741 564.468 310.414Z" fill="#86EFAC"/>
<path d="M551.71 319.033C552.676 317.293 552.502 315.352 551.321 314.695C550.141 314.039 548.399 314.918 547.433 316.657C546.467 318.396 546.641 320.338 547.822 320.995C549.002 321.65 550.744 320.772 551.71 319.033Z" fill="#0F172A"/>
<path d="M550.977 318.628C551.616 317.478 551.503 316.196 550.724 315.765C549.946 315.332 548.797 315.913 548.16 317.061C547.521 318.211 547.634 319.492 548.413 319.925C549.192 320.357 550.34 319.777 550.977 318.628Z" fill="#86EFAC"/>
</svg>
