<svg width="375" height="207" viewBox="0 0 375 207" fill="none" xmlns="http://www.w3.org/2000/svg">
<g opacity="0.14">
<circle cx="186.312" cy="158.892" r="30.7664" transform="rotate(-90 186.312 158.892)" fill="#4AD2D6" stroke="#1DD0D5" stroke-width="0.584737"/>
<circle cx="262.234" cy="186.503" r="30.7664" transform="rotate(-90 262.234 186.503)" fill="#4AD2D6" stroke="#1DD0D5" stroke-width="0.584737"/>
<circle cx="338.155" cy="210.659" r="30.7664" transform="rotate(-90 338.155 210.659)" fill="#4AD2D6" stroke="#1DD0D5" stroke-width="0.584737"/>
<line x1="230.575" y1="236.046" x2="199.516" y2="177.38" stroke="#1DD0D5" stroke-width="5.26263"/>
<circle cx="390.578" cy="42.2056" r="30.7664" transform="rotate(-28.7096 390.578 42.2056)" fill="#4AD2D6" stroke="#1DD0D5" stroke-width="0.584737"/>
<circle cx="402.835" cy="122.059" r="30.7664" transform="rotate(-28.7096 402.835 122.059)" fill="#4AD2D6" stroke="#1DD0D5" stroke-width="0.584737"/>
<circle cx="324.499" cy="133.489" r="30.7664" transform="rotate(-28.7096 324.499 133.489)" fill="#4AD2D6" stroke="#1DD0D5" stroke-width="0.584737"/>
<line x1="344.172" y1="118.097" x2="380.707" y2="62.6749" stroke="#1DD0D5" stroke-width="5.26263"/>
<line x1="343.798" y1="153.049" x2="398.376" y2="190.834" stroke="#1DD0D5" stroke-width="5.26263"/>
</g>
<g opacity="0.14">
<circle cx="123.024" cy="208.508" r="30.7664" transform="rotate(31.6653 123.024 208.508)" fill="#4AD2D6" stroke="#1DD0D5" stroke-width="0.584737"/>
<circle cx="74.3664" cy="146.058" r="30.7664" transform="rotate(31.6653 74.3664 146.058)" fill="#4AD2D6" stroke="#1DD0D5" stroke-width="0.584737"/>
<line x1="97.4555" y1="155.552" x2="155.58" y2="158.967" stroke="#1DD0D5" stroke-width="5.26263"/>
<line x1="66.8998" y1="172.504" x2="61.0332" y2="238.625" stroke="#1DD0D5" stroke-width="5.26263"/>
<circle cx="-19.3128" cy="42.1606" r="30.7664" transform="rotate(-28.7096 -19.3128 42.1606)" fill="#4AD2D6" stroke="#1DD0D5" stroke-width="0.584737"/>
<circle cx="-7.05609" cy="122.013" r="30.7664" transform="rotate(-28.7096 -7.05609 122.013)" fill="#4AD2D6" stroke="#1DD0D5" stroke-width="0.584737"/>
<circle cx="8.22718" cy="200.206" r="30.7664" transform="rotate(-28.7096 8.22718 200.206)" fill="#4AD2D6" stroke="#1DD0D5" stroke-width="0.584737"/>
</g>
</svg>
