<svg width="375" height="217" viewBox="0 0 375 217" fill="none" xmlns="http://www.w3.org/2000/svg">
<g opacity="0.14">
<circle cx="31.0588" cy="31.0588" r="30.7664" transform="matrix(4.37114e-08 1 1 -4.37114e-08 156.248 26.8057)" fill="#4AD2D6" stroke="#1DD0D5" stroke-width="0.584737"/>
<circle cx="31.0588" cy="31.0588" r="30.7664" transform="matrix(4.37114e-08 1 1 -4.37114e-08 232.17 -0.80542)" fill="#4AD2D6" stroke="#1DD0D5" stroke-width="0.584737"/>
<circle cx="31.0588" cy="31.0588" r="30.7664" transform="matrix(4.37114e-08 1 1 -4.37114e-08 308.091 -24.9619)" fill="#4AD2D6" stroke="#1DD0D5" stroke-width="0.584737"/>
<line y1="-2.63132" x2="66.3808" y2="-2.63132" transform="matrix(-0.467888 0.883788 0.883788 0.467888 233.895 -18.0591)" stroke="#1DD0D5" stroke-width="5.26263"/>
<circle cx="31.0588" cy="31.0588" r="30.7664" transform="matrix(0.877066 0.480371 0.480371 -0.877066 349.412 186.871)" fill="#4AD2D6" stroke="#1DD0D5" stroke-width="0.584737"/>
<circle cx="31.0588" cy="31.0588" r="30.7664" transform="matrix(0.877066 0.480371 0.480371 -0.877066 361.669 107.019)" fill="#4AD2D6" stroke="#1DD0D5" stroke-width="0.584737"/>
<circle cx="31.0588" cy="31.0588" r="30.7664" transform="matrix(0.877066 0.480371 0.480371 -0.877066 283.333 95.5886)" fill="#4AD2D6" stroke="#1DD0D5" stroke-width="0.584737"/>
<line y1="-2.63132" x2="66.3808" y2="-2.63132" transform="matrix(0.55038 0.834914 0.834914 -0.55038 347.364 97.2109)" stroke="#1DD0D5" stroke-width="5.26263"/>
<line y1="-2.63132" x2="66.3808" y2="-2.63132" transform="matrix(0.82219 -0.569213 -0.569213 -0.82219 343.295 61.5437)" stroke="#1DD0D5" stroke-width="5.26263"/>
</g>
<g opacity="0.14">
<circle cx="31.0588" cy="31.0588" r="30.7664" transform="matrix(0.851129 -0.524957 -0.524957 -0.851129 113.888 50.9873)" fill="#4AD2D6" stroke="#1DD0D5" stroke-width="0.584737"/>
<circle cx="31.0588" cy="31.0588" r="30.7664" transform="matrix(0.851129 -0.524957 -0.524957 -0.851129 65.2311 113.438)" fill="#4AD2D6" stroke="#1DD0D5" stroke-width="0.584737"/>
<line y1="-2.63132" x2="58.2246" y2="-2.63132" transform="matrix(0.998278 -0.0586533 -0.0586533 -0.998278 98.2963 58.5776)" stroke="#1DD0D5" stroke-width="5.26263"/>
<line y1="-2.63132" x2="66.3808" y2="-2.63132" transform="matrix(-0.0883782 -0.996087 -0.996087 0.0883782 65.274 44.4846)" stroke="#1DD0D5" stroke-width="5.26263"/>
<circle cx="31.0588" cy="31.0588" r="30.7664" transform="matrix(0.877066 0.480371 0.480371 -0.877066 -60.4778 186.916)" fill="#4AD2D6" stroke="#1DD0D5" stroke-width="0.584737"/>
<circle cx="31.0588" cy="31.0588" r="30.7664" transform="matrix(0.877066 0.480371 0.480371 -0.877066 -48.2211 107.064)" fill="#4AD2D6" stroke="#1DD0D5" stroke-width="0.584737"/>
<circle cx="31.0588" cy="31.0588" r="30.7664" transform="matrix(0.877066 0.480371 0.480371 -0.877066 -32.9379 28.8713)" fill="#4AD2D6" stroke="#1DD0D5" stroke-width="0.584737"/>
</g>
</svg>
