<svg width="796" height="726" viewBox="0 0 796 726" fill="none" xmlns="http://www.w3.org/2000/svg">
<g opacity="0.1">
<circle cx="617.058" cy="-41.7846" r="52.6158" transform="rotate(-30 617.058 -41.7846)" fill="#1DD0D5" stroke="#1DD0D5"/>
<circle cx="641.086" cy="94.2686" r="52.6158" transform="rotate(-30 641.086 94.2686)" fill="#1DD0D5" stroke="#1DD0D5"/>
<circle cx="506.116" cy="114.268" r="52.6158" transform="rotate(-30 506.116 114.268)" fill="#1DD0D5" stroke="#1DD0D5"/>
<circle cx="670.227" cy="227.368" r="52.6158" transform="rotate(-30 670.227 227.368)" fill="#1DD0D5" stroke="#1DD0D5"/>
<line x1="540.637" y1="89.7445" x2="600.968" y2="-6.42003" stroke="#1DD0D5" stroke-width="9"/>
<line x1="541.34" y1="149.531" x2="636.108" y2="212.031" stroke="#1DD0D5" stroke-width="9"/>
<circle cx="274.056" cy="158.732" r="52.6158" transform="rotate(-88.7242 274.056 158.732)" fill="#1DD0D5" stroke="#1DD0D5"/>
<circle cx="402.816" cy="208.822" r="52.6158" transform="rotate(-88.7242 402.816 208.822)" fill="#1DD0D5" stroke="#1DD0D5"/>
<circle cx="352.783" cy="334.63" r="52.6158" transform="rotate(-88.7242 352.783 334.63)" fill="#1DD0D5" stroke="#1DD0D5"/>
<circle cx="531.693" cy="253.02" r="52.6158" transform="rotate(-88.7242 531.693 253.02)" fill="#1DD0D5" stroke="#1DD0D5"/>
<line x1="346.799" y1="292.327" x2="295.93" y2="190.839" stroke="#1DD0D5" stroke-width="9"/>
<line x1="398.259" y1="322.763" x2="500.877" y2="274.214" stroke="#1DD0D5" stroke-width="9"/>
<circle cx="274.393" cy="560.857" r="52.6158" transform="rotate(-149.965 274.393 560.857)" fill="#1DD0D5" stroke="#1DD0D5"/>
<circle cx="380.252" cy="472.086" r="52.6158" transform="rotate(-149.965 380.252 472.086)" fill="#1DD0D5" stroke="#1DD0D5"/>
<circle cx="466.476" cy="576.469" r="52.6158" transform="rotate(-149.965 466.476 576.469)" fill="#1DD0D5" stroke="#1DD0D5"/>
<circle cx="481.015" cy="380.355" r="52.6158" transform="rotate(-149.965 481.015 380.355)" fill="#1DD0D5" stroke="#1DD0D5"/>
<line x1="426.513" y1="561.363" x2="313.069" y2="557.129" stroke="#1DD0D5" stroke-width="9"/>
<line x1="477.946" y1="530.896" x2="484.757" y2="417.578" stroke="#1DD0D5" stroke-width="9"/>
<circle cx="625.525" cy="761.816" r="52.6158" transform="rotate(150.921 625.525 761.816)" fill="#1DD0D5" stroke="#1DD0D5"/>
<circle cx="603.693" cy="625.392" r="52.6158" transform="rotate(150.921 603.693 625.392)" fill="#1DD0D5" stroke="#1DD0D5"/>
<circle cx="737.528" cy="604.989" r="52.6158" transform="rotate(150.921 737.528 604.989)" fill="#1DD0D5" stroke="#1DD0D5"/>
<circle cx="576.689" cy="491.845" r="52.6158" transform="rotate(150.921 576.689 491.845)" fill="#1DD0D5" stroke="#1DD0D5"/>
<line x1="704.049" y1="631.535" x2="642.181" y2="726.717" stroke="#1DD0D5" stroke-width="9"/>
<line x1="704.307" y1="571.746" x2="610.556" y2="507.73" stroke="#1DD0D5" stroke-width="9"/>
<circle cx="839.964" cy="513.986" r="52.6158" transform="rotate(91.6653 839.964 513.986)" fill="#1DD0D5" stroke="#1DD0D5"/>
<circle cx="711.383" cy="468.917" r="52.6158" transform="rotate(91.6653 711.383 468.917)" fill="#1DD0D5" stroke="#1DD0D5"/>
<line x1="845.297" y1="400.078" x2="742.352" y2="447.928" stroke="#1DD0D5" stroke-width="9"/>
<circle cx="856.829" cy="247.375" r="52.6158" transform="rotate(31.2904 856.829 247.375)" fill="#1DD0D5" stroke="#1DD0D5"/>
<circle cx="772.915" cy="141.13" r="52.6158" transform="rotate(31.2904 772.915 141.13)" fill="#1DD0D5" stroke="#1DD0D5"/>
<circle cx="754.091" cy="336.872" r="52.6158" transform="rotate(31.2904 754.091 336.872)" fill="#1DD0D5" stroke="#1DD0D5"/>
<line x1="760.45" y1="186.439" x2="751.157" y2="299.58" stroke="#1DD0D5" stroke-width="9"/>
</g>
</svg>
