<svg width="463" height="726" viewBox="0 0 463 726" fill="none" xmlns="http://www.w3.org/2000/svg">
<g opacity="0.1">
<circle cx="-39.4719" cy="604.989" r="52.6158" transform="rotate(150.921 -39.4719 604.989)" fill="#1DD0D5" stroke="#1DD0D5"/>
<circle cx="191.381" cy="564.95" r="52.6158" transform="rotate(91.6653 191.381 564.95)" fill="#1DD0D5" stroke="#1DD0D5"/>
<circle cx="62.9636" cy="513.986" r="52.6158" transform="rotate(91.6653 62.9636 513.986)" fill="#1DD0D5" stroke="#1DD0D5"/>
<circle cx="113.849" cy="388.522" r="52.6158" transform="rotate(91.6653 113.849 388.522)" fill="#1DD0D5" stroke="#1DD0D5"/>
<line x1="119.545" y1="430.864" x2="169.723" y2="532.696" stroke="#1DD0D5" stroke-width="9"/>
<line x1="68.2972" y1="400.078" x2="-34.648" y2="447.928" stroke="#1DD0D5" stroke-width="9"/>
<circle cx="187.613" cy="160.943" r="52.6158" transform="rotate(31.2904 187.613 160.943)" fill="#1DD0D5" stroke="#1DD0D5"/>
<circle cx="79.8302" cy="247.376" r="52.6158" transform="rotate(31.2904 79.8302 247.376)" fill="#1DD0D5" stroke="#1DD0D5"/>
<circle cx="-4.08486" cy="141.13" r="52.6158" transform="rotate(31.2904 -4.08486 141.13)" fill="#1DD0D5" stroke="#1DD0D5"/>
<circle cx="-22.9091" cy="336.872" r="52.6158" transform="rotate(31.2904 -22.9091 336.872)" fill="#1DD0D5" stroke="#1DD0D5"/>
<line x1="35.5359" y1="157.107" x2="148.859" y2="163.826" stroke="#1DD0D5" stroke-width="9"/>
</g>
</svg>
