<svg width="333" height="386" viewBox="0 0 333 386" fill="none" xmlns="http://www.w3.org/2000/svg">
<path d="M168.164 386C165.782 386 163.4 385.451 161.251 384.335L91.9825 348.357C72.3271 338.138 56.9514 326.669 44.9451 313.308C18.6669 284.087 4.04644 246.577 3.81406 207.666L3.00073 79.5983C2.90391 64.8175 12.4121 51.5509 26.6259 46.5546L153.815 2.06101C161.367 -0.645317 169.791 -0.683168 177.479 1.92853L305.152 44.9081C319.443 49.6962 329.106 62.8682 329.183 77.63L329.997 205.793C330.248 244.646 316.131 282.308 290.26 311.85C278.389 325.401 263.149 337.04 243.687 347.449L175.039 384.24C172.909 385.394 170.546 385.981 168.164 386" fill="#1C3256"/>
<path d="M167.859 351C165.914 351 163.969 350.551 162.214 349.637L105.655 320.184C89.6066 311.817 77.052 302.428 67.2488 291.49C45.7923 267.569 33.8544 236.861 33.6647 205.007L33.0006 100.163C32.9215 88.0631 40.6851 77.2023 52.2909 73.112L156.142 36.6873C162.309 34.4717 169.187 34.4407 175.464 36.5788L279.711 71.7641C291.38 75.6839 299.27 86.4673 299.333 98.552L299.997 203.473C300.203 235.28 288.676 266.112 267.552 290.297C257.859 301.39 245.415 310.919 229.524 319.44L173.472 349.559C171.733 350.504 169.804 350.985 167.859 351" fill="#26426E"/>
<path d="M157.05 225.3C154.368 225.314 151.686 224.345 149.618 222.352L123.022 196.697C118.916 192.712 118.874 186.244 122.939 182.232C127.003 178.206 133.638 178.165 137.759 182.136L156.896 200.586L203.621 154.379C207.699 150.353 214.334 150.312 218.441 154.283C222.562 158.268 222.604 164.75 218.539 168.749L164.439 222.257C162.4 224.277 159.732 225.286 157.05 225.3" fill="#2FB7B8"/>
<path d="M167.595 319.966C166.028 319.966 164.46 319.605 163.045 318.87L117.461 295.203C104.526 288.479 94.4072 280.935 86.506 272.145C69.2126 252.922 59.591 228.246 59.4381 202.648L58.9028 118.398C58.8391 108.675 65.0963 99.9472 74.4503 96.6604L158.152 67.3901C163.122 65.6098 168.665 65.5849 173.725 67.303L257.745 95.5772C267.15 98.7271 273.509 107.392 273.56 117.103L274.095 201.416C274.261 226.976 264.971 251.752 247.945 271.186C240.133 280.101 230.104 287.757 217.296 294.605L172.119 318.808C170.717 319.567 169.162 319.953 167.595 319.966" fill="#FFE073"/>
<path d="M157.879 222.468C155.432 222.481 152.985 221.597 151.099 219.779L126.835 196.373C123.088 192.737 123.05 186.836 126.759 183.176C130.467 179.503 136.52 179.466 140.28 183.089L157.739 199.921L200.367 157.765C204.088 154.092 210.142 154.055 213.888 157.678C217.648 161.313 217.686 167.227 213.977 170.875L164.621 219.692C162.76 221.534 160.326 222.456 157.879 222.468" fill="#2FB7B8"/>
</svg>
