<svg width="63" height="114" viewBox="0 0 63 114" fill="none" xmlns="http://www.w3.org/2000/svg">
<path d="M51.1904 0.484574C50.9057 0.011355 50.2912 -0.14143 49.818 0.14332C49.3448 0.428069 49.192 1.04252 49.4767 1.51574L50.3336 1.00016L51.1904 0.484574ZM0.00199686 112.134L11.4844 113.354L6.79976 102.8L0.00199686 112.134ZM50.3336 1.00016L49.4767 1.51574C65.3024 27.8162 63.1656 50.2045 53.0181 68.0568C42.8259 85.9877 24.4899 99.4394 7.79211 107.582L8.23044 108.481L8.66877 109.38C25.5669 101.139 44.2918 87.456 54.7568 69.0451C65.2666 50.5555 67.3833 27.3952 51.1904 0.484574L50.3336 1.00016Z" fill="#303030" fill-opacity="0.7"/>
</svg>
