<svg width="40" height="40" viewBox="0 0 40 40" fill="none" xmlns="http://www.w3.org/2000/svg">
<path d="M27.1757 3.38133C27.9194 3.91883 28.1944 4.89383 27.8569 5.74383L22.9569 18.0001H32.0007C32.8444 18.0001 33.5944 18.5251 33.8819 19.3188C34.1694 20.1126 33.9257 21.0001 33.2819 21.5376L15.2819 36.5376C14.5757 37.1251 13.5694 37.1563 12.8257 36.6188C12.0819 36.0813 11.8069 35.1063 12.1444 34.2563L17.0444 22.0001H8.00068C7.15693 22.0001 6.40693 21.4751 6.11943 20.6813C5.83193 19.8876 6.07568 19.0001 6.71943 18.4626L24.7194 3.46258C25.4257 2.87508 26.4319 2.84383 27.1757 3.38133Z" fill="#1DD0D5"/>
</svg>
