<svg width="42" height="42" viewBox="0 0 42 42" fill="none" xmlns="http://www.w3.org/2000/svg">
<path d="M37.052 24.3361C39.782 24.3361 42 22.11 42 19.3782C42 18.0714 41.475 16.791 40.5497 15.8716C39.6507 14.972 38.4103 14.4467 37.1372 14.4204C37.1897 14.0724 37.216 13.7047 37.216 13.3238C37.216 9.41007 34.0397 6.22511 30.1285 6.22511C29.2032 6.22511 28.2845 6.40897 27.4379 6.75699C26.1385 2.74478 22.4177 0 18.1257 0C12.7312 0 8.341 4.39301 8.341 9.79718V9.97448H7.17945C5.25666 9.97448 3.45852 10.723 2.09999 12.0823C0.748101 13.4351 0 15.2409 0 17.1583C0 21.118 3.22219 24.3355 7.17945 24.3355H11.3269V28.0457C11.3269 29.6742 10.0013 31.0006 8.36725 31.0006H8.01944C7.72413 29.6676 6.53634 28.6629 5.11885 28.6629C3.47825 28.6629 2.13946 30.0025 2.13946 31.6442C2.13946 33.2858 3.47821 34.6188 5.11885 34.6188C6.54289 34.6188 7.73729 33.6142 8.02603 32.2746H8.36728C10.7035 32.2746 12.6 30.3768 12.6 28.0459V24.3358H20.37V35.7026C18.9197 35.9915 17.8238 37.2786 17.8238 38.8218C17.8238 40.5751 19.2478 42 21 42C22.7522 42 24.1762 40.5751 24.1762 38.8218C24.1762 37.2852 23.0868 35.9981 21.6431 35.7026V24.3358H29.4001V30.3443C29.4001 32.6688 31.2966 34.5666 33.6328 34.5666H33.9741C34.2628 35.9062 35.4572 36.9109 36.8813 36.9109C38.5219 36.9109 39.8606 35.5779 39.8606 33.9362C39.8606 32.2946 38.5219 30.955 36.8813 30.955C35.4638 30.955 34.276 31.9597 33.9807 33.2927H33.6329C31.9988 33.2927 30.6732 31.9663 30.6732 30.3443V24.3358L37.052 24.3361Z" fill="#1DD0D5"/>
</svg>
