<svg width="57" height="40" viewBox="0 0 57 40" fill="none" xmlns="http://www.w3.org/2000/svg">
<path d="M55.7999 6.26042C55.1529 3.79167 53.2118 1.85417 50.7594 1.19792C46.3242 0 28.5 0 28.5 0C28.5 0 10.6758 0 6.23013 1.19792C3.77774 1.85417 1.84713 3.79167 1.18967 6.26042C1.99046e-07 10.7292 0 20.0417 0 20.0417C0 20.0417 1.99046e-07 29.3542 1.18967 33.8229C1.84713 36.2812 3.77774 38.1458 6.23013 38.8021C10.6758 40 28.5 40 28.5 40C28.5 40 46.3242 40 50.7699 38.8021C53.2223 38.1458 55.1529 36.2812 55.8103 33.8229C57 29.3542 57 20.0417 57 20.0417C57 20.0417 57 10.7292 55.8103 6.26042H55.7999ZM22.6664 28.5V11.5833L37.5582 20.0417L22.6664 28.5Z" fill="#30BABA"/>
</svg>
