<svg width="40" height="40" viewBox="0 0 40 40" fill="none" xmlns="http://www.w3.org/2000/svg">
<path d="M8 4C9.10625 4 10 4.89375 10 6V7L14.3125 5.925C16.6938 5.33125 19.2063 5.60625 21.4062 6.70625C24.3 8.15625 27.7063 8.15625 30.6 6.70625L31.2 6.40625C32.4875 5.75625 34 6.69375 34 8.13125V25.6125C34 26.4437 33.4813 27.1937 32.7 27.4875L30.5312 28.3C27.6437 29.3812 24.4312 29.2125 21.675 27.8375C19.3062 26.65 16.5875 26.3563 14.0188 27L10 28V34C10 35.1063 9.10625 36 8 36C6.89375 36 6 35.1063 6 34V6C6 4.89375 6.89375 4 8 4ZM10 15.6938L14 14.825V18.9188L10 19.7875V23.8813L13.05 23.1187C13.3688 23.0375 13.6813 22.9688 14 22.9125V18.9188L16.4312 18.3937C16.95 18.2812 17.475 18.2375 18 18.2625V14.2625C18.85 14.2875 19.7 14.425 20.525 14.6625L22 15.0938V19.2625L19.3937 18.4937C18.9375 18.3625 18.4688 18.2812 18 18.2563V22.7188C19.3625 22.8375 20.7063 23.1375 22 23.6187V19.2563L23.4188 19.675C24.2625 19.925 25.125 20.075 26 20.1375V16.125C25.5125 16.075 25.025 15.9812 24.55 15.8438L22 15.0938V11.2188C21.1875 10.9812 20.3875 10.6687 19.6125 10.2812C19.1 10.025 18.5562 9.84375 18 9.73125V14.2563C17.1875 14.2313 16.375 14.3062 15.5813 14.4812L14 14.825V10.125L10 11.125V15.6938ZM26 24.9813C27.05 25.075 28.1187 24.9375 29.125 24.5562L30 24.2313V19.75L29.5063 19.8625C28.3563 20.1312 27.175 20.2188 26 20.1437V24.9813ZM30 15.6438V11.2188C28.6938 11.6 27.35 11.7875 26 11.7875V16.125C26.8687 16.2125 27.75 16.1562 28.6063 15.9625L30 15.6375V15.6438Z" fill="#1DD0D5"/>
</svg>
