<svg width="55" height="40" viewBox="0 0 55 40" fill="none" xmlns="http://www.w3.org/2000/svg">
<path d="M27.5 0C32.4328 0 36.4375 4.01724 36.4375 8.96552C36.4375 13.9138 32.4328 17.931 27.5 17.931C22.5672 17.931 18.5625 13.9138 18.5625 8.96552C18.5625 4.01724 22.5672 0 27.5 0ZM8.25 6.2069C11.6703 6.2069 14.4375 8.98276 14.4375 12.4138C14.4375 15.8448 11.6703 18.6207 8.25 18.6207C4.82969 18.6207 2.0625 15.8448 2.0625 12.4138C2.0625 8.98276 4.82969 6.2069 8.25 6.2069ZM0 34.4828C0 28.3879 4.92422 23.4483 11 23.4483C12.1 23.4483 13.1656 23.6121 14.1711 23.9138C11.3437 27.0862 9.625 31.2759 9.625 35.8621V37.2414C9.625 38.2241 9.83125 39.1552 10.2008 40H2.75C1.22891 40 0 38.7672 0 37.2414V34.4828ZM44.7992 40C45.1688 39.1552 45.375 38.2241 45.375 37.2414V35.8621C45.375 31.2759 43.6562 27.0862 40.8289 23.9138C41.8344 23.6121 42.9 23.4483 44 23.4483C50.0758 23.4483 55 28.3879 55 34.4828V37.2414C55 38.7672 53.7711 40 52.25 40H44.7992ZM40.5625 12.4138C40.5625 8.98276 43.3297 6.2069 46.75 6.2069C50.1703 6.2069 52.9375 8.98276 52.9375 12.4138C52.9375 15.8448 50.1703 18.6207 46.75 18.6207C43.3297 18.6207 40.5625 15.8448 40.5625 12.4138ZM13.75 35.8621C13.75 28.2414 19.9031 22.069 27.5 22.069C35.0969 22.069 41.25 28.2414 41.25 35.8621V37.2414C41.25 38.7672 40.0211 40 38.5 40H16.5C14.9789 40 13.75 38.7672 13.75 37.2414V35.8621Z" fill="#30BABA"/>
</svg>
