<svg width="15" height="15" viewBox="0 0 15 15" fill="none" xmlns="http://www.w3.org/2000/svg">
<g clip-path="url(#clip0_9442_7589)">
<path fill-rule="evenodd" clip-rule="evenodd" d="M1.69715 6.7887C1.69715 3.97675 3.97668 1.69721 6.78863 1.69721C9.60058 1.69721 11.8801 3.97675 11.8801 6.7887C11.8801 9.60065 9.60058 11.8802 6.78863 11.8802C3.97668 11.8802 1.69715 9.60065 1.69715 6.7887ZM6.78863 0.771484C3.46542 0.771484 0.771423 3.46548 0.771423 6.7887C0.771423 10.1119 3.46542 12.8059 6.78863 12.8059C8.28363 12.8059 9.65129 12.2607 10.7036 11.3583L13.25 13.9046C13.4307 14.0854 13.7238 14.0854 13.9046 13.9046C14.0853 13.7239 14.0853 13.4308 13.9046 13.25L11.3582 10.7037C12.2606 9.65135 12.8058 8.28369 12.8058 6.7887C12.8058 3.46548 10.1118 0.771484 6.78863 0.771484Z" fill="#A9A9A9"/>
<path d="M10.7036 11.3583L11.1699 10.892C10.9262 10.6484 10.536 10.6334 10.2744 10.8578L10.7036 11.3583ZM13.9046 13.9046L13.4383 13.4384L13.4383 13.4384L13.9046 13.9046ZM11.3582 10.7037L10.8577 10.2745C10.6334 10.536 10.6483 10.9263 10.892 11.1699L11.3582 10.7037ZM6.78863 1.69721V1.03785C3.61253 1.03785 1.03779 3.61259 1.03779 6.7887H1.69715H2.3565C2.3565 4.3409 4.34084 2.35656 6.78863 2.35656V1.69721ZM11.8801 6.7887H12.5395C12.5395 3.61259 9.96474 1.03785 6.78863 1.03785V1.69721V2.35656C9.23643 2.35656 11.2208 4.3409 11.2208 6.7887H11.8801ZM6.78863 11.8802V12.5395C9.96474 12.5395 12.5395 9.9648 12.5395 6.7887H11.8801H11.2208C11.2208 9.23649 9.23643 11.2208 6.78863 11.2208V11.8802ZM1.69715 6.7887H1.03779C1.03779 9.9648 3.61253 12.5395 6.78863 12.5395V11.8802V11.2208C4.34084 11.2208 2.3565 9.23649 2.3565 6.7887H1.69715ZM0.771423 6.7887H1.43078C1.43078 3.82963 3.82957 1.43084 6.78863 1.43084V0.771484V0.11213C3.10127 0.11213 0.112068 3.10133 0.112068 6.7887H0.771423ZM6.78863 12.8059V12.1466C3.82957 12.1466 1.43078 9.74776 1.43078 6.7887H0.771423H0.112068C0.112068 10.4761 3.10127 13.4653 6.78863 13.4653V12.8059ZM10.7036 11.3583L10.2744 10.8578C9.33706 11.6616 8.12032 12.1466 6.78863 12.1466V12.8059V13.4653C8.44694 13.4653 9.96551 12.8598 11.1328 11.8588L10.7036 11.3583ZM13.25 13.9046L13.7162 13.4384L11.1699 10.892L10.7036 11.3583L10.2374 11.8245L12.7838 14.3709L13.25 13.9046ZM13.9046 13.9046L13.4383 13.4384C13.5151 13.3617 13.6395 13.3617 13.7162 13.4384L13.25 13.9046L12.7838 14.3709C13.222 14.8091 13.9326 14.8091 14.3708 14.3709L13.9046 13.9046ZM13.9046 13.25L13.4383 13.7163C13.3616 13.6396 13.3616 13.5151 13.4383 13.4384L13.9046 13.9046L14.3708 14.3709C14.8091 13.9326 14.8091 13.2221 14.3708 12.7838L13.9046 13.25ZM11.3582 10.7037L10.892 11.1699L13.4383 13.7163L13.9046 13.25L14.3708 12.7838L11.8244 10.2374L11.3582 10.7037ZM12.8058 6.7887H12.1465C12.1465 8.12038 11.6615 9.33712 10.8577 10.2745L11.3582 10.7037L11.8587 11.1329C12.8598 9.96558 13.4652 8.447 13.4652 6.7887H12.8058ZM6.78863 0.771484V1.43084C9.7477 1.43084 12.1465 3.82963 12.1465 6.7887H12.8058H13.4652C13.4652 3.10133 10.476 0.11213 6.78863 0.11213V0.771484Z" fill="#A9A9A9"/>
</g>
<defs>
<clipPath id="clip0_9442_7589">
<rect width="14.8116" height="14.8116" fill="white"/>
</clipPath>
</defs>
</svg>
