<svg width="26" height="22" viewBox="0 0 26 22" fill="none" xmlns="http://www.w3.org/2000/svg">
<path d="M4.85336 5.66225C4.85336 5.44772 4.93858 5.24197 5.09027 5.09027C5.24197 4.93858 5.44772 4.85336 5.66225 4.85336H16.9867C17.2013 4.85336 17.407 4.93858 17.5587 5.09027C17.7104 5.24197 17.7956 5.44772 17.7956 5.66225C17.7956 5.87678 17.7104 6.08252 17.5587 6.23422C17.407 6.38592 17.2013 6.47114 16.9867 6.47114H5.66225C5.44772 6.47114 5.24197 6.38592 5.09027 6.23422C4.93858 6.08252 4.85336 5.87678 4.85336 5.66225ZM13.7512 9.70671C13.5366 9.70671 13.3309 9.79193 13.1792 9.94363C13.0275 10.0953 12.9423 10.3011 12.9423 10.5156C12.9423 10.7301 13.0275 10.9359 13.1792 11.0876C13.3309 11.2393 13.5366 11.3245 13.7512 11.3245H16.9867C17.2013 11.3245 17.407 11.2393 17.5587 11.0876C17.7104 10.9359 17.7956 10.7301 17.7956 10.5156C17.7956 10.3011 17.7104 10.0953 17.5587 9.94363C17.407 9.79193 17.2013 9.70671 16.9867 9.70671H13.7512ZM12.9423 15.369C12.9423 15.1544 13.0275 14.9487 13.1792 14.797C13.3309 14.6453 13.5366 14.5601 13.7512 14.5601H16.9867C17.2013 14.5601 17.407 14.6453 17.5587 14.797C17.7104 14.9487 17.7956 15.1544 17.7956 15.369C17.7956 15.5835 17.7104 15.7892 17.5587 15.9409C17.407 16.0926 17.2013 16.1779 16.9867 16.1779H13.7512C13.5366 16.1779 13.3309 16.0926 13.1792 15.9409C13.0275 15.7892 12.9423 15.5835 12.9423 15.369ZM5.66225 9.70671C5.44772 9.70671 5.24197 9.79193 5.09027 9.94363C4.93858 10.0953 4.85336 10.3011 4.85336 10.5156V15.369C4.85336 15.5835 4.93858 15.7892 5.09027 15.9409C5.24197 16.0926 5.44772 16.1779 5.66225 16.1779H10.5156C10.7301 16.1779 10.9359 16.0926 11.0876 15.9409C11.2393 15.7892 11.3245 15.5835 11.3245 15.369V10.5156C11.3245 10.3011 11.2393 10.0953 11.0876 9.94363C10.9359 9.79193 10.7301 9.70671 10.5156 9.70671H5.66225ZM6.47114 14.5601V11.3245H9.70671V14.5601H6.47114ZM0 3.23557C0 2.37744 0.340889 1.55446 0.947676 0.947676C1.55446 0.340889 2.37744 0 3.23557 0H19.4134C20.2715 0 21.0945 0.340889 21.7013 0.947676C22.3081 1.55446 22.649 2.37744 22.649 3.23557V4.85336C23.5071 4.85336 24.3301 5.19424 24.9369 5.80103C25.5437 6.40782 25.8846 7.2308 25.8846 8.08893V16.9867C25.8846 18.0594 25.4585 19.0881 24.7 19.8466C23.9415 20.6051 22.9128 21.0312 21.8401 21.0312H4.04446C2.9718 21.0312 1.94308 20.6051 1.1846 19.8466C0.426112 19.0881 0 18.0594 0 16.9867V3.23557ZM21.0312 3.23557C21.0312 2.80651 20.8608 2.39502 20.5574 2.09162C20.254 1.78823 19.8425 1.61779 19.4134 1.61779H3.23557C2.80651 1.61779 2.39502 1.78823 2.09162 2.09162C1.78823 2.39502 1.61779 2.80651 1.61779 3.23557V16.9867C1.61779 17.6303 1.87345 18.2476 2.32854 18.7027C2.78363 19.1578 3.40087 19.4134 4.04446 19.4134H21.8401C22.4837 19.4134 23.1009 19.1578 23.556 18.7027C24.0111 18.2476 24.2668 17.6303 24.2668 16.9867V8.08893C24.2668 7.65986 24.0963 7.24837 23.7929 6.94498C23.4895 6.64159 23.0781 6.47114 22.649 6.47114V16.9867C22.649 17.2013 22.5638 17.407 22.4121 17.5587C22.2604 17.7104 22.0546 17.7956 21.8401 17.7956C21.6256 17.7956 21.4198 17.7104 21.2681 17.5587C21.1164 17.407 21.0312 17.2013 21.0312 16.9867V3.23557Z" fill="#A9A9A9"/>
</svg>
