<svg width="40" height="40" viewBox="0 0 40 40" fill="none" xmlns="http://www.w3.org/2000/svg">
<path d="M10.2063 20.0063L14.5437 12.5125C14.1937 11.75 13.9937 10.9 13.9937 10C13.9937 6.6875 16.6812 4 19.9937 4C23.3062 4 25.9937 6.6875 25.9937 10C25.9937 10.8938 25.8 11.7437 25.4438 12.5125L28.2188 17.3062C26.775 18.9312 24.8625 20.125 22.6938 20.6688L20 15.9937L15.7437 23.3438C17.0875 23.7687 18.5125 24 20 24C24.4188 24 28.3625 21.9562 30.9312 18.75C31.625 17.8875 32.8813 17.75 33.7438 18.4375C34.6063 19.125 34.7438 20.3875 34.0563 21.25C30.7625 25.3625 25.6875 28 20.0063 28C17.7938 28 15.6687 27.6 13.7125 26.8687L10.1687 32.9813C9.875 33.4875 9.4375 33.9 8.9125 34.1625L5.45 35.8937C5.1375 36.05 4.76875 36.0312 4.475 35.85C4.18125 35.6687 4 35.3438 4 35V31.5375C4 31.0125 4.1375 30.4937 4.40625 30.0312L8.15625 23.55C7.35625 22.85 6.61875 22.0812 5.95 21.25C5.25625 20.3875 5.4 19.1313 6.2625 18.4375C7.125 17.7437 8.38125 17.8875 9.075 18.75C9.43125 19.1938 9.8125 19.6125 10.2125 20.0063H10.2063ZM27.8188 29.4937C29.85 28.6812 31.7188 27.5562 33.375 26.1875L35.6 30.0312C35.8625 30.4875 36.0062 31.0063 36.0062 31.5375V35C36.0062 35.3438 35.825 35.6687 35.5312 35.85C35.2375 36.0312 34.8688 36.05 34.5563 35.8937L31.0938 34.1625C30.5688 33.9 30.1313 33.4875 29.8375 32.9813L27.8188 29.4937ZM20 12C21.1063 12 22 11.1062 22 10C22 8.89375 21.1063 8 20 8C18.8938 8 18 8.89375 18 10C18 11.1062 18.8938 12 20 12Z" fill="#1DD0D5"/>
</svg>
