<svg width="41" height="50" viewBox="0 0 41 50" fill="none" xmlns="http://www.w3.org/2000/svg">
<path d="M14.7621 8.65007C14.7621 8.22278 15.1086 7.87605 15.5356 7.87605H22.5362C22.9632 7.87605 23.3097 8.22277 23.3097 8.65007C23.3097 9.07736 22.9632 9.42408 22.5362 9.42408H15.5356C15.1086 9.42408 14.7621 9.07736 14.7621 8.65007ZM15.5356 12.0195H27.0113C27.4383 12.0195 27.7848 11.6728 27.7848 11.2455C27.7848 10.8182 27.4383 10.4715 27.0113 10.4715H15.5356C15.1086 10.4715 14.7621 10.8182 14.7621 11.2455C14.7621 11.6728 15.1086 12.0195 15.5356 12.0195ZM15.5356 14.6125H27.0113C27.4383 14.6125 27.7848 14.2658 27.7848 13.8385C27.7848 13.4112 27.4383 13.0645 27.0113 13.0645H15.5356C15.1086 13.0645 14.7621 13.4112 14.7621 13.8385C14.7621 14.2658 15.1086 14.6125 15.5356 14.6125ZM10.4016 7.90562H6.55355C5.75073 7.90562 5.09683 8.55999 5.09683 9.36326V13.2138C5.09683 14.0171 5.7508 14.6714 6.55355 14.6714H8.47877C8.90578 14.6714 9.25229 14.3247 9.25229 13.8974C9.25229 13.4701 8.90579 13.1234 8.47877 13.1234H6.64625V9.45602H10.3113V11.2897C10.3113 11.717 10.6578 12.0637 11.0848 12.0637C11.5118 12.0637 11.8583 11.717 11.8583 11.2897V9.36326C11.8583 8.55993 11.2044 7.90562 10.4016 7.90562ZM15.5356 19.9624H22.5362C22.9632 19.9624 23.3097 19.6157 23.3097 19.1884C23.3097 18.7611 22.9632 18.4144 22.5362 18.4144H15.5356C15.1086 18.4144 14.7621 18.7611 14.7621 19.1884C14.7621 19.6157 15.1086 19.9624 15.5356 19.9624ZM15.5356 22.5554H27.0113C27.4383 22.5554 27.7848 22.2087 27.7848 21.7814C27.7848 21.3541 27.4383 21.0074 27.0113 21.0074H15.5356C15.1086 21.0074 14.7621 21.3541 14.7621 21.7814C14.7621 22.2087 15.1086 22.5554 15.5356 22.5554ZM15.5356 25.1484H27.0113C27.4383 25.1484 27.7848 24.8017 27.7848 24.3744C27.7848 23.9471 27.4383 23.6004 27.0113 23.6004H15.5356C15.1086 23.6004 14.7621 23.9471 14.7621 24.3744C14.7621 24.8017 15.1086 25.1484 15.5356 25.1484ZM10.4016 18.4415H6.55355C5.75073 18.4415 5.09683 19.0959 5.09683 19.8992V23.7497C5.09683 24.553 5.7508 25.2073 6.55355 25.2073H8.47877C8.90578 25.2073 9.25229 24.8606 9.25229 24.4333C9.25229 24.006 8.90579 23.6593 8.47877 23.6593H6.64625V19.9919H10.3113V21.8256C10.3113 22.2529 10.6578 22.5996 11.0848 22.5996C11.5118 22.5996 11.8583 22.2529 11.8583 21.8256V19.8992C11.8583 19.0958 11.2044 18.4415 10.4016 18.4415ZM15.5356 30.4983H22.5362C22.9632 30.4983 23.3097 30.1516 23.3097 29.7243C23.3097 29.297 22.9632 28.9503 22.5362 28.9503H15.5356C15.1086 28.9503 14.7621 29.297 14.7621 29.7243C14.7621 30.1516 15.1086 30.4983 15.5356 30.4983ZM10.4016 28.9796H6.55355C5.75073 28.9796 5.09683 29.634 5.09683 30.4372V34.2877C5.09683 35.0911 5.7508 35.7454 6.55355 35.7454H8.47877C8.90578 35.7454 9.25229 35.3987 9.25229 34.9714C9.25229 34.5441 8.90579 34.1974 8.47877 34.1974H6.64625V30.53H10.3113V32.3637C10.3113 32.791 10.6578 33.1377 11.0848 33.1377C11.5118 33.1377 11.8583 32.791 11.8583 32.3637V30.4372C11.8583 29.6339 11.2044 28.9796 10.4016 28.9796ZM40.2905 48.8378C40.5053 49.2089 40.3784 49.6826 40.0075 49.8974C39.8855 49.9683 39.7513 50 39.6219 50C39.3535 50 39.0924 49.8608 38.9509 49.6118L36.1399 44.7407C35.0395 45.2485 33.8585 45.5074 32.6652 45.5074C31.9405 45.5074 31.2085 45.4122 30.4887 45.2193C29.8762 45.0557 29.293 44.8237 28.744 44.5331L5.92937 44.538C4.65318 44.538 3.61618 43.5003 3.61618 42.2234V40.5972H2.31319C1.037 40.5972 0 39.5595 0 38.2825V2.31466C0 1.03766 1.03707 0 2.31319 0H29.3543C30.6305 0 31.6675 1.03773 31.6675 2.31466V3.94082H32.9705C34.2466 3.94082 35.2836 4.97855 35.2836 6.25548V29.2215C37.1576 29.8441 38.8194 31.126 39.8832 32.9694C42.0549 36.7344 40.9569 41.5052 37.4773 43.9692L40.2883 48.8428L40.2905 48.8378ZM11.3586 1.55069V2.73974C11.3586 3.26958 11.7905 3.69933 12.3176 3.69933H19.35C19.8795 3.69933 20.309 3.26716 20.309 2.73974V1.55069H11.3563H11.3586ZM26.6654 42.9903C26.1871 42.4971 25.765 41.9429 25.4136 41.3301C24.418 39.6063 24.0764 37.6285 24.4229 35.6923H15.534C15.107 35.6923 14.7604 35.3456 14.7604 34.9183C14.7604 34.491 15.1069 34.1443 15.534 34.1443H24.8527C24.9918 33.7829 25.1528 33.4338 25.3358 33.0993H15.5342C15.1072 33.0993 14.7607 32.7525 14.7607 32.3252C14.7607 31.8979 15.1072 31.5512 15.5342 31.5512H26.444C27.0223 30.9115 27.7006 30.3572 28.4693 29.9153C30.1237 28.9607 31.9708 28.6383 33.7326 28.8703L33.7375 6.25558C33.7375 5.83318 33.3934 5.49132 32.9737 5.49132H31.6707V25.027C31.6707 25.4543 31.3242 25.801 30.8972 25.801C30.4702 25.801 30.1237 25.4543 30.1237 25.027L30.1212 2.31476C30.1212 1.89236 29.7772 1.5505 29.3574 1.5505H21.8615V2.73955C21.8615 4.12394 20.7366 5.25199 19.3506 5.25199H12.3182C10.9347 5.25199 9.80733 4.12638 9.80733 2.73955V1.5505H2.31136C1.88923 1.5505 1.54758 1.89477 1.54758 2.31476V38.2826C1.54758 38.705 1.89164 39.0469 2.31136 39.0469H21.3467C21.7738 39.0469 22.1203 39.3936 22.1203 39.8209C22.1203 40.2482 21.7738 40.5949 21.3467 40.5949H5.1642V42.2211C5.1642 42.6435 5.50825 42.9853 5.92798 42.9853H26.6637L26.6654 42.9903ZM36.0497 43.0489C39.2999 41.1713 40.4175 36.9985 38.541 33.7462C37.6358 32.1786 36.1961 31.1067 34.5857 30.6257C34.5613 30.6282 34.5344 30.6306 34.51 30.6306C34.349 30.6306 34.2001 30.5818 34.0757 30.4963C33.6047 30.3962 33.1241 30.3425 32.6385 30.3425C31.4843 30.3425 30.3155 30.6355 29.2467 31.2532C27.6729 32.1615 26.5455 33.6314 26.0771 35.3869C25.6061 37.1449 25.8477 38.9786 26.7578 40.5534C27.3752 41.6229 28.2511 42.4848 29.2979 43.0757C29.3126 43.083 29.3272 43.0928 29.3419 43.1001C29.825 43.3687 30.3423 43.5787 30.8889 43.7227C32.6458 44.194 34.4783 43.9522 36.0521 43.0415L36.0497 43.0489ZM37.2624 33.3824C36.9306 33.1138 36.4425 33.1651 36.1741 33.4971L31.4891 39.2911L29.0686 36.869C28.766 36.5663 28.2756 36.5663 27.973 36.869C27.6704 37.1718 27.6704 37.6625 27.973 37.9653L31.0036 40.9979C31.15 41.1444 31.3476 41.2249 31.5526 41.2249C31.5673 41.2249 31.5795 41.2249 31.5941 41.2225C31.8137 41.2103 32.0187 41.1077 32.1553 40.9344L37.382 34.4687C37.6504 34.1367 37.5992 33.6484 37.2673 33.3798L37.2624 33.3824Z" fill="black"/>
</svg>
