<svg width="24" height="17" viewBox="0 0 24 17" fill="none" xmlns="http://www.w3.org/2000/svg">
<path d="M22.8596 4.31063C22.7179 2.94334 22.4132 1.43185 21.2916 0.637529C20.4229 0.02155 19.2811 -0.00122223 18.2152 4.26135e-05C15.9619 4.26135e-05 13.7073 0.00384209 11.454 0.00510693C9.28672 0.00763662 7.11941 0.00889992 4.95211 0.0114296C4.04674 0.0114296 3.16667 -0.0581384 2.32579 0.333963C1.60378 0.670412 1.03856 1.31043 0.69842 2.02254C0.226772 3.01291 0.128148 4.13482 0.071247 5.23018C-0.0337042 7.22484 -0.0223239 9.22455 0.102859 11.2179C0.195165 12.6725 0.429089 14.2801 1.5532 15.2073C2.54961 16.0282 3.9557 16.0686 5.24799 16.0699C9.34994 16.0737 13.4532 16.0775 17.5564 16.08C18.0824 16.0813 18.6312 16.0712 19.1673 16.013C20.2219 15.8991 21.2271 15.5968 21.9049 14.8152C22.589 14.0272 22.7647 12.9305 22.8684 11.8921C23.1213 9.37254 23.1188 6.82894 22.8596 4.31063ZM9.08188 11.5721V4.50795L15.1969 8.03939L9.08188 11.5721Z" fill="white"/>
</svg>
