<svg width="30" height="25" viewBox="0 0 30 25" fill="none" xmlns="http://www.w3.org/2000/svg">
<path d="M0 24.2312V21.8306C0 21.1967 0.169173 20.6304 0.50752 20.1316C0.845866 19.6329 1.32325 19.2289 1.93966 18.9197C3.1229 18.3256 4.43642 17.8468 5.88023 17.4832C7.32404 17.1205 8.76687 16.9392 10.2087 16.9392C11.6506 16.9392 13.0929 17.1205 14.5358 17.4832C15.9786 17.8458 17.2921 18.3247 18.4763 18.9197C19.0928 19.2279 19.5701 19.6314 19.9085 20.1302C20.2478 20.6299 20.4175 21.1967 20.4175 21.8306V24.2312H0ZM1.45839 22.7728H18.9591V21.8306C18.9591 21.432 18.8453 21.1049 18.6178 20.8491C18.3903 20.5934 18.1113 20.3766 17.7807 20.1987C16.8677 19.7242 15.7249 19.3057 14.352 18.943C12.9782 18.5794 11.5966 18.3976 10.2073 18.3976C8.81791 18.3976 7.43682 18.5794 6.06399 18.943C4.69116 19.3067 3.54826 19.7252 2.63531 20.1987C2.30474 20.3766 2.0257 20.5934 1.7982 20.8491C1.57069 21.1058 1.45693 21.433 1.45693 21.8306L1.45839 22.7728ZM10.2087 13.687C8.95938 13.687 7.9176 13.2699 7.0834 12.4357C6.2492 11.6015 5.83259 10.5038 5.83356 9.14265H4.9629V8.02115H5.8321C5.87002 7.28223 6.02558 6.61137 6.29879 6.00857C6.57102 5.40382 7.01389 4.82776 7.62738 4.28038V6.22587H8.75034V3.75244C8.94966 3.67952 9.17571 3.61535 9.42849 3.55993C9.68128 3.50548 9.94136 3.47826 10.2087 3.47826C10.4761 3.47826 10.7357 3.50548 10.9875 3.55993C11.2393 3.61438 11.4659 3.67855 11.6671 3.75244V6.22587H12.7886V4.28038C13.4206 4.82776 13.8678 5.40334 14.1303 6.00711C14.3948 6.61088 14.5455 7.28223 14.5824 8.02115H15.4531V9.14411H14.5839C14.5839 10.5053 14.1668 11.6025 13.3326 12.4357C12.4984 13.2689 11.4571 13.686 10.2087 13.687ZM10.2087 12.2286C11.0478 12.2286 11.7434 11.952 12.2957 11.3988C12.8489 10.8465 13.1255 10.1504 13.1255 9.31036H7.29195C7.29195 10.1504 7.56807 10.8465 8.12032 11.3988C8.67256 11.951 9.3687 12.2286 10.2087 12.2286ZM21.2021 16.4346L21.0956 15.3962C20.9119 15.3476 20.7203 15.2698 20.521 15.1629C20.3217 15.0559 20.152 14.932 20.012 14.791L19.048 15.2125L18.4866 14.2353L19.3455 13.6184C19.3076 13.5086 19.2887 13.408 19.2887 13.3166V12.7245C19.2887 12.6418 19.3076 12.5358 19.3455 12.4065L18.4866 11.7896L19.048 10.814L20.012 11.2354C20.1472 11.1003 20.3154 10.9778 20.5166 10.8679C20.7189 10.7571 20.9119 10.6774 21.0956 10.6287L21.2021 9.59183H22.3236L22.43 10.6287C22.6138 10.6774 22.8063 10.7571 23.0076 10.8679C23.2098 10.9778 23.3785 11.1003 23.5136 11.2354L24.4776 10.814L25.0391 11.7911L24.1801 12.4065C24.218 12.5358 24.237 12.6418 24.237 12.7245V13.3166C24.237 13.408 24.218 13.5086 24.1801 13.6184L25.0391 14.2368L24.4776 15.2125L23.5122 14.791C23.3722 14.931 23.2025 15.055 23.0032 15.1629C22.8039 15.2698 22.6128 15.3476 22.43 15.3962L22.3236 16.4346H21.2021ZM21.7621 14.3316C22.1286 14.3316 22.4398 14.2033 22.6955 13.9466C22.9521 13.6909 23.0805 13.3798 23.0805 13.0132C23.0805 12.6467 22.9526 12.3356 22.6969 12.0798C22.4412 11.8241 22.1301 11.6958 21.7636 11.6948C21.397 11.6939 21.0854 11.8222 20.8287 12.0798C20.5721 12.3375 20.4437 12.6486 20.4437 13.0132C20.4437 13.3778 20.5721 13.6889 20.8287 13.9466C21.0854 14.2042 21.3965 14.3326 21.7621 14.3316ZM24.7241 8.52575L24.6001 7.38821C24.326 7.33279 24.0367 7.22244 23.7324 7.05715C23.429 6.89187 23.186 6.68964 23.0032 6.45046L21.9196 6.90402L21.2925 5.82773L22.2507 5.1277C22.202 4.98672 22.168 4.84234 22.1486 4.69456C22.1301 4.54678 22.1209 4.40288 22.1209 4.26288C22.1209 4.12287 22.1306 3.97898 22.15 3.83119C22.1695 3.68341 22.203 3.53951 22.2507 3.39951L21.291 2.69802L21.9196 1.62027L23.0017 2.07529C23.1855 1.83611 23.4295 1.63388 23.7338 1.4686C24.0372 1.30332 24.3264 1.19345 24.6016 1.139L24.7241 0H25.9812L26.1037 1.13754C26.3789 1.19296 26.6681 1.30332 26.9715 1.4686C27.2758 1.63388 27.5193 1.83611 27.7021 2.07529L28.7857 1.62027L29.4128 2.69802L28.4547 3.39805C28.5033 3.53903 28.5373 3.68341 28.5567 3.83119C28.5742 3.97898 28.583 4.12287 28.583 4.26288C28.583 4.40288 28.5738 4.54678 28.5553 4.69456C28.5368 4.84234 28.5033 4.98624 28.4547 5.12624L29.4143 5.82773L28.7857 6.90548L27.7036 6.45046C27.5198 6.68964 27.2763 6.89187 26.9729 7.05715C26.6686 7.22244 26.3794 7.3323 26.1052 7.38675L25.9812 8.52575H24.7241ZM25.3527 6.25358C25.9195 6.25358 26.393 6.0635 26.7731 5.68335C27.1533 5.30319 27.3434 4.8297 27.3434 4.26288C27.3434 3.69605 27.1533 3.22256 26.7731 2.8424C26.393 2.46225 25.9195 2.27169 25.3527 2.27071C24.7858 2.26974 24.3123 2.4603 23.9322 2.8424C23.552 3.2245 23.3615 3.69799 23.3605 4.26288C23.3595 4.82776 23.5501 5.30125 23.9322 5.68335C24.3143 6.06545 24.7878 6.25552 25.3527 6.25358Z" fill="#A9A9A9"/>
</svg>
