<svg width="40" height="40" viewBox="0 0 40 40" fill="none" xmlns="http://www.w3.org/2000/svg">
<path d="M8 8C8 6.89375 7.10625 6 6 6C4.89375 6 4 6.89375 4 8V29C4 31.7625 6.2375 34 9 34H34C35.1063 34 36 33.1063 36 32C36 30.8937 35.1063 30 34 30H9C8.45 30 8 29.55 8 29V8ZM33.4125 13.4125C34.1937 12.6313 34.1937 11.3625 33.4125 10.5813C32.6312 9.8 31.3625 9.8 30.5812 10.5813L24 17.1688L20.4125 13.5875C19.6313 12.8062 18.3625 12.8062 17.5812 13.5875L11.5813 19.5875C10.8 20.3687 10.8 21.6375 11.5813 22.4188C12.3625 23.2 13.6313 23.2 14.4125 22.4188L19 17.8312L22.5875 21.4188C23.3687 22.2 24.6375 22.2 25.4188 21.4188L33.4188 13.4187L33.4125 13.4125Z" fill="#1DD0D5"/>
</svg>
