<svg width="36" height="40" viewBox="0 0 36 40" fill="none" xmlns="http://www.w3.org/2000/svg">
<path fill-rule="evenodd" clip-rule="evenodd" d="M23.9173 12.4576L34.3689 31.5712C35.0109 32.7459 34.7613 34.1683 33.8489 35.0618L35.9021 38.8169C36.114 39.2047 35.9704 39.6908 35.5817 39.9022C35.1934 40.1137 34.7057 39.9708 34.4937 39.5831L32.4405 35.8279C31.1933 36.1096 29.859 35.5492 29.2166 34.3745L24.75 26.2054H20.3121V27.992C20.3121 28.5928 20.0727 29.1687 19.6472 29.5936C19.2212 30.0185 18.6439 30.2569 18.0416 30.2569H17.8755C17.2731 30.2569 16.6958 30.0185 16.2698 29.5936C15.8443 29.1687 15.6049 28.5928 15.6049 27.992V26.2054H11.2497L6.78311 34.3745C6.14071 35.5492 4.80638 36.1096 3.55922 35.8279L1.50597 39.5831C1.29402 39.9708 0.806694 40.1137 0.417977 39.9022C0.02926 39.6908 -0.113952 39.2047 0.0980014 38.8169L2.15124 35.0618C1.23837 34.1683 0.988777 32.7459 1.63118 31.5712L12.0402 12.5339C13.0063 14.3237 14.7641 15.6258 16.8451 15.9727L12.1249 24.6054H15.6049V22.8185C15.6049 22.2181 15.8443 21.6417 16.2698 21.2172C16.6958 20.7923 17.2731 20.5536 17.8755 20.5536H18.0416C18.6439 20.5536 19.2212 20.7923 19.6472 21.2172C20.0727 21.6417 20.3121 22.2181 20.3121 22.8185V24.6054H23.8752L19.1476 15.9597C21.2241 15.5891 22.9717 14.2646 23.9173 12.4576ZM17.9585 4.25635C15.1319 4.25635 12.8373 6.54493 12.8373 9.36413C12.8373 12.1837 15.1319 14.4727 17.9585 14.4727C20.7847 14.4727 23.0793 12.1837 23.0793 9.36413C23.0793 6.54493 20.7847 4.25635 17.9585 4.25635ZM15.6049 3.08777V2.34695C15.6049 1.7245 15.8529 1.12735 16.294 0.68735C16.7355 0.24694 17.3341 0 17.9581 0H17.9589C18.5833 0 19.1815 0.24694 19.623 0.68735C20.0641 1.12735 20.3121 1.7245 20.3121 2.34695V3.08777C19.5793 2.81389 18.7863 2.6645 17.9585 2.6645C17.1303 2.6645 16.3374 2.81389 15.6049 3.08777Z" fill="#1DD0D5"/>
</svg>
