<svg width="40" height="40" viewBox="0 0 40 40" fill="none" xmlns="http://www.w3.org/2000/svg">
<path d="M18.5312 4.3249C19.4625 3.89365 20.5375 3.89365 21.4688 4.3249L35.1312 10.6374C35.6625 10.8812 36 11.4124 36 11.9999C36 12.5874 35.6625 13.1187 35.1312 13.3624L21.4688 19.6749C20.5375 20.1062 19.4625 20.1062 18.5312 19.6749L4.86875 13.3624C4.3375 13.1124 4 12.5812 4 11.9999C4 11.4187 4.3375 10.8812 4.86875 10.6374L18.5312 4.3249ZM7.00625 17.6499L17.275 22.3937C19.0062 23.1937 21 23.1937 22.7313 22.3937L33 17.6499L35.1312 18.6374C35.6625 18.8812 36 19.4124 36 19.9999C36 20.5874 35.6625 21.1187 35.1312 21.3624L21.4688 27.6749C20.5375 28.1062 19.4625 28.1062 18.5312 27.6749L4.86875 21.3624C4.3375 21.1124 4 20.5812 4 19.9999C4 19.4187 4.3375 18.8812 4.86875 18.6374L7 17.6499H7.00625ZM4.86875 26.6374L7 25.6499L17.2687 30.3937C19 31.1937 20.9937 31.1937 22.725 30.3937L32.9938 25.6499L35.125 26.6374C35.6562 26.8812 35.9938 27.4124 35.9938 27.9999C35.9938 28.5874 35.6562 29.1187 35.125 29.3624L21.4625 35.6749C20.5312 36.1062 19.4562 36.1062 18.525 35.6749L4.86875 29.3624C4.3375 29.1124 4 28.5812 4 27.9999C4 27.4187 4.3375 26.8812 4.86875 26.6374Z" fill="#1DD0D5"/>
</svg>
