<svg width="50" height="40" viewBox="0 0 50 40" fill="none" xmlns="http://www.w3.org/2000/svg">
<path fill-rule="evenodd" clip-rule="evenodd" d="M7.26723 15.3241H12.8759C13.3918 15.3241 13.897 15.3789 14.381 15.48C14.0605 16.3542 13.8864 17.2978 13.8864 18.2731V23.558C13.12 25.1483 12.6912 26.9346 12.6912 28.8156C12.6912 29.2895 12.7188 29.7529 12.7718 30.2121L1.98281 30.2142C0.889503 30.2142 0 29.3295 0 28.2468V22.5299C0 18.5614 3.2672 15.3197 7.26678 15.3197L7.26723 15.3241ZM25.0002 17.6433C18.778 17.6433 13.734 22.648 13.734 28.8216C13.734 34.9952 18.7781 40 25.0002 40C31.2223 40 36.2664 34.9952 36.2664 28.8216C36.2664 22.648 31.2223 17.6433 25.0002 17.6433ZM17.7057 30.0036C17.2005 29.4707 17.2281 28.6345 17.7652 28.1331C18.3023 27.6318 19.1451 27.6592 19.6504 28.1921L22.1724 30.8609L29.1397 23.9479C29.662 23.4297 30.509 23.4297 31.0313 23.9479C31.5535 24.4661 31.5535 25.3065 31.0313 25.8247L23.0852 33.7089C22.5417 34.2376 21.684 34.2165 21.1661 33.6773L17.7035 30.01L17.7057 30.0036ZM25.0002 0C27.7728 0 30.021 2.23276 30.021 4.98163C30.021 7.73259 27.7707 9.96325 25.0002 9.96325C22.2276 9.96325 19.9795 7.73049 19.9795 4.98163C19.9795 2.23066 22.2298 0 25.0002 0ZM39.9289 4.96054C42.504 4.96054 44.5972 7.03746 44.5972 9.59247C44.5972 12.1475 42.504 14.2244 39.9289 14.2244C37.3538 14.2244 35.2606 12.1475 35.2606 9.59247C35.2606 7.03746 37.3538 4.96054 39.9289 4.96054ZM10.0716 4.96054C12.6467 4.96054 14.7399 7.03746 14.7399 9.59247C14.7399 12.1475 12.6466 14.2244 10.0716 14.2244C7.49647 14.2244 5.40322 12.1475 5.40322 9.59247C5.40322 7.03746 7.49647 4.96054 10.0716 4.96054ZM22.1959 11.0712H27.8045C31.8042 11.0712 35.0713 14.3129 35.0713 18.2813V21.7968C32.8422 18.6583 29.1632 16.6088 25.0002 16.6088C20.8372 16.6088 17.1579 18.6583 14.9291 21.7968V18.2813C14.9291 14.3128 18.1963 11.0712 22.1959 11.0712ZM37.1246 15.324H42.7332C46.7329 15.324 50 18.5657 50 22.5341V28.2511C50 29.3358 49.1084 30.2184 48.0172 30.2184H37.2282C37.2834 29.7592 37.3088 29.2958 37.3088 28.8219C37.3088 26.9409 36.88 25.1547 36.1136 23.5644V18.2794C36.1136 17.2978 35.9395 16.3605 35.619 15.4863C36.103 15.3831 36.6083 15.3305 37.1241 15.3305L37.1246 15.324Z" fill="#1DD0D5"/>
</svg>
