<svg width="46" height="40" viewBox="0 0 46 40" fill="none" xmlns="http://www.w3.org/2000/svg">
<path fill-rule="evenodd" clip-rule="evenodd" d="M36.7199 32.2411C36.608 32.1531 36.5358 32.0246 36.5192 31.8838C36.5026 31.7429 36.543 31.6013 36.6315 31.4901C36.72 31.3788 36.8493 31.3071 36.991 31.2906C37.1327 31.2741 37.2752 31.3143 37.3872 31.4022L41.4973 34.6244C41.6044 34.7138 41.6722 34.8412 41.6863 34.9794C41.7005 35.1177 41.6599 35.256 41.5732 35.365C41.4865 35.4741 41.3604 35.5452 41.2218 35.5635C41.0832 35.5817 40.9428 35.5456 40.8305 35.4628L36.7199 32.2411ZM43.8477 27.7087C43.917 27.7255 43.9889 27.7285 44.0593 27.7175C44.1298 27.7064 44.1974 27.6817 44.2581 27.6445C44.3188 27.6074 44.3716 27.5587 44.4133 27.5012C44.4549 27.4436 44.4847 27.3785 44.5009 27.3095C44.5171 27.2404 44.5193 27.1689 44.5075 27.099C44.4957 27.0291 44.47 26.9623 44.432 26.9023C44.394 26.8423 44.3445 26.7904 44.2862 26.7496C44.2278 26.7088 44.162 26.6799 44.0924 26.6645L38.9946 25.4819C38.8553 25.4496 38.7087 25.4736 38.5872 25.5487C38.4657 25.6237 38.3791 25.7437 38.3466 25.8822C38.3141 26.0206 38.3383 26.1663 38.4138 26.287C38.4893 26.4078 38.6101 26.4938 38.7494 26.5261L43.8477 27.7087ZM32.987 39.626C33.0085 39.6941 33.0436 39.7572 33.0901 39.8116C33.1367 39.866 33.1937 39.9106 33.2578 39.9427C33.322 39.9749 33.3919 39.9939 33.4636 39.9988C33.5353 40.0036 33.6072 39.9941 33.6751 39.9709C33.7431 39.9476 33.8056 39.9111 33.8591 39.8635C33.9126 39.8158 33.956 39.758 33.9866 39.6934C34.0172 39.6288 34.0345 39.5588 34.0375 39.4875C34.0404 39.4162 34.029 39.345 34.0038 39.2781L32.291 34.3626C32.2419 34.2321 32.1434 34.1259 32.0166 34.0665C31.8898 34.0071 31.7447 33.9992 31.6121 34.0445C31.4796 34.0899 31.3701 34.1849 31.307 34.3093C31.2438 34.4336 31.2321 34.5776 31.2742 34.7105L32.987 39.626ZM14.8655 29.009C16.1392 30.0579 17.653 30.7793 19.2735 31.1098L19.7838 27.704C18.7897 27.473 17.8635 27.0151 17.0786 26.3664C16.3088 25.7322 15.6979 24.9286 15.2943 24.0194L12.0143 25.1418C12.6284 26.6453 13.608 27.974 14.8655 29.009ZM31.7594 24.7219L30.705 25.0848C30.5696 25.1309 30.4213 25.1217 30.2927 25.0592C30.1642 24.9967 30.0658 24.886 30.0194 24.7514C29.973 24.6169 29.9823 24.4695 30.0452 24.3417C30.1081 24.214 30.2195 24.1163 30.3549 24.0702L39.2847 21.0123C41.7816 20.1578 43.8347 18.3527 44.9924 15.994C46.15 13.6352 46.3173 10.9161 45.4574 8.43476C44.5976 5.95344 42.7811 3.91317 40.4075 2.7628C38.0339 1.61242 35.2977 1.44618 32.8007 2.30062L21.7173 6.09263C19.9506 6.69562 18.3923 7.78416 17.2232 9.23189C16.2311 10.4591 15.544 11.9014 15.2176 13.4418L18.4252 12.3442C18.764 12.2288 19.1043 12.1304 19.4462 12.0492C19.8157 11.4554 20.2794 10.9249 20.8194 10.4783C21.4199 9.98134 22.1063 9.59713 22.8452 9.3444L33.9287 5.55239C35.5517 5.01935 37.3207 5.14346 38.8523 5.8978C40.3838 6.65215 41.5545 7.97595 42.1105 9.58223C42.6665 11.1885 42.563 12.9478 41.8225 14.4788C41.082 16.0098 39.7642 17.1891 38.1546 17.761L27.0733 21.5525C26.1814 21.8577 25.2329 21.9639 24.2951 21.8636L24.0248 25.2787C24.6725 25.3246 25.3228 25.318 25.9693 25.259C26.7288 25.1947 27.478 25.0413 28.2012 24.8022L28.4506 24.7167C28.5855 24.6729 28.7322 24.6836 28.8592 24.7465C28.9861 24.8094 29.0831 24.9194 29.1291 25.0528C29.1751 25.1862 29.1664 25.3322 29.105 25.4592C29.0435 25.5863 28.9342 25.6842 28.8007 25.7318L28.5513 25.8168C28.219 25.9297 27.8806 26.0238 27.5376 26.0989C26.755 27.3713 25.5504 28.3326 24.1313 28.8172L20.5225 30.0542L20.2617 31.8113C20.2514 31.881 20.2275 31.948 20.1912 32.0085C20.1549 32.069 20.107 32.1218 20.0502 32.1638C19.9933 32.2059 19.9287 32.2365 19.86 32.2537C19.7913 32.271 19.7198 32.2746 19.6497 32.2644H19.6471H19.6293C18.6015 32.1101 17.6005 31.8134 16.6555 31.383L13.053 32.6154C11.4224 33.1695 9.63734 33.0588 8.08868 32.3077C6.54002 31.5565 5.35405 30.2261 4.79052 28.6077C4.23446 26.9887 4.34605 25.2167 5.10089 23.6792C5.85572 22.1416 7.1924 20.9636 8.81873 20.4026L19.9022 16.6111C21.4431 16.0888 23.1249 16.1587 24.6165 16.8069C26.1082 17.4552 27.3016 18.6349 27.9618 20.1138L31.2418 18.9913C30.2765 16.6507 28.4486 14.7646 26.1312 13.7179C23.8139 12.6712 21.1819 12.543 18.7727 13.3593L7.69077 17.1498C5.19881 18.0114 3.15112 19.8178 1.99483 22.1745C0.838547 24.5313 0.667599 27.247 1.51932 29.7286C2.3859 32.205 4.2033 34.24 6.57465 35.3892C8.946 36.5385 11.6786 36.7086 14.1758 35.8625L25.2592 32.071C27.0259 31.468 28.5842 30.3795 29.7533 28.9317C30.7455 27.7045 31.4328 26.2623 31.7594 24.7219ZM4.77069 3.52522C4.67056 3.42766 4.53611 3.37272 4.39588 3.37206C4.25566 3.37141 4.12069 3.4251 4.01965 3.52173C3.91861 3.61836 3.85945 3.75032 3.85473 3.88959C3.85001 4.02887 3.9001 4.16448 3.99437 4.26765L7.63181 8.00885C7.73133 8.10925 7.86667 8.16663 8.00847 8.16853C8.15028 8.17044 8.28713 8.11672 8.38935 8.01903C8.49156 7.92134 8.55091 7.78755 8.55453 7.64666C8.55814 7.50578 8.50573 7.36916 8.40866 7.26642L4.77069 3.52522ZM0.73204 10.8064C0.665753 10.7814 0.59515 10.7696 0.52426 10.7716C0.45337 10.7737 0.383583 10.7896 0.318883 10.8185C0.254183 10.8473 0.195837 10.8886 0.147176 10.9398C0.0985157 10.9911 0.0604934 11.0514 0.0352804 11.1173C0.0100674 11.1831 -0.00184232 11.2533 0.0002308 11.3237C0.00230392 11.3942 0.0183194 11.4635 0.047363 11.5278C0.0764066 11.5921 0.117909 11.6501 0.169502 11.6985C0.221094 11.7468 0.281766 11.7846 0.348053 11.8097L5.24024 13.6621C5.37308 13.7085 5.5189 13.7015 5.64661 13.6426C5.77432 13.5836 5.87382 13.4775 5.92389 13.3467C5.97397 13.2159 5.97067 13.0709 5.91469 12.9425C5.85872 12.8141 5.75449 12.7125 5.62423 12.6594L0.73204 10.8064ZM13.1021 0.445579C13.0901 0.375116 13.064 0.307751 13.0254 0.24747C12.9868 0.187189 12.9364 0.135215 12.8772 0.0946208C12.8181 0.0540267 12.7513 0.0256368 12.6809 0.0111301C12.6105 -0.00337669 12.5378 -0.00370583 12.4673 0.010162C12.3967 0.0240298 12.3297 0.0518128 12.2702 0.0918687C12.2106 0.131925 12.1597 0.18344 12.1206 0.243369C12.0814 0.303297 12.0547 0.370422 12.0421 0.440774C12.0295 0.511127 12.0312 0.583278 12.0471 0.652963L13.0802 5.75304C13.1082 5.89205 13.1906 6.01431 13.3094 6.09292C13.4281 6.17153 13.5734 6.20005 13.7133 6.17221C13.8532 6.14436 13.9762 6.06244 14.0553 5.94445C14.1344 5.82646 14.1631 5.68208 14.1351 5.54306L13.1021 0.445579Z" fill="#1DD0D5"/>
</svg>
