<svg width="40" height="40" viewBox="0 0 40 40" fill="none" xmlns="http://www.w3.org/2000/svg">
<path d="M11.2947 6.1125C11.576 5.73125 12.026 5.5 12.501 5.5H27.501C27.976 5.5 28.426 5.725 28.7072 6.1125L35.7072 15.6125C36.1322 16.1875 36.0885 16.9813 35.6135 17.5125L21.1135 33.5125C20.8322 33.825 20.426 34.0062 20.001 34.0062C19.576 34.0062 19.176 33.825 18.8885 33.5125L4.3885 17.5125C3.90725 16.9813 3.86975 16.1875 4.29475 15.6125L11.2947 6.1125ZM13.701 8.6C13.4948 8.75625 13.4385 9.0375 13.5698 9.25625L17.1573 15.2375L7.95725 16C7.701 16.0188 7.501 16.2375 7.501 16.5C7.501 16.7625 7.701 16.975 7.95725 17L19.9572 18C19.9822 18 20.0135 18 20.0385 18L32.0385 17C32.2947 16.9812 32.4948 16.7625 32.4948 16.5C32.4948 16.2375 32.2947 16.025 32.0385 16L22.8385 15.2312L26.426 9.25625C26.5572 9.0375 26.501 8.75 26.2948 8.6C26.0885 8.45 25.801 8.475 25.626 8.6625L20.001 14.7625L14.3698 8.6625C14.1947 8.475 13.9073 8.45 13.701 8.6Z" fill="#1DD0D5"/>
</svg>
