<svg width="50" height="50" viewBox="0 0 50 50" fill="none" xmlns="http://www.w3.org/2000/svg">
<path fill-rule="evenodd" clip-rule="evenodd" d="M28.6772 18.4695C29.5624 18.3255 30.3986 18.0355 31.1663 17.6153C32.4236 16.9247 33.487 15.881 34.2547 14.5434C34.3997 14.2928 34.3135 13.9693 34.0628 13.8252C33.8141 13.6792 33.4929 13.766 33.3499 14.0186C32.6782 15.1885 31.7558 16.0981 30.6669 16.6959C29.8875 17.124 29.0199 17.3963 28.0994 17.491C28.1719 17.6192 28.2463 17.7474 28.3266 17.8717C28.45 18.0651 28.5675 18.2643 28.6772 18.4695ZM47.4663 18.4695C47.5878 18.3472 47.7875 18.3472 47.9089 18.4695C48.0304 18.5919 48.0304 18.7931 47.9089 18.9154C47.1373 19.6928 46.2188 20.2116 45.2279 20.4524C44.6364 20.5964 44.0235 20.6398 43.4026 20.5826C43.3674 20.4346 43.3263 20.2866 43.2793 20.1406C43.2577 20.0696 43.2362 19.9986 43.2166 19.9256C43.8511 20.0183 44.4817 19.9867 45.083 19.8407C45.9584 19.6277 46.777 19.164 47.4663 18.4695ZM43.6807 14.6578C43.8022 14.5355 44.0019 14.5355 44.1233 14.6578C44.2448 14.7801 44.2448 14.9814 44.1233 15.1037C43.8903 15.3385 43.6847 15.587 43.5064 15.8475L45.5921 17.9487C45.7136 18.071 45.7136 18.2723 45.5921 18.3946C45.4707 18.5169 45.271 18.5169 45.1495 18.3946L43.1735 16.4039C43.0364 16.6702 42.9248 16.9464 42.8386 17.2286L44.1958 18.5958C44.3172 18.7181 44.3172 18.9194 44.1958 19.0417C44.0744 19.164 43.8746 19.164 43.7532 19.0417L42.6761 17.9566C42.5684 18.7063 42.635 19.4896 42.8817 20.2669C43.1755 21.1883 43.2401 22.1353 43.0678 23.0093C42.8993 23.8636 42.5077 24.6488 41.8849 25.2762C41.2601 25.9056 40.4807 26.3002 39.6347 26.4679C38.9845 26.5981 38.2932 26.5922 37.6038 26.458C37.5705 26.2312 37.5274 26.0062 37.4687 25.7833C38.0307 25.9214 38.5967 25.9629 39.1372 25.9056L36.7402 23.4908C36.6697 24.1537 36.746 24.8541 36.9654 25.5387C37.2983 26.5863 37.3355 27.6478 37.0966 28.6421C36.8577 29.6385 36.3426 30.5658 35.571 31.3431C35.4496 31.4654 35.2498 31.4654 35.1284 31.3431C35.007 31.2208 35.007 31.0196 35.1284 30.8972C35.3614 30.6625 35.5671 30.4139 35.7453 30.1534L33.6576 28.0502C33.5362 27.9279 33.5362 27.7267 33.6576 27.6043C33.779 27.482 33.9788 27.482 34.1002 27.6043L36.0782 29.597C36.2153 29.3307 36.3269 29.0545 36.4131 28.7723L35.054 27.4031C34.9325 27.2808 34.9325 27.0796 35.054 26.9572C35.1754 26.8349 35.3751 26.8349 35.4966 26.9572L36.5737 28.0423C36.6814 27.2926 36.6148 26.5093 36.368 25.732C36.0743 24.8107 36.0096 23.8637 36.182 22.9896C36.3504 22.1353 36.7421 21.3501 37.3649 20.7227C37.9896 20.0933 38.7691 19.6988 39.6151 19.531C40.2653 19.4008 40.9566 19.4067 41.646 19.5409C41.6793 19.7678 41.7243 19.9927 41.7811 20.2156C41.2327 20.0795 40.6824 20.0381 40.1537 20.0894L42.5135 22.4667C42.5762 21.8156 42.4978 21.1311 42.2844 20.4602C41.9515 19.4126 41.9142 18.3511 42.1532 17.3568C42.396 16.3604 42.9111 15.4352 43.6807 14.6578ZM36.8869 22.7471L39.8774 25.7597C40.3689 25.6137 40.8272 25.3711 41.2228 25.0337L37.6076 21.3916C37.2727 21.7922 37.0338 22.2518 36.8869 22.7471ZM38.0541 20.9477L41.6654 24.5858C41.9983 24.1833 42.2333 23.7197 42.3763 23.2186L39.4113 20.2315C38.9138 20.3756 38.4536 20.6123 38.0541 20.9477ZM36.037 26.0773C36.0174 26.0062 35.9959 25.9332 35.9743 25.8622C35.9273 25.7162 35.8862 25.5682 35.8509 25.4203C35.2301 25.3611 34.6152 25.4065 34.0257 25.5505C33.0367 25.7912 32.1163 26.3101 31.3447 27.0874C31.2232 27.2098 31.2232 27.411 31.3447 27.5333C31.4661 27.6556 31.6658 27.6556 31.7872 27.5333C32.4766 26.8388 33.2952 26.3752 34.1706 26.1621C34.7718 26.0142 35.4005 25.9845 36.037 26.0773ZM17.2128 18.4698C17.3342 18.3475 17.5339 18.3475 17.6554 18.4698C17.7768 18.5922 17.7768 18.7934 17.6554 18.9157C16.8837 19.6931 15.9653 20.2119 14.9743 20.4527C14.3828 20.5967 13.7699 20.6401 13.1491 20.5829C13.1138 20.4349 13.0727 20.2869 13.0257 20.1409C13.0041 20.0699 12.9826 19.9989 12.963 19.9259C13.5975 20.0186 14.2281 19.987 14.8294 19.8411C15.7048 19.628 16.5234 19.1643 17.2128 18.4698ZM13.4291 14.6581C12.6575 15.4355 12.1425 16.3608 11.9035 17.3591C11.6646 18.3554 11.7018 19.4149 12.0347 20.4625C12.2482 21.1353 12.3265 21.8199 12.2639 22.469L9.90399 20.0916C10.4328 20.0403 10.9831 20.0837 11.5314 20.2179C11.4746 19.995 11.4296 19.77 11.3963 19.5432C10.705 19.409 10.0156 19.4031 9.36543 19.5333C8.51744 19.703 7.73799 20.0976 7.11522 20.725C6.49048 21.3544 6.09883 22.1396 5.93233 22.9919C5.76195 23.8659 5.82657 24.811 6.11837 25.7343C6.36513 26.5117 6.42976 27.2949 6.32401 28.0446L5.24691 26.9595C5.12548 26.8372 4.92573 26.8372 4.80431 26.9595C4.68289 27.0818 4.68289 27.2831 4.80431 27.4054L6.16342 28.7746C6.07725 29.0567 5.96562 29.333 5.82853 29.5993L3.85055 27.6066C3.72913 27.4843 3.52938 27.4843 3.40795 27.6066C3.28653 27.7289 3.28653 27.9302 3.40795 28.0525L5.49563 30.1557C5.31742 30.4161 5.10983 30.6647 4.87872 30.8995C4.7573 31.0218 4.7573 31.2231 4.87872 31.3454C5.00014 31.4677 5.19989 31.4677 5.32132 31.3454C6.09295 30.568 6.60798 29.6427 6.84693 28.6444C7.08585 27.648 7.04864 26.5886 6.71571 25.541C6.49833 24.8544 6.42195 24.156 6.4905 23.4931L8.88756 25.9079C8.34705 25.9651 7.78107 25.9237 7.21901 25.7856C7.2758 26.0085 7.32084 26.2334 7.35414 26.4603C8.04545 26.5945 8.73481 26.6004 9.38501 26.4702C10.233 26.3005 11.0124 25.9059 11.6352 25.2785C12.26 24.6491 12.6516 23.8639 12.8181 23.0116C12.9885 22.1376 12.9239 21.1925 12.6321 20.2692C12.3853 19.4918 12.3207 18.7086 12.4264 17.9589L13.5035 19.044C13.625 19.1663 13.8247 19.1663 13.9461 19.044C14.0676 18.9217 14.0676 18.7204 13.9461 18.5981L12.589 17.2309C12.6751 16.9487 12.7868 16.6725 12.9239 16.4062L14.8999 18.3969C15.0213 18.5192 15.2211 18.5192 15.3425 18.3969C15.4639 18.2745 15.4639 18.0733 15.3425 17.951L13.2568 15.8498C13.435 15.5894 13.6426 15.3408 13.8737 15.106C13.9951 14.9836 13.9951 14.7824 13.8737 14.6601C13.7483 14.5338 13.5505 14.5338 13.4291 14.6581ZM6.63531 22.7474C6.78023 22.2522 7.02112 21.7905 7.356 21.3919L10.9712 25.034C10.5756 25.3714 10.1173 25.614 9.62577 25.76L6.63531 22.7474ZM7.80055 20.948C8.20007 20.6126 8.66027 20.3759 9.15771 20.2318L12.1227 23.2189C11.9817 23.7181 11.7448 24.1817 11.4118 24.5861L7.80055 20.948ZM5.78342 26.0776C5.14891 25.9848 4.51831 26.0164 3.91704 26.1624C3.04163 26.3755 2.22302 26.8391 1.53366 27.5336C1.41224 27.6559 1.21249 27.6559 1.09107 27.5336C0.969644 27.4113 0.969644 27.21 1.09107 27.0877C1.8627 26.3103 2.78117 25.7915 3.77214 25.5508C4.36358 25.4067 4.97654 25.3633 5.59736 25.4205C5.63261 25.5685 5.67374 25.7165 5.72074 25.8625C5.74228 25.9335 5.76383 26.0046 5.78342 26.0776ZM22.9702 28.4767C22.8233 28.1235 22.651 27.7783 22.4571 27.4448C23.3365 27.4428 24.1786 27.283 24.9365 26.9752L20.865 24.6057C20.9962 25.539 21.3506 26.4741 21.9029 27.3363C22.7332 28.6364 23.168 30.0668 23.2033 31.5071C23.2386 32.9493 22.8723 34.3994 22.1066 35.7371C21.9617 35.9876 21.6425 36.0744 21.3937 35.9304C21.145 35.7844 21.0588 35.4628 21.2018 35.2122C21.4525 34.7743 21.6542 34.3244 21.8069 33.8687L18.3445 31.8543C18.1957 31.7675 18.1448 31.5741 18.2309 31.4242C18.3171 31.2742 18.509 31.2229 18.6579 31.3097L21.9832 33.2452C22.1007 32.746 22.1595 32.2429 22.1634 31.7398L19.9896 30.4751C19.8407 30.3883 19.7898 30.195 19.876 30.045C19.9622 29.8951 20.1541 29.8438 20.3029 29.9306L22.1262 30.9901C22.0146 29.9247 21.6464 28.8751 21.0256 27.9044C20.2951 26.7601 19.8642 25.4974 19.782 24.2426C19.7017 23.0174 19.9504 21.8041 20.5751 20.717C21.1979 19.6299 22.1164 18.8032 23.2111 18.2626C24.065 17.8404 25.0246 17.5898 26.0312 17.5247C26.1781 17.8779 26.3504 18.2232 26.5443 18.5566C25.6865 18.5586 24.862 18.7105 24.1179 19.0045L28.1267 21.3365C27.9896 20.423 27.6371 19.5076 27.0985 18.6631C26.2682 17.363 25.8334 15.9326 25.7981 14.4923C25.7629 13.0521 26.1291 11.6039 26.8968 10.2623C27.0398 10.0118 27.359 9.92496 27.6077 10.071C27.8564 10.215 27.9426 10.5366 27.7977 10.7872C27.547 11.2251 27.3453 11.675 27.1925 12.1327L30.655 14.1471C30.8038 14.2339 30.8547 14.4273 30.7686 14.5772C30.6824 14.7272 30.4905 14.7785 30.3416 14.6916L27.0163 12.7562C26.9007 13.2534 26.84 13.7585 26.8381 14.2616L29.0099 15.5243C29.1588 15.6111 29.2097 15.8044 29.1235 15.9544C29.0373 16.1043 28.8454 16.1556 28.6966 16.0688L26.8753 15.0093C26.9869 16.0747 27.3551 17.1243 27.9759 18.095C28.7063 19.2393 29.1372 20.502 29.2195 21.7568C29.2998 22.982 29.0511 24.1953 28.4283 25.2824C27.8055 26.3695 26.887 27.1962 25.7923 27.7368C24.9365 28.161 23.9768 28.4116 22.9702 28.4767ZM23.4265 19.3323C22.7176 19.7289 22.1085 20.2714 21.6522 20.956L27.682 24.4639C28.0403 23.7241 28.2049 22.9211 28.1892 22.1043L23.4265 19.3323ZM21.3369 21.4986C20.9707 22.2325 20.8003 23.0316 20.8081 23.8464L25.62 26.6441C26.323 26.2436 26.9243 25.6951 27.3727 25.0085L21.3369 21.4986ZM20.3225 27.5317C20.4321 27.7369 20.5496 27.9382 20.675 28.1335C20.7553 28.2578 20.8297 28.384 20.9022 28.5143C19.9817 28.609 19.1141 28.8812 18.3347 29.3093C17.2478 29.9071 16.3234 30.8147 15.6517 31.9866C15.5067 32.2372 15.1875 32.324 14.9388 32.18C14.6901 32.034 14.6039 31.7124 14.7469 31.4618C15.5145 30.1242 16.5779 29.0805 17.8353 28.39C18.601 27.9658 19.4373 27.6757 20.3225 27.5317Z" fill="black"/>
</svg>
