<svg width="133" height="123" viewBox="0 0 133 123" fill="none" xmlns="http://www.w3.org/2000/svg">
<g filter="url(#filter0_d_9137_8886)">
<circle cx="46.2672" cy="21.4192" r="5.41895" transform="rotate(-57.3599 46.2672 21.4192)" fill="#30BABA"/>
<circle cx="25.4188" cy="57.1172" r="5.41895" transform="rotate(-119.775 25.4188 57.1172)" fill="#30BABA"/>
<circle cx="46.0306" cy="92.7443" r="5.41895" transform="rotate(-179.055 46.0306 92.7443)" fill="#30BABA"/>
<circle cx="86.7723" cy="92.6161" r="5.41895" transform="rotate(120.606 86.7723 92.6161)" fill="#30BABA"/>
<circle cx="107.183" cy="56.7475" r="5.41895" transform="rotate(60.7085 107.183 56.7475)" fill="#30BABA"/>
<circle cx="54.8297" cy="32.6184" r="5.41895" transform="rotate(-57.3599 54.8297 32.6184)" fill="#30BABA"/>
<circle cx="39.3173" cy="54.7168" r="5.41895" transform="rotate(-119.775 39.3173 54.7168)" fill="#30BABA"/>
<circle cx="51.054" cy="79.5803" r="5.41895" transform="rotate(-179.055 51.054 79.5803)" fill="#30BABA"/>
<circle cx="77.827" cy="81.7254" r="5.41895" transform="rotate(120.606 77.827 81.7254)" fill="#30BABA"/>
<circle cx="93.2767" cy="59.0297" r="5.41895" transform="rotate(60.7085 93.2767 59.0297)" fill="#30BABA"/>
<circle cx="43.7828" cy="40.9211" r="5.41895" transform="rotate(-57.3599 43.7828 40.9211)" fill="#30BABA"/>
<circle cx="41.5516" cy="68.3466" r="5.41895" transform="rotate(-119.775 41.5516 68.3466)" fill="#30BABA"/>
<circle cx="63.9134" cy="84.6066" r="5.41895" transform="rotate(-179.055 63.9134 84.6066)" fill="#30BABA"/>
<circle cx="88.5692" cy="73.0369" r="5.41895" transform="rotate(120.606 88.5692 73.0369)" fill="#30BABA"/>
<circle cx="91.1439" cy="45.3832" r="5.41895" transform="rotate(60.7085 91.1439 45.3832)" fill="#30BABA"/>
<circle cx="63.7125" cy="43.3147" r="5.41895" transform="rotate(-57.3599 63.7125 43.3147)" fill="#30BABA"/>
<circle cx="52.8876" cy="51.7988" r="5.41895" transform="rotate(-119.775 52.8876 51.7988)" fill="#30BABA"/>
<circle cx="55.4837" cy="66.4064" r="5.41895" transform="rotate(-179.055 55.4837 66.4064)" fill="#30BABA"/>
<circle cx="68.577" cy="71.3563" r="5.41895" transform="rotate(120.606 68.577 71.3563)" fill="#30BABA"/>
<circle cx="79.6517" cy="61.8324" r="5.41895" transform="rotate(60.7085 79.6517 61.8324)" fill="#30BABA"/>
<circle cx="86.5674" cy="21.46" r="5.35505" fill="#30BABA" stroke="#30BABA" stroke-width="0.127806"/>
<circle cx="81.7549" cy="34.708" r="5.35505" fill="#30BABA" stroke="#30BABA" stroke-width="0.127806"/>
<circle cx="68.8096" cy="29.5889" r="5.35505" fill="#30BABA" stroke="#30BABA" stroke-width="0.127806"/>
<circle cx="77.5283" cy="47.9531" r="5.35505" fill="#30BABA" stroke="#30BABA" stroke-width="0.127806"/>
<line x1="73.0512" y1="29.0776" x2="83.287" y2="23.6587" stroke="#30BABA" stroke-width="1.15025"/>
<line x1="70.2096" y1="34.4466" x2="75.3945" y2="44.8029" stroke="#30BABA" stroke-width="1.15025"/>
<circle cx="46.0463" cy="21.673" r="5.35505" transform="rotate(-58.7242 46.0463 21.673)" fill="#30BABA" stroke="#30BABA" stroke-width="0.127806"/>
<circle cx="54.8588" cy="32.6672" r="5.35505" transform="rotate(-58.7242 54.8588 32.6672)" fill="#30BABA" stroke="#30BABA" stroke-width="0.127806"/>
<circle cx="44.0151" cy="41.2316" r="5.35505" transform="rotate(-58.7242 44.0151 41.2316)" fill="#30BABA" stroke="#30BABA" stroke-width="0.127806"/>
<circle cx="63.9916" cy="43.1476" r="5.35505" transform="rotate(-58.7242 63.9916 43.1476)" fill="#30BABA" stroke="#30BABA" stroke-width="0.127806"/>
<line x1="45.5274" y1="37.1819" x2="46.21" y2="25.6203" stroke="#30BABA" stroke-width="1.15025"/>
<line x1="48.6485" y1="42.3877" x2="60.1916" y2="43.3328" stroke="#30BABA" stroke-width="1.15025"/>
<circle cx="25.5505" cy="57.2287" r="5.35505" transform="rotate(-119.965 25.5505 57.2287)" fill="#30BABA" stroke="#30BABA" stroke-width="0.127806"/>
<circle cx="39.4333" cy="54.7863" r="5.35505" transform="rotate(-119.965 39.4333 54.7863)" fill="#30BABA" stroke="#30BABA" stroke-width="0.127806"/>
<circle cx="41.7146" cy="68.4044" r="5.35505" transform="rotate(-119.965 41.7146 68.4044)" fill="#30BABA" stroke="#30BABA" stroke-width="0.127806"/>
<circle cx="53.0114" cy="51.8214" r="5.35505" transform="rotate(-119.965 53.0114 51.8214)" fill="#30BABA" stroke="#30BABA" stroke-width="0.127806"/>
<line x1="38.8972" y1="65.1286" x2="29.0901" y2="58.9676" stroke="#30BABA" stroke-width="1.15025"/>
<line x1="44.9732" y1="64.9028" x2="51.3555" y2="55.2383" stroke="#30BABA" stroke-width="1.15025"/>
<circle cx="46.3251" cy="92.8911" r="5.35505" transform="rotate(-179.079 46.3251 92.8911)" fill="#30BABA" stroke="#30BABA" stroke-width="0.127806"/>
<circle cx="51.3486" cy="79.7251" r="5.35505" transform="rotate(-179.079 51.3486 79.7251)" fill="#30BABA" stroke="#30BABA" stroke-width="0.127806"/>
<circle cx="64.2158" cy="84.7485" r="5.35505" transform="rotate(-179.079 64.2158 84.7485)" fill="#30BABA" stroke="#30BABA" stroke-width="0.127806"/>
<circle cx="55.7783" cy="66.5474" r="5.35505" transform="rotate(-179.079 55.7783 66.5474)" fill="#30BABA" stroke="#30BABA" stroke-width="0.127806"/>
<line x1="59.9484" y1="85.4901" x2="49.6268" y2="90.7438" stroke="#30BABA" stroke-width="1.15025"/>
<line x1="62.8801" y1="80.1671" x2="57.8624" y2="69.7288" stroke="#30BABA" stroke-width="1.15025"/>
<circle cx="86.6602" cy="92.6874" r="5.35505" transform="rotate(121.665 86.6602 92.6874)" fill="#30BABA" stroke="#30BABA" stroke-width="0.127806"/>
<circle cx="77.9102" cy="81.6318" r="5.35505" transform="rotate(121.665 77.9102 81.6318)" fill="#30BABA" stroke="#30BABA" stroke-width="0.127806"/>
<circle cx="88.8165" cy="73.1445" r="5.35505" transform="rotate(121.665 88.8165 73.1445)" fill="#30BABA" stroke="#30BABA" stroke-width="0.127806"/>
<circle cx="68.8243" cy="71.0644" r="5.35505" transform="rotate(121.665 68.8243 71.0644)" fill="#30BABA" stroke="#30BABA" stroke-width="0.127806"/>
<line x1="87.2614" y1="77.1814" x2="86.5003" y2="88.738" stroke="#30BABA" stroke-width="1.15025"/>
<line x1="84.1835" y1="71.9557" x2="72.6471" y2="70.9321" stroke="#30BABA" stroke-width="1.15025"/>
<circle cx="106.921" cy="57.0981" r="5.35505" transform="rotate(61.2904 106.921 57.0981)" fill="#30BABA" stroke="#30BABA" stroke-width="0.127806"/>
<circle cx="93.0066" cy="59.2377" r="5.35505" transform="rotate(61.2904 93.0066 59.2377)" fill="#30BABA" stroke="#30BABA" stroke-width="0.127806"/>
<circle cx="91.0144" cy="45.5678" r="5.35505" transform="rotate(61.2904 91.0144 45.5678)" fill="#30BABA" stroke="#30BABA" stroke-width="0.127806"/>
<circle cx="79.3581" cy="61.9028" r="5.35505" transform="rotate(61.2904 79.3581 61.9028)" fill="#30BABA" stroke="#30BABA" stroke-width="0.127806"/>
<line x1="93.754" y1="48.9056" x2="103.424" y2="55.2799" stroke="#30BABA" stroke-width="1.15025"/>
<line x1="87.6838" y1="49.0022" x2="81.0913" y2="58.5246" stroke="#30BABA" stroke-width="1.15025"/>
</g>
<defs>
<filter id="filter0_d_9137_8886" x="0" y="0" width="132.602" height="122.311" filterUnits="userSpaceOnUse" color-interpolation-filters="sRGB">
<feFlood flood-opacity="0" result="BackgroundImageFix"/>
<feColorMatrix in="SourceAlpha" type="matrix" values="0 0 0 0 0 0 0 0 0 0 0 0 0 0 0 0 0 0 127 0" result="hardAlpha"/>
<feOffset dy="4"/>
<feGaussianBlur stdDeviation="10"/>
<feComposite in2="hardAlpha" operator="out"/>
<feColorMatrix type="matrix" values="0 0 0 0 0 0 0 0 0 0 0 0 0 0 0 0 0 0 0.1 0"/>
<feBlend mode="normal" in2="BackgroundImageFix" result="effect1_dropShadow_9137_8886"/>
<feBlend mode="normal" in="SourceGraphic" in2="effect1_dropShadow_9137_8886" result="shape"/>
</filter>
</defs>
</svg>
