<svg width="53" height="51" viewBox="0 0 53 51" fill="none" xmlns="http://www.w3.org/2000/svg">
<path d="M39.9365 22.8467C40.0741 22.8467 40.2099 22.8791 40.332 22.9424H40.3311L52.2832 29.0957L52.3838 29.1562C52.4491 29.2019 52.5074 29.2566 52.5576 29.3184L52.75 29.0332V43.7451L52.7422 43.8623C52.7259 43.9779 52.6857 44.0893 52.624 44.1895C52.5624 44.2895 52.4805 44.3756 52.3848 44.4424L52.2842 44.5029L40.3311 50.6543L40.3301 50.6533C40.2083 50.7162 40.0736 50.75 39.9365 50.75C39.7989 50.75 39.6632 50.7166 39.541 50.6533L27.6221 44.5215V44.5205C27.4753 44.4545 27.3492 44.3499 27.2598 44.2158C27.1668 44.0764 27.1164 43.9127 27.1162 43.7451V29.8525L27.125 29.7354C27.1411 29.6192 27.1811 29.5068 27.2432 29.4062C27.3259 29.2723 27.4444 29.1639 27.585 29.0928L39.54 22.9424C39.6623 22.879 39.7988 22.8467 39.9365 22.8467ZM13.9229 36.5254V48.4961L24.1611 43.2266V31.2568L13.9229 36.5254ZM28.8359 43.2266L39.0771 48.4961V36.5254L28.8359 31.2549V43.2266ZM1.96875 43.2266L12.2061 48.4951V36.5254L1.96875 31.2559V43.2266ZM40.7939 36.5254V48.4951L51.0312 43.2266V31.2559L40.7939 36.5254ZM2.97461 29.8525L13.0654 35.0459L23.1562 29.8525L13.0654 24.6582L2.97461 29.8525ZM29.8428 29.8516L39.9346 35.0459L50.0244 29.8525L39.9336 24.6582L29.8428 29.8516ZM26.502 0.25C26.6394 0.25 26.7754 0.282615 26.8975 0.345703L38.8477 6.49707C38.9877 6.56842 39.1062 6.6777 39.1885 6.81152C39.2707 6.94527 39.3146 7.09889 39.3145 7.25586V21.1465C39.3145 21.3034 39.2707 21.4571 39.1885 21.5908C39.1063 21.7244 38.9884 21.8319 38.8486 21.9033L26.8975 28.0566C26.7752 28.1199 26.6396 28.1533 26.502 28.1533C26.3643 28.1533 26.2286 28.1209 26.1064 28.0576V28.0566L14.1895 21.9248V21.9238C14.0429 21.8574 13.9173 21.7523 13.8281 21.6182C13.7355 21.4787 13.6857 21.3148 13.6855 21.1475V7.25586C13.6857 7.09863 13.73 6.94445 13.8125 6.81055C13.895 6.67668 14.0123 6.5676 14.1523 6.49609L26.1074 0.345703C26.2293 0.282738 26.3647 0.250057 26.502 0.25ZM15.4033 20.6279L25.6406 25.8975V13.9268L15.4033 8.65723V20.6279ZM27.3594 13.9268V25.8975L37.5967 20.6279V8.65723L27.3594 13.9268ZM16.4092 7.25391L26.5 12.4473L36.5908 7.25488L26.499 2.06152L16.4092 7.25391ZM25.8838 43.7451C25.8838 43.902 25.84 44.0558 25.7578 44.1895C25.6962 44.2896 25.6144 44.3755 25.5186 44.4424L25.418 44.5029L13.4629 50.6543L13.4619 50.6533C13.3401 50.7162 13.2055 50.75 13.0684 50.75C12.9307 50.75 12.795 50.7166 12.6729 50.6533L0.753906 44.5215V44.5205C0.607297 44.4543 0.481763 44.349 0.392578 44.2148C0.299979 44.0755 0.250098 43.9124 0.25 43.7451V29.8525L0.255859 29.751C0.268058 29.65 0.29868 29.5518 0.345703 29.4609L0.416016 29.3477C0.495009 29.2406 0.598843 29.1533 0.71875 29.0928L12.6729 22.9424L12.7666 22.9004C12.8627 22.8644 12.9652 22.8467 13.0684 22.8467C13.206 22.8467 13.3417 22.879 13.4639 22.9424L13.5986 23.0127V23.0137L25.4131 29.0947C25.5534 29.1655 25.6719 29.2738 25.7549 29.4072C25.8379 29.5407 25.8831 29.6944 25.8838 29.8516V43.7451Z" fill="black" stroke="black" stroke-width="0.5"/>
</svg>
