<svg width="23" height="23" viewBox="0 0 23 23" fill="none" xmlns="http://www.w3.org/2000/svg">
<g clip-path="url(#clip0_9431_9922)">
<path d="M20.9564 4.89092C20.9564 5.34956 20.7034 5.8037 20.212 6.22743C19.7206 6.65116 19.0002 7.03617 18.0922 7.36047C17.1841 7.68478 16.1061 7.94203 14.9197 8.11755C13.7332 8.29306 12.4616 8.3834 11.1774 8.3834C8.58389 8.3834 6.09658 8.01544 4.26267 7.36047C2.42876 6.70551 1.39848 5.81718 1.39848 4.89092C1.39848 4.43228 1.65142 3.97813 2.14286 3.5544C2.6343 3.13068 3.35461 2.74567 4.26267 2.42136C5.17073 2.09705 6.24875 1.8398 7.43519 1.66429C8.62162 1.48877 9.89324 1.39844 11.1774 1.39844C12.4616 1.39844 13.7332 1.48877 14.9197 1.66429C16.1061 1.8398 17.1841 2.09705 18.0922 2.42136C19.0002 2.74567 19.7206 3.13068 20.212 3.5544C20.7034 3.97813 20.9564 4.43228 20.9564 4.89092Z" stroke="#A9A9A9" stroke-width="1.39718" stroke-linecap="round" stroke-linejoin="round"/>
<path d="M20.9564 17.4629C20.9564 18.0759 20.5046 18.6782 19.6463 19.2091C18.788 19.7401 17.5535 20.1809 16.0669 20.4875C14.5804 20.794 12.894 20.9554 11.1775 20.9554C9.46091 20.9554 7.77459 20.794 6.288 20.4875C4.80141 20.1809 3.56694 19.7401 2.70866 19.2091C1.85038 18.6782 1.39853 18.0759 1.39853 17.4629" stroke="#A9A9A9" stroke-width="1.39718" stroke-linecap="round" stroke-linejoin="round"/>
<path d="M20.9564 13.2715C20.9564 13.8845 20.5046 14.4868 19.6463 15.0177C18.788 15.5486 17.5535 15.9895 16.0669 16.2961C14.5804 16.6026 12.894 16.764 11.1775 16.764C9.46091 16.764 7.77459 16.6026 6.288 16.2961C4.80141 15.9895 3.56694 15.5486 2.70866 15.0177C1.85038 14.4868 1.39853 13.8845 1.39853 13.2715" stroke="#A9A9A9" stroke-width="1.39718" stroke-linecap="round" stroke-linejoin="round"/>
<path d="M20.9564 9.08203C20.9564 9.69509 20.5046 10.2973 19.6463 10.8283C18.788 11.3592 17.5535 11.8001 16.0669 12.1066C14.5804 12.4131 12.894 12.5745 11.1775 12.5745C9.46091 12.5745 7.77459 12.4131 6.288 12.1066C4.80141 11.8001 3.56694 11.3592 2.70866 10.8283C1.85038 10.2973 1.39853 9.69509 1.39853 9.08203" stroke="#A9A9A9" stroke-width="1.39718" stroke-linecap="round" stroke-linejoin="round"/>
<path d="M1.39853 4.89062V17.4635" stroke="#A9A9A9" stroke-width="1.39718" stroke-linecap="round" stroke-linejoin="round"/>
<path d="M20.9565 4.89062V17.4636" stroke="#A9A9A9" stroke-width="1.39718" stroke-linecap="round" stroke-linejoin="round"/>
</g>
<defs>
<clipPath id="clip0_9431_9922">
<rect width="22.3548" height="22.3548" fill="white"/>
</clipPath>
</defs>
</svg>
