<svg width="42" height="37" viewBox="0 0 42 37" fill="none" xmlns="http://www.w3.org/2000/svg">
<path d="M23.8093 9.66393V1.23982C23.8093 0.554986 24.3605 0 25.0405 0C25.4275 0 25.7725 0.180491 25.997 0.460501L41.6759 17.6628C42.1114 18.1402 42.1047 18.8689 41.6759 19.3378L25.9417 36.5993C25.4827 37.102 24.7055 37.134 24.2063 36.6718C23.9433 36.4289 23.8093 36.0949 23.8093 35.7626H23.8059V26.6571C9.34284 27.7822 2.19213 36.5317 2.17026 36.5572C1.73474 37.0801 0.95916 37.1509 0.439849 36.7107C0.114878 36.4374 -0.0325487 36.0326 0.00600299 35.6378C0.463306 24.4574 5.0546 18.0339 10.3699 14.3483C15.0969 11.0708 20.3736 9.99977 23.806 9.66209L23.8093 9.66393Z" fill="#1DD0D5"/>
</svg>
