<svg width="26" height="26" viewBox="0 0 26 26" fill="none" xmlns="http://www.w3.org/2000/svg">
<g clip-path="url(#clip0_6081_7978)">
<path d="M1.14027 4.66675C0.838888 4.66675 0.549849 4.79217 0.336739 5.01543C0.12363 5.23869 0.00390625 5.54149 0.00390625 5.85722V20.1429C0.00390625 20.4587 0.12363 20.7615 0.336739 20.9847C0.549849 21.208 0.838888 21.3334 1.14027 21.3334H4.04936C4.3255 21.3334 4.54936 21.1096 4.54936 20.8334V19.4525C4.54936 19.1763 4.77322 18.9525 5.04936 18.9525H6.32209C6.59823 18.9525 6.82209 19.1763 6.82209 19.4525V20.8334C6.82209 21.1096 7.04595 21.3334 7.32209 21.3334H8.59482C8.87096 21.3334 9.09482 21.1096 9.09482 20.8334V19.4525C9.09482 19.1763 9.31867 18.9525 9.59482 18.9525H10.8675C11.1437 18.9525 11.3675 19.1763 11.3675 19.4525V20.8334C11.3675 21.1096 11.5914 21.3334 11.8675 21.3334H13.1403C13.4164 21.3334 13.6403 21.1096 13.6403 20.8334V19.4525C13.6403 19.1763 13.8641 18.9525 14.1403 18.9525H15.413C15.6891 18.9525 15.913 19.1763 15.913 19.4525V20.8334C15.913 21.1096 16.1369 21.3334 16.413 21.3334H17.6857C17.9619 21.3334 18.1857 21.1096 18.1857 20.8334V19.4525C18.1857 19.1763 18.4096 18.9525 18.6857 18.9525H19.9585C20.2346 18.9525 20.4585 19.1763 20.4585 19.4525V20.8334C20.4585 21.1096 20.6823 21.3334 20.9585 21.3334H23.8675C24.1689 21.3334 24.458 21.208 24.6711 20.9847C24.8842 20.7615 25.0039 20.4587 25.0039 20.1429V5.85722C25.0039 5.54149 24.8842 5.23869 24.6711 5.01543C24.458 4.79217 24.1689 4.66675 23.8675 4.66675H1.14027ZM4.54936 9.92865C4.54936 9.65251 4.77322 9.42865 5.04936 9.42865H10.8675C11.1437 9.42865 11.3675 9.65251 11.3675 9.92865V12.5001C11.3675 12.7762 11.1437 13.0001 10.8675 13.0001H5.04936C4.77322 13.0001 4.54936 12.7762 4.54936 12.5001V9.92865ZM13.6403 9.92865C13.6403 9.65251 13.8641 9.42865 14.1403 9.42865H19.9585C20.2346 9.42865 20.4585 9.65251 20.4585 9.92865V12.5001C20.4585 12.7762 20.2346 13.0001 19.9585 13.0001H14.1403C13.8641 13.0001 13.6403 12.7762 13.6403 12.5001V9.92865Z" fill="#168F8F"/>
</g>
<defs>
<clipPath id="clip0_6081_7978">
<rect width="25" height="25" fill="white" transform="translate(0.0517578 0.5)"/>
</clipPath>
</defs>
</svg>
