<svg width="50" height="44" viewBox="0 0 50 44" fill="none" xmlns="http://www.w3.org/2000/svg">
<circle cx="15.1645" cy="3.9876" r="2.74034" transform="rotate(-57.3599 15.1645 3.9876)" fill="white"/>
<circle cx="4.62029" cy="22.0401" r="2.74034" transform="rotate(-119.775 4.62029 22.0401)" fill="white"/>
<circle cx="15.0411" cy="40.0569" r="2.74034" transform="rotate(-179.055 15.0411 40.0569)" fill="white"/>
<circle cx="35.6481" cy="39.9915" r="2.74034" transform="rotate(120.606 35.6481 39.9915)" fill="white"/>
<circle cx="45.9698" cy="21.8525" r="2.74034" transform="rotate(60.7085 45.9698 21.8525)" fill="white"/>
<circle cx="19.4917" cy="9.65117" r="2.74034" transform="rotate(-57.3599 19.4917 9.65117)" fill="white"/>
<circle cx="11.6437" cy="20.8263" r="2.74034" transform="rotate(-119.775 11.6437 20.8263)" fill="white"/>
<circle cx="17.587" cy="33.3996" r="2.74034" transform="rotate(-179.055 17.587 33.3996)" fill="white"/>
<circle cx="31.1237" cy="34.4834" r="2.74034" transform="rotate(120.606 31.1237 34.4834)" fill="white"/>
<circle cx="38.9366" cy="23.0068" r="2.74034" transform="rotate(60.7085 38.9366 23.0068)" fill="white"/>
<circle cx="13.9091" cy="13.8494" r="2.74034" transform="rotate(-57.3599 13.9091 13.8494)" fill="white"/>
<circle cx="12.7809" cy="27.7189" r="2.74034" transform="rotate(-119.775 12.7809 27.7189)" fill="white"/>
<circle cx="24.0924" cy="35.9416" r="2.74034" transform="rotate(-179.055 24.0924 35.9416)" fill="white"/>
<circle cx="36.5524" cy="30.0899" r="2.74034" transform="rotate(120.606 36.5524 30.0899)" fill="white"/>
<circle cx="37.8585" cy="16.1062" r="2.74034" transform="rotate(60.7085 37.8585 16.1062)" fill="white"/>
<circle cx="23.9824" cy="15.0601" r="2.74034" transform="rotate(-57.3599 23.9824 15.0601)" fill="white"/>
<circle cx="18.5168" cy="19.3507" r="2.74034" transform="rotate(-119.775 18.5168 19.3507)" fill="white"/>
<circle cx="19.8277" cy="26.7373" r="2.74034" transform="rotate(-179.055 19.8277 26.7373)" fill="white"/>
<circle cx="26.443" cy="29.2403" r="2.74034" transform="rotate(120.606 26.443 29.2403)" fill="white"/>
<circle cx="32.0513" cy="24.4245" r="2.74034" transform="rotate(60.7085 32.0513 24.4245)" fill="white"/>
<circle cx="35.5475" cy="4.00791" r="2.67643" fill="white" stroke="white" stroke-width="0.127806"/>
<circle cx="33.1114" cy="10.7066" r="2.67643" fill="white" stroke="white" stroke-width="0.127806"/>
<circle cx="26.565" cy="8.11827" r="2.67643" fill="white" stroke="white" stroke-width="0.127806"/>
<circle cx="30.9801" cy="17.4056" r="2.67643" fill="white" stroke="white" stroke-width="0.127806"/>
<line x1="28.5795" y1="7.6089" x2="33.7557" y2="4.86856" stroke="white" stroke-width="1.15025"/>
<line x1="27.5362" y1="10.4481" x2="30.1582" y2="15.6852" stroke="white" stroke-width="1.15025"/>
<circle cx="15.0494" cy="4.11718" r="2.67643" transform="rotate(-58.7242 15.0494 4.11718)" fill="white" stroke="white" stroke-width="0.127806"/>
<circle cx="19.5094" cy="9.67651" r="2.67643" transform="rotate(-58.7242 19.5094 9.67651)" fill="white" stroke="white" stroke-width="0.127806"/>
<circle cx="14.0294" cy="14.0071" r="2.67643" transform="rotate(-58.7242 14.0294 14.0071)" fill="white" stroke="white" stroke-width="0.127806"/>
<circle cx="24.1281" cy="14.9761" r="2.67643" transform="rotate(-58.7242 24.1281 14.9761)" fill="white" stroke="white" stroke-width="0.127806"/>
<line x1="14.5108" y1="11.9432" x2="14.856" y2="6.09651" stroke="white" stroke-width="1.15025"/>
<line x1="16.3961" y1="14.3086" x2="22.2333" y2="14.7866" stroke="white" stroke-width="1.15025"/>
<circle cx="4.69135" cy="22.0944" r="2.67643" transform="rotate(-119.965 4.69135 22.0944)" fill="white" stroke="white" stroke-width="0.127806"/>
<circle cx="11.7114" cy="20.859" r="2.67643" transform="rotate(-119.965 11.7114 20.859)" fill="white" stroke="white" stroke-width="0.127806"/>
<circle cx="12.8706" cy="27.7467" r="2.67643" transform="rotate(-119.965 12.8706 27.7467)" fill="white" stroke="white" stroke-width="0.127806"/>
<circle cx="18.579" cy="19.3603" r="2.67643" transform="rotate(-119.965 18.579 19.3603)" fill="white" stroke="white" stroke-width="0.127806"/>
<line x1="11.2927" y1="26.331" x2="6.33329" y2="23.2154" stroke="white" stroke-width="1.15025"/>
<line x1="14.2735" y1="25.8183" x2="17.501" y2="20.931" stroke="white" stroke-width="1.15025"/>
<circle cx="15.1967" cy="40.1308" r="2.67643" transform="rotate(-179.079 15.1967 40.1308)" fill="white" stroke="white" stroke-width="0.127806"/>
<circle cx="17.7391" cy="33.4716" r="2.67643" transform="rotate(-179.079 17.7391 33.4716)" fill="white" stroke="white" stroke-width="0.127806"/>
<circle cx="24.245" cy="36.0121" r="2.67643" transform="rotate(-179.079 24.245 36.0121)" fill="white" stroke="white" stroke-width="0.127806"/>
<circle cx="19.9784" cy="26.8075" r="2.67643" transform="rotate(-179.079 19.9784 26.8075)" fill="white" stroke="white" stroke-width="0.127806"/>
<line x1="22.2204" y1="36.6407" x2="17.0008" y2="39.2975" stroke="white" stroke-width="1.15025"/>
<line x1="23.3103" y1="33.8188" x2="20.7728" y2="28.5401" stroke="white" stroke-width="1.15025"/>
<circle cx="35.5923" cy="40.0271" r="2.67643" transform="rotate(121.665 35.5923 40.0271)" fill="white" stroke="white" stroke-width="0.127806"/>
<circle cx="31.17" cy="34.4363" r="2.67643" transform="rotate(121.665 31.17 34.4363)" fill="white" stroke="white" stroke-width="0.127806"/>
<circle cx="36.6797" cy="30.1438" r="2.67643" transform="rotate(121.665 36.6797 30.1438)" fill="white" stroke="white" stroke-width="0.127806"/>
<circle cx="26.5743" cy="29.0921" r="2.67643" transform="rotate(121.665 26.5743 29.0921)" fill="white" stroke="white" stroke-width="0.127806"/>
<line x1="36.1837" y1="32.2041" x2="35.7988" y2="38.0482" stroke="white" stroke-width="1.15025"/>
<line x1="34.3154" y1="29.826" x2="28.4815" y2="29.3084" stroke="white" stroke-width="1.15025"/>
<circle cx="45.8465" cy="22.0311" r="2.67643" transform="rotate(61.2904 45.8465 22.0311)" fill="white" stroke="white" stroke-width="0.127806"/>
<circle cx="38.8011" cy="23.1124" r="2.67643" transform="rotate(61.2904 38.8011 23.1124)" fill="white" stroke="white" stroke-width="0.127806"/>
<circle cx="37.7933" cy="16.2001" r="2.67643" transform="rotate(61.2904 37.7933 16.2001)" fill="white" stroke="white" stroke-width="0.127806"/>
<circle cx="31.9027" cy="24.4606" r="2.67643" transform="rotate(61.2904 31.9027 24.4606)" fill="white" stroke="white" stroke-width="0.127806"/>
<line x1="39.34" y1="17.6504" x2="44.2299" y2="20.8739" stroke="white" stroke-width="1.15025"/>
<line x1="36.3488" y1="18.0986" x2="33.0151" y2="22.914" stroke="white" stroke-width="1.15025"/>
</svg>
