<svg width="223" height="60" viewBox="0 0 223 60" fill="none" xmlns="http://www.w3.org/2000/svg">
<circle cx="21.1645" cy="11.9876" r="2.74034" transform="rotate(-57.3599 21.1645 11.9876)" fill="white"/>
<circle cx="10.6203" cy="30.0401" r="2.74034" transform="rotate(-119.775 10.6203 30.0401)" fill="white"/>
<circle cx="21.0411" cy="48.0569" r="2.74034" transform="rotate(-179.055 21.0411 48.0569)" fill="white"/>
<circle cx="41.6481" cy="47.9915" r="2.74034" transform="rotate(120.606 41.6481 47.9915)" fill="white"/>
<circle cx="51.9698" cy="29.8525" r="2.74034" transform="rotate(60.7085 51.9698 29.8525)" fill="white"/>
<circle cx="25.4917" cy="17.6512" r="2.74034" transform="rotate(-57.3599 25.4917 17.6512)" fill="white"/>
<circle cx="17.6437" cy="28.8263" r="2.74034" transform="rotate(-119.775 17.6437 28.8263)" fill="white"/>
<circle cx="23.587" cy="41.3996" r="2.74034" transform="rotate(-179.055 23.587 41.3996)" fill="white"/>
<circle cx="37.1237" cy="42.4834" r="2.74034" transform="rotate(120.606 37.1237 42.4834)" fill="white"/>
<circle cx="44.9366" cy="31.0068" r="2.74034" transform="rotate(60.7085 44.9366 31.0068)" fill="white"/>
<circle cx="19.9091" cy="21.8494" r="2.74034" transform="rotate(-57.3599 19.9091 21.8494)" fill="white"/>
<circle cx="18.7809" cy="35.7189" r="2.74034" transform="rotate(-119.775 18.7809 35.7189)" fill="white"/>
<circle cx="30.0924" cy="43.9416" r="2.74034" transform="rotate(-179.055 30.0924 43.9416)" fill="white"/>
<circle cx="42.5524" cy="38.0899" r="2.74034" transform="rotate(120.606 42.5524 38.0899)" fill="white"/>
<circle cx="43.8585" cy="24.1062" r="2.74034" transform="rotate(60.7085 43.8585 24.1062)" fill="white"/>
<circle cx="29.9824" cy="23.0601" r="2.74034" transform="rotate(-57.3599 29.9824 23.0601)" fill="white"/>
<circle cx="24.5168" cy="27.3507" r="2.74034" transform="rotate(-119.775 24.5168 27.3507)" fill="white"/>
<circle cx="25.8277" cy="34.7373" r="2.74034" transform="rotate(-179.055 25.8277 34.7373)" fill="white"/>
<circle cx="32.443" cy="37.2403" r="2.74034" transform="rotate(120.606 32.443 37.2403)" fill="white"/>
<circle cx="38.0513" cy="32.4245" r="2.74034" transform="rotate(60.7085 38.0513 32.4245)" fill="white"/>
<circle cx="41.5475" cy="12.0079" r="2.67643" fill="white" stroke="white" stroke-width="0.127806"/>
<circle cx="39.1114" cy="18.7066" r="2.67643" fill="white" stroke="white" stroke-width="0.127806"/>
<circle cx="32.565" cy="16.1183" r="2.67643" fill="white" stroke="white" stroke-width="0.127806"/>
<circle cx="36.9801" cy="25.4056" r="2.67643" fill="white" stroke="white" stroke-width="0.127806"/>
<line x1="34.5795" y1="15.6089" x2="39.7557" y2="12.8686" stroke="white" stroke-width="1.15025"/>
<line x1="33.5362" y1="18.4481" x2="36.1582" y2="23.6852" stroke="white" stroke-width="1.15025"/>
<circle cx="21.0494" cy="12.1172" r="2.67643" transform="rotate(-58.7242 21.0494 12.1172)" fill="white" stroke="white" stroke-width="0.127806"/>
<circle cx="25.5094" cy="17.6765" r="2.67643" transform="rotate(-58.7242 25.5094 17.6765)" fill="white" stroke="white" stroke-width="0.127806"/>
<circle cx="20.0294" cy="22.0071" r="2.67643" transform="rotate(-58.7242 20.0294 22.0071)" fill="white" stroke="white" stroke-width="0.127806"/>
<circle cx="30.1281" cy="22.9761" r="2.67643" transform="rotate(-58.7242 30.1281 22.9761)" fill="white" stroke="white" stroke-width="0.127806"/>
<line x1="20.5108" y1="19.9432" x2="20.856" y2="14.0965" stroke="white" stroke-width="1.15025"/>
<line x1="22.3961" y1="22.3086" x2="28.2333" y2="22.7866" stroke="white" stroke-width="1.15025"/>
<circle cx="10.6914" cy="30.0944" r="2.67643" transform="rotate(-119.965 10.6914 30.0944)" fill="white" stroke="white" stroke-width="0.127806"/>
<circle cx="17.7114" cy="28.859" r="2.67643" transform="rotate(-119.965 17.7114 28.859)" fill="white" stroke="white" stroke-width="0.127806"/>
<circle cx="18.8706" cy="35.7467" r="2.67643" transform="rotate(-119.965 18.8706 35.7467)" fill="white" stroke="white" stroke-width="0.127806"/>
<circle cx="24.579" cy="27.3603" r="2.67643" transform="rotate(-119.965 24.579 27.3603)" fill="white" stroke="white" stroke-width="0.127806"/>
<line x1="17.2927" y1="34.331" x2="12.3333" y2="31.2154" stroke="white" stroke-width="1.15025"/>
<line x1="20.2735" y1="33.8183" x2="23.501" y2="28.931" stroke="white" stroke-width="1.15025"/>
<circle cx="21.1967" cy="48.1308" r="2.67643" transform="rotate(-179.079 21.1967 48.1308)" fill="white" stroke="white" stroke-width="0.127806"/>
<circle cx="23.7391" cy="41.4716" r="2.67643" transform="rotate(-179.079 23.7391 41.4716)" fill="white" stroke="white" stroke-width="0.127806"/>
<circle cx="30.245" cy="44.0121" r="2.67643" transform="rotate(-179.079 30.245 44.0121)" fill="white" stroke="white" stroke-width="0.127806"/>
<circle cx="25.9784" cy="34.8075" r="2.67643" transform="rotate(-179.079 25.9784 34.8075)" fill="white" stroke="white" stroke-width="0.127806"/>
<line x1="28.2204" y1="44.6407" x2="23.0008" y2="47.2975" stroke="white" stroke-width="1.15025"/>
<line x1="29.3103" y1="41.8188" x2="26.7728" y2="36.5401" stroke="white" stroke-width="1.15025"/>
<circle cx="41.5923" cy="48.0271" r="2.67643" transform="rotate(121.665 41.5923 48.0271)" fill="white" stroke="white" stroke-width="0.127806"/>
<circle cx="37.17" cy="42.4363" r="2.67643" transform="rotate(121.665 37.17 42.4363)" fill="white" stroke="white" stroke-width="0.127806"/>
<circle cx="42.6797" cy="38.1438" r="2.67643" transform="rotate(121.665 42.6797 38.1438)" fill="white" stroke="white" stroke-width="0.127806"/>
<circle cx="32.5743" cy="37.0921" r="2.67643" transform="rotate(121.665 32.5743 37.0921)" fill="white" stroke="white" stroke-width="0.127806"/>
<line x1="42.1837" y1="40.2041" x2="41.7988" y2="46.0482" stroke="white" stroke-width="1.15025"/>
<line x1="40.3154" y1="37.826" x2="34.4815" y2="37.3084" stroke="white" stroke-width="1.15025"/>
<circle cx="51.8465" cy="30.0311" r="2.67643" transform="rotate(61.2904 51.8465 30.0311)" fill="white" stroke="white" stroke-width="0.127806"/>
<circle cx="44.8011" cy="31.1124" r="2.67643" transform="rotate(61.2904 44.8011 31.1124)" fill="white" stroke="white" stroke-width="0.127806"/>
<circle cx="43.7933" cy="24.2001" r="2.67643" transform="rotate(61.2904 43.7933 24.2001)" fill="white" stroke="white" stroke-width="0.127806"/>
<circle cx="37.9027" cy="32.4606" r="2.67643" transform="rotate(61.2904 37.9027 32.4606)" fill="white" stroke="white" stroke-width="0.127806"/>
<line x1="45.34" y1="25.6504" x2="50.2299" y2="28.8739" stroke="white" stroke-width="1.15025"/>
<line x1="42.3488" y1="26.0986" x2="39.0151" y2="30.914" stroke="white" stroke-width="1.15025"/>
<path d="M64.4127 38.364V21.9125H72.1919C74.0094 21.9125 75.6076 22.2494 76.9864 22.9231C78.3652 23.5968 79.4384 24.5448 80.2062 25.7669C80.9896 26.989 81.3813 28.4461 81.3813 30.1383C81.3813 31.8148 80.9896 33.2719 80.2062 34.5097C79.4384 35.7318 78.3652 36.6797 76.9864 37.3534C75.6076 38.0271 74.0094 38.364 72.1919 38.364H64.4127ZM69.0661 34.6507H72.0039C72.944 34.6507 73.7587 34.4783 74.4481 34.1336C75.1532 33.7733 75.7016 33.2562 76.0933 32.5825C76.485 31.8931 76.6808 31.0784 76.6808 30.1383C76.6808 29.1825 76.485 28.3678 76.0933 27.694C75.7016 27.0203 75.1532 26.5111 74.4481 26.1664C73.7587 25.806 72.944 25.6259 72.0039 25.6259H69.0661V34.6507ZM81.6258 38.364L88.888 21.9125H93.4709L100.757 38.364H95.9151L90.2276 24.1922H92.0608L86.3733 38.364H81.6258ZM85.5977 35.1677L86.7963 31.7364H94.834L96.0326 35.1677H85.5977ZM104.751 38.364V25.6024H99.6984V21.9125H114.434V25.6024H109.405V38.364H104.751ZM113.367 38.364L120.63 21.9125H125.213L132.498 38.364H127.657L121.969 24.1922H123.802L118.115 38.364H113.367ZM117.339 35.1677L118.538 31.7364H126.576L127.774 35.1677H117.339ZM138.142 29.1277H145.733V32.7235H138.142V29.1277ZM138.471 38.364H133.817V21.9125H146.72V25.5083H138.471V38.364ZM148.896 38.364V21.9125H153.55V34.6742H161.4V38.364H148.896ZM171.285 38.693C169.969 38.693 168.754 38.4815 167.642 38.0585C166.53 37.6354 165.558 37.0401 164.728 36.2723C163.913 35.4889 163.278 34.5802 162.824 33.5461C162.37 32.512 162.142 31.376 162.142 30.1383C162.142 28.9005 162.37 27.7646 162.824 26.7305C163.278 25.6964 163.913 24.7954 164.728 24.0277C165.558 23.2443 166.53 22.6411 167.642 22.218C168.754 21.795 169.969 21.5835 171.285 21.5835C172.617 21.5835 173.831 21.795 174.928 22.218C176.04 22.6411 177.004 23.2443 177.818 24.0277C178.633 24.7954 179.268 25.6964 179.722 26.7305C180.192 27.7646 180.427 28.9005 180.427 30.1383C180.427 31.376 180.192 32.5198 179.722 33.5696C179.268 34.6037 178.633 35.5046 177.818 36.2723C177.004 37.0401 176.04 37.6354 174.928 38.0585C173.831 38.4815 172.617 38.693 171.285 38.693ZM171.285 34.8387C171.912 34.8387 172.491 34.729 173.024 34.5097C173.572 34.2903 174.042 33.9769 174.434 33.5696C174.841 33.1465 175.155 32.6452 175.374 32.0654C175.609 31.4857 175.727 30.8433 175.727 30.1383C175.727 29.4175 175.609 28.7751 175.374 28.2111C175.155 27.6314 174.841 27.1378 174.434 26.7305C174.042 26.3074 173.572 25.9862 173.024 25.7669C172.491 25.5475 171.912 25.4378 171.285 25.4378C170.658 25.4378 170.071 25.5475 169.522 25.7669C168.989 25.9862 168.519 26.3074 168.112 26.7305C167.72 27.1378 167.407 27.6314 167.172 28.2111C166.953 28.7751 166.843 29.4175 166.843 30.1383C166.843 30.8433 166.953 31.4857 167.172 32.0654C167.407 32.6452 167.72 33.1465 168.112 33.5696C168.519 33.9769 168.989 34.2903 169.522 34.5097C170.071 34.729 170.658 34.8387 171.285 34.8387ZM186.356 38.364L181.021 21.9125H185.816L190.305 36.1548H187.884L192.608 21.9125H196.885L201.351 36.1548H199.024L203.654 21.9125H208.096L202.761 38.364H197.779L193.971 26.2604H195.311L191.339 38.364H186.356Z" fill="white"/>
</svg>
