<svg width="467" height="467" viewBox="0 0 467 467" fill="none" xmlns="http://www.w3.org/2000/svg">
<mask id="path-1-inside-1_1576_30758" fill="white">
<path d="M466.2 233.1C466.2 361.838 361.838 466.2 233.1 466.2C104.362 466.2 0 361.838 0 233.1C0 104.362 104.362 0 233.1 0C361.838 0 466.2 104.362 466.2 233.1ZM6.95525 233.1C6.95525 357.996 108.204 459.245 233.1 459.245C357.996 459.245 459.245 357.996 459.245 233.1C459.245 108.204 357.996 6.95525 233.1 6.95525C108.204 6.95525 6.95525 108.204 6.95525 233.1Z"/>
</mask>
<path d="M466.2 233.1C466.2 361.838 361.838 466.2 233.1 466.2C104.362 466.2 0 361.838 0 233.1C0 104.362 104.362 0 233.1 0C361.838 0 466.2 104.362 466.2 233.1ZM6.95525 233.1C6.95525 357.996 108.204 459.245 233.1 459.245C357.996 459.245 459.245 357.996 459.245 233.1C459.245 108.204 357.996 6.95525 233.1 6.95525C108.204 6.95525 6.95525 108.204 6.95525 233.1Z" stroke="url(#paint0_angular_1576_30758)" stroke-width="7" mask="url(#path-1-inside-1_1576_30758)"/>
<path d="M13.6484 232.4C13.6484 261.127 19.3066 289.572 30.2998 316.112C41.293 342.652 57.406 366.767 77.7188 387.08C98.0316 407.392 122.146 423.505 148.686 434.499C175.226 445.492 203.672 451.15 232.398 451.15C261.125 451.15 289.57 445.492 316.11 434.499C342.65 423.505 366.765 407.392 387.078 387.08C407.391 366.767 423.504 342.652 434.497 316.112C445.49 289.572 451.148 261.127 451.148 232.4C451.148 203.673 445.49 175.228 434.497 148.688C423.504 122.148 407.391 98.0331 387.078 77.7203C366.765 57.4075 342.65 41.2945 316.11 30.3012C289.57 19.308 261.125 13.6499 232.398 13.6499C203.672 13.6499 175.226 19.308 148.686 30.3013C122.146 41.2945 98.0316 57.4075 77.7188 77.7203C57.406 98.0331 41.293 122.148 30.2998 148.688C19.3066 175.228 13.6484 203.673 13.6484 232.4L13.6484 232.4Z" stroke="url(#paint1_angular_1576_30758)" stroke-width="3.5"/>
<path d="M117.598 91.6997H348.598M117.598 91.6997L114.423 107.496C107.946 139.719 122.636 172.501 150.997 189.112L215.785 227.06C220.401 229.763 220.401 236.436 215.785 239.14L151.482 276.803C122.885 293.553 108.214 326.72 115.057 359.146L118.298 374.5M117.598 91.6997H89.5977M348.598 91.6997L351.773 107.496C358.25 139.719 343.559 172.501 315.199 189.112L250.39 227.072C245.778 229.773 245.772 236.437 250.379 239.146L314.808 277.034C343.353 293.82 357.969 326.977 351.104 359.372L347.898 374.5M348.598 91.6997H376.598M347.898 374.5H375.898M347.898 374.5H118.298M118.298 374.5H89.5977" stroke="#209999" stroke-width="14" stroke-linecap="round"/>
<rect x="226.098" y="235.9" width="14" height="117.6" rx="7" fill="#209999"/>
<rect x="226.098" y="154.7" width="14" height="14" rx="7" fill="#209999"/>
<rect x="254.098" y="154.7" width="14" height="14" rx="7" fill="#209999"/>
<rect x="198.098" y="154.7" width="14" height="14" rx="7" fill="#209999"/>
<rect x="226.098" y="126.7" width="14" height="14" rx="7" fill="#209999"/>
<rect x="226.098" y="98.6997" width="14" height="14" rx="7" fill="#209999"/>
<rect x="254.098" y="182.7" width="14" height="14" rx="7" fill="#209999"/>
<rect x="254.098" y="182.7" width="14" height="14" rx="7" fill="#209999"/>
<rect x="226.098" y="182.7" width="14" height="14" rx="7" fill="#209999"/>
<rect x="254.098" y="207.9" width="14" height="14" rx="7" fill="#209999"/>
<rect x="254.098" y="242.9" width="14" height="96.6" rx="7" fill="#209999"/>
<rect x="282.098" y="154.7" width="14" height="14" rx="7" fill="#209999"/>
<rect x="282.098" y="182.7" width="14" height="14" rx="7" fill="#209999"/>
<rect x="254.098" y="126.7" width="14" height="14" rx="7" fill="#209999"/>
<rect x="254.098" y="98.6997" width="14" height="14" rx="7" fill="#209999"/>
<rect x="310.098" y="154.7" width="14" height="14" rx="7" fill="#209999"/>
<rect x="198.098" y="182.7" width="14" height="14" rx="7" fill="#209999"/>
<rect x="282.098" y="259" width="14" height="66.5" rx="7" fill="#209999"/>
<rect x="198.098" y="207.9" width="14" height="14" rx="7" fill="#209999"/>
<rect x="226.098" y="207.9" width="14" height="14" rx="7" fill="#209999"/>
<rect x="282.098" y="126.7" width="14" height="14" rx="7" fill="#209999"/>
<rect x="170.098" y="154.7" width="14" height="14" rx="7" fill="#209999"/>
<rect x="170.098" y="182.7" width="14" height="14" rx="7" fill="#209999"/>
<rect x="142.098" y="154.7" width="14" height="14" rx="7" fill="#209999"/>
<rect x="198.098" y="242.9" width="14" height="96.6" rx="7" fill="#209999"/>
<rect x="198.098" y="126.7" width="14" height="14" rx="7" fill="#209999"/>
<rect x="198.098" y="98.6997" width="14" height="14" rx="7" fill="#209999"/>
<rect x="170.098" y="259" width="14" height="66.5" rx="7" fill="#209999"/>
<rect x="142.098" y="276.5" width="14" height="35" rx="7" fill="#209999"/>
<rect x="310.098" y="276.5" width="14" height="35" rx="7" fill="#209999"/>
<rect x="170.098" y="126.7" width="14" height="14" rx="7" fill="#209999"/>
<defs>
<radialGradient id="paint0_angular_1576_30758" cx="0" cy="0" r="1" gradientUnits="userSpaceOnUse" gradientTransform="translate(453.6 267.925) rotate(-180) scale(453.6)">
<stop stop-color="#209999"/>
<stop offset="1" stop-color="#209999" stop-opacity="0"/>
</radialGradient>
<radialGradient id="paint1_angular_1576_30758" cx="0" cy="0" r="1" gradientUnits="userSpaceOnUse" gradientTransform="translate(23.8174 265.342) scale(429.081)">
<stop stop-color="#5FCFCF" stop-opacity="0.7"/>
<stop offset="1" stop-color="#5FCFCF" stop-opacity="0"/>
</radialGradient>
</defs>
</svg>
