<svg width="943" height="846" viewBox="0 0 943 846" fill="none" xmlns="http://www.w3.org/2000/svg">
<g opacity="0.08">
<circle cx="670.62" cy="70.8223" r="52.6158" fill="#1DD0D5" stroke="#1DD0D5"/>
<circle cx="623.401" cy="200.661" r="52.6158" fill="#1DD0D5" stroke="#1DD0D5"/>
<circle cx="496.514" cy="150.496" r="52.6158" fill="#1DD0D5" stroke="#1DD0D5"/>
<circle cx="582.088" cy="330.5" r="52.6158" fill="#1DD0D5" stroke="#1DD0D5"/>
<line x1="538.672" y1="146.519" x2="639.002" y2="93.4033" stroke="#1DD0D5" stroke-width="9"/>
<line x1="509.387" y1="198.647" x2="560.209" y2="300.158" stroke="#1DD0D5" stroke-width="9"/>
<circle cx="273.313" cy="72.9725" r="52.6158" transform="rotate(-58.7242 273.313 72.9725)" fill="#1DD0D5" stroke="#1DD0D5"/>
<circle cx="359.778" cy="180.732" r="52.6158" transform="rotate(-58.7242 359.778 180.732)" fill="#1DD0D5" stroke="#1DD0D5"/>
<circle cx="253.544" cy="264.669" r="52.6158" transform="rotate(-58.7242 253.544 264.669)" fill="#1DD0D5" stroke="#1DD0D5"/>
<circle cx="449.289" cy="283.447" r="52.6158" transform="rotate(-58.7242 449.289 283.447)" fill="#1DD0D5" stroke="#1DD0D5"/>
<line x1="269.513" y1="225.041" x2="276.203" y2="111.716" stroke="#1DD0D5" stroke-width="9"/>
<line x1="298.86" y1="277.129" x2="412.004" y2="286.393" stroke="#1DD0D5" stroke-width="9"/>
<circle cx="72.5456" cy="421.392" r="52.6158" transform="rotate(-119.965 72.5456 421.392)" fill="#1DD0D5" stroke="#1DD0D5"/>
<circle cx="208.608" cy="397.444" r="52.6158" transform="rotate(-119.965 208.608 397.444)" fill="#1DD0D5" stroke="#1DD0D5"/>
<circle cx="231.089" cy="530.953" r="52.6158" transform="rotate(-119.965 231.089 530.953)" fill="#1DD0D5" stroke="#1DD0D5"/>
<circle cx="341.737" cy="368.384" r="52.6158" transform="rotate(-119.965 341.737 368.384)" fill="#1DD0D5" stroke="#1DD0D5"/>
<line x1="204.033" y1="497.891" x2="107.905" y2="437.502" stroke="#1DD0D5" stroke-width="9"/>
<line x1="263.808" y1="497.222" x2="326.366" y2="402.491" stroke="#1DD0D5" stroke-width="9"/>
<circle cx="276.155" cy="770.994" r="52.6158" transform="rotate(-179.079 276.155 770.994)" fill="#1DD0D5" stroke="#1DD0D5"/>
<circle cx="325.46" cy="641.931" r="52.6158" transform="rotate(-179.079 325.46 641.931)" fill="#1DD0D5" stroke="#1DD0D5"/>
<circle cx="451.565" cy="691.18" r="52.6158" transform="rotate(-179.079 451.565 691.18)" fill="#1DD0D5" stroke="#1DD0D5"/>
<circle cx="368.847" cy="512.774" r="52.6158" transform="rotate(-179.079 368.847 512.774)" fill="#1DD0D5" stroke="#1DD0D5"/>
<line x1="409.299" y1="697.429" x2="308.128" y2="748.925" stroke="#1DD0D5" stroke-width="9"/>
<line x1="439.417" y1="645.779" x2="390.234" y2="543.464" stroke="#1DD0D5" stroke-width="9"/>
<circle cx="671.5" cy="771.931" r="52.6158" transform="rotate(121.665 671.5 771.931)" fill="#1DD0D5" stroke="#1DD0D5"/>
<circle cx="585.769" cy="663.586" r="52.6158" transform="rotate(121.665 585.769 663.586)" fill="#1DD0D5" stroke="#1DD0D5"/>
<circle cx="692.57" cy="580.374" r="52.6158" transform="rotate(121.665 692.57 580.374)" fill="#1DD0D5" stroke="#1DD0D5"/>
<circle cx="496.949" cy="560.265" r="52.6158" transform="rotate(121.665 496.949 560.265)" fill="#1DD0D5" stroke="#1DD0D5"/>
<line x1="676.332" y1="619.892" x2="668.872" y2="733.169" stroke="#1DD0D5" stroke-width="9"/>
<line x1="647.343" y1="567.605" x2="534.264" y2="557.573" stroke="#1DD0D5" stroke-width="9"/>
<circle cx="870.253" cy="420.167" r="52.6158" transform="rotate(61.2904 870.253 420.167)" fill="#1DD0D5" stroke="#1DD0D5"/>
<circle cx="733.691" cy="441.128" r="52.6158" transform="rotate(61.2904 733.691 441.128)" fill="#1DD0D5" stroke="#1DD0D5"/>
<circle cx="714.144" cy="307.159" r="52.6158" transform="rotate(61.2904 714.144 307.159)" fill="#1DD0D5" stroke="#1DD0D5"/>
<circle cx="599.968" cy="467.264" r="52.6158" transform="rotate(61.2904 599.968 467.264)" fill="#1DD0D5" stroke="#1DD0D5"/>
<line x1="740.465" y1="340.805" x2="835.247" y2="403.286" stroke="#1DD0D5" stroke-width="9"/>
<line x1="680.692" y1="340.165" x2="616.074" y2="433.502" stroke="#1DD0D5" stroke-width="9"/>
</g>
</svg>
